<svg xmlns="http://www.w3.org/2000/svg" width="66.555" height="12.018" viewBox="0 0 66.555 12.018">
  <g id="Group_2942" data-name="Group 2942" transform="translate(-415.033 -748.633)">
    <path id="Down_Arrow_3_" d="M26.009,46.555a.545.545,0,0,1-.386-.16L20.16,40.932a.546.546,0,1,1,.772-.772l5.076,5.076,5.076-5.076a.546.546,0,1,1,.772.772l-5.463,5.463a.545.545,0,0,1-.386.16Z" transform="translate(461.588 728.633) rotate(90)"/>
    <path id="Down_Arrow_3_2" data-name="Down_Arrow_3_" d="M6.009,0a.545.545,0,0,0-.386.16L.16,5.623A.546.546,0,0,0,.932,6.4L6.009,1.319,11.085,6.4a.546.546,0,1,0,.772-.772L6.4.16A.545.545,0,0,0,6.009,0Z" transform="translate(481.589 748.633) rotate(90)"/>
  </g>
</svg>
