<svg xmlns="http://www.w3.org/2000/svg" width="23.197" height="220.635" viewBox="0 0 23.197 220.635">
  <g id="Group_3007" data-name="Group 3007" transform="translate(-103 297.179)">
    <g id="search_4_" data-name="search (4)" transform="translate(103 -99.496)">
      <g id="search_1_" transform="translate(0)">
        <path id="Path_2" data-name="Path 2" d="M68.235,20.167A10.041,10.041,0,1,0,58.194,10.125,10.041,10.041,0,0,0,68.235,20.167Zm0-17.214a7.172,7.172,0,1,1-7.172,7.172A7.172,7.172,0,0,1,68.235,2.953Z" transform="translate(-58.194 -0.084)"/>
        <path id="Path_3" data-name="Path 3" d="M6.86,305.522a1.434,1.434,0,0,0,1.027-2.445l-.008-.008-5.394-5.394a1.466,1.466,0,0,0-2.037,2.109l5.394,5.322a1.434,1.434,0,0,0,1.018.416Z" transform="translate(14.658 -282.571)"/>
      </g>
    </g>
    <g id="calendar" transform="translate(102 -299.179)">
      <path id="Path_4835" data-name="Path 4835" d="M21.667,2H19.5V4.168a.723.723,0,0,1-1.445,0V2H6.492V4.168a.723.723,0,0,1-1.445,0V2H2.879A1.99,1.99,0,0,0,1,4.168v2.6H24.124v-2.6A2.438,2.438,0,0,0,21.667,2ZM1,8.287V21.511a1.961,1.961,0,0,0,1.951,2.168H21.74A2.438,2.438,0,0,0,24.2,21.511V8.287Zm6.431,12.14H5.7a.57.57,0,0,1-.578-.578V18.043a.57.57,0,0,1,.578-.578H7.5a.57.57,0,0,1,.578.578v1.807a.633.633,0,0,1-.65.578Zm0-6.5H5.7a.57.57,0,0,1-.578-.578V11.539a.57.57,0,0,1,.578-.578H7.5a.57.57,0,0,1,.578.578v1.807a.633.633,0,0,1-.65.578Zm5.781,6.5H11.406a.57.57,0,0,1-.578-.578V18.043a.57.57,0,0,1,.578-.578h1.807a.57.57,0,0,1,.578.578v1.807A.532.532,0,0,1,13.213,20.427Zm0-6.5H11.406a.57.57,0,0,1-.578-.578V11.539a.57.57,0,0,1,.578-.578h1.807a.57.57,0,0,1,.578.578v1.807A.532.532,0,0,1,13.213,13.924Zm5.781,6.5H17.187a.57.57,0,0,1-.578-.578V18.043a.57.57,0,0,1,.578-.578h1.807a.57.57,0,0,1,.578.578v1.807A.532.532,0,0,1,18.994,20.427Zm0-6.5H17.187a.57.57,0,0,1-.578-.578V11.539a.57.57,0,0,1,.578-.578h1.807a.57.57,0,0,1,.578.578v1.807A.532.532,0,0,1,18.994,13.924Z"/>
    </g>
    <g id="hourglass" transform="translate(45 -232)">
      <g id="Group_3002" data-name="Group 3002" transform="translate(61)">
        <path id="Path_14390" data-name="Path 14390" d="M72.306,8.318A9.007,9.007,0,0,0,75.753,1.23H77V0H61V1.23h1.243A9.007,9.007,0,0,0,65.69,8.318c.934.852,1.462,1.373,1.462,2.182s-.528,1.33-1.462,2.182a9.007,9.007,0,0,0-3.447,7.088H61V21H77v-1.23H75.753a9.007,9.007,0,0,0-3.447-7.088c-.934-.852-1.462-1.373-1.462-2.182S71.372,9.17,72.306,8.318Zm-3.923,6.794a3.111,3.111,0,0,0-.561.172l-3.768,1.559a8.394,8.394,0,0,1,2.465-3.252c.959-.874,1.864-1.7,1.864-3.091Zm3.094-1.52a8.4,8.4,0,0,1,2.465,3.252l-3.768-1.559a3.111,3.111,0,0,0-.561-.172V10.5C69.613,11.892,70.519,12.717,71.477,13.591ZM64.032,4.1a9.116,9.116,0,0,1-.557-2.871H74.521A9.115,9.115,0,0,1,73.964,4.1Z" transform="translate(-61)"/>
      </g>
    </g>
    <g id="user" transform="translate(73 -167.5)">
      <g id="Group_3004" data-name="Group 3004" transform="translate(35.307)">
        <g id="Group_3003" data-name="Group 3003" transform="translate(0)">
          <path id="Path_14391" data-name="Path 14391" d="M127.461,0a6.461,6.461,0,1,0,6.461,6.461A6.468,6.468,0,0,0,127.461,0Z" transform="translate(-121 0)"/>
        </g>
      </g>
      <g id="Group_3006" data-name="Group 3006" transform="translate(31 14.358)">
        <g id="Group_3005" data-name="Group 3005" transform="translate(0)">
          <path id="Path_14392" data-name="Path 14392" d="M49.807,302.785A9.211,9.211,0,0,0,43.2,300H40.333a9.211,9.211,0,0,0-6.6,2.785A9.416,9.416,0,0,0,31,309.428a.718.718,0,0,0,.718.718h20.1a.718.718,0,0,0,.718-.718A9.416,9.416,0,0,0,49.807,302.785Z" transform="translate(-31 -300)"/>
        </g>
      </g>
    </g>
  </g>
</svg>
