<svg xmlns="http://www.w3.org/2000/svg" width="49.302" height="49.305" viewBox="0 0 49.302 49.305">
  <g id="_x36_4" transform="translate(-3 -2.997)">
    <g id="Group_873" data-name="Group 873" transform="translate(3 2.997)">
      <g id="Group_868" data-name="Group 868">
        <g id="Group_795" data-name="Group 795">
          <g id="Group_662" data-name="Group 662" transform="translate(1.232 29.258)">
            <path id="Path_1974" data-name="Path 1974" d="M50.856,62.9v.015c-.031.647-.1,1.34-.208,2.072.008.008,0,.015-.008.023-.863,5.593-4.391,13.25-16.277,14.629-14,1.625-21.385-2.28-25.19-7.634A22.287,22.287,0,0,1,5.445,60.631c-.023-.223-.039-.447-.046-.662H50.787a16.994,16.994,0,0,1,.069,2.935Z" transform="translate(-5.399 -59.968)" fill="#f3a250"/>
          </g>
          <g id="Group_663" data-name="Group 663" transform="translate(1.232 29.258)">
            <path id="Path_1975" data-name="Path 1975" d="M34.363,79.643C10.521,82.408,5.861,69.151,5.4,59.968c0,0,3.092,18.854,25.146,18.2,21.468-.637,20.243-18.2,20.243-18.2.47,3.844.023,17.764-16.424,19.675Z" transform="translate(-5.399 -59.968)" fill="#e89246"/>
          </g>
          <g id="Group_664" data-name="Group 664" transform="translate(1.254 29.921)" opacity="0.5">
            <path id="Path_1976" data-name="Path 1976" d="M50.645,65.618c.008.008,0,.015-.008.023a1.743,1.743,0,0,1-.824.994c-1.787.94-.932,1.31-1.171,2.272-.239.978-1.741.316-2.28,1.371s-.139,2.5-.87,2.658c-.724.169-1.857-.532-3.02-.1-1.294.485-.994,1.441-1.764,2.4s-1.764-.7-2.758.27c-.524.516.948,1.687-.277,2.088-2.157.716-3.467-2.257-4.707-1.086-1.225,1.156-.87,2.149-2.427,1.726-.894-.247-.809-1.964-1.949-1.464-1.156.5-2,.824-3.166.031-1.186-.809-.747,2.172-3.12,1.941-.824-.077-1.333-2.6-2.342-3s-2.75.539-3.351.146-1.4-1.579-2.758-1.048-1.4,1.009-1.957-.339-.3-2.712-1.695-2.165a5.012,5.012,0,0,1-1.032.3A22.287,22.287,0,0,1,5.441,61.258l45.019.693a5.553,5.553,0,0,1,.393,1.579v.015a4.528,4.528,0,0,1-.208,2.072Z" transform="translate(-5.441 -61.258)" fill="#e06a4b"/>
          </g>
          <g id="Group_665" data-name="Group 665" transform="translate(0.097 29.095)">
            <path id="Path_1977" data-name="Path 1977" d="M4.374,59.65c.068,1.007-2.491,4.4-.288,3.636.53-.184.734,1.135.153,2.275a1.143,1.143,0,0,0,1.2,1.757c2.016-.365,1.955,1.739,1.774,2.862-.194,1.107,1.348,1.126,2.743.561s1.153.806,1.7,2.162.609.876,1.954.342,2.149.655,2.762,1.041,2.331-.528,3.351-.147,1.518,2.922,2.339,3c2.373.227,1.933-2.748,3.122-1.939,1.174.794,2.011.468,3.165-.033s1.055,1.215,1.949,1.46c1.557.428,1.2-.565,2.427-1.72,1.242-1.171,2.547,1.8,4.705,1.085,1.225-.4-.241-1.576.281-2.087,1-.975,1.988.685,2.758-.275s.467-1.908,1.76-2.392c1.164-.435,2.3.271,3.024.1s.336-1.616.87-2.657c.536-1.057,2.038-.4,2.276-1.373s-.611-1.338,1.174-2.271c1.44-.753,1.19-3.5.643-4.69Z" transform="translate(-3.189 -59.65)" fill="#78e75a"/>
          </g>
          <g id="Group_666" data-name="Group 666" transform="translate(0.065 29.095)">
            <path id="Path_1978" data-name="Path 1978" d="M4.343,59.65A3.26,3.26,0,0,1,4,60.808l-.49,1.11A3.128,3.128,0,0,0,3.2,63.065a.307.307,0,0,0,.112.236.417.417,0,0,0,.266.053,1.627,1.627,0,0,0,.289-.055,1.116,1.116,0,0,1,.308-.075.353.353,0,0,1,.276.188.924.924,0,0,1,.117.3,2.243,2.243,0,0,1,.045.619A3.286,3.286,0,0,1,4.3,65.52a1.338,1.338,0,0,0-.12,1.107,1.039,1.039,0,0,0,.874.609,3.191,3.191,0,0,0,.586-.044,1.767,1.767,0,0,1,.635.044,1.326,1.326,0,0,1,.909.864,3.268,3.268,0,0,1,.176,1.234,6.051,6.051,0,0,1-.044.616,1.732,1.732,0,0,0-.03.563c.076.345.5.462.872.476a3.977,3.977,0,0,0,1.16-.169c.19-.055.376-.122.562-.195a1.588,1.588,0,0,1,.644-.129.719.719,0,0,1,.584.376,2.552,2.552,0,0,1,.228.6c.105.4.187.789.318,1.162a5.9,5.9,0,0,0,.226.548,1.153,1.153,0,0,0,.291.435c.087.07.265,0,.444-.086l.548-.263a2.338,2.338,0,0,1,1.237-.29,2.246,2.246,0,0,1,1.172.506,8.387,8.387,0,0,0,.92.715,2.61,2.61,0,0,0,1.115-.086,10.134,10.134,0,0,1,1.214-.214,1.645,1.645,0,0,1,1.265.31,3.664,3.664,0,0,1,.746,1.024c.2.359.374.725.572,1.065s.42.7.728.67a1.6,1.6,0,0,0,1.044-.256,2.326,2.326,0,0,0,.7-.869c.1-.176.179-.356.3-.544a1.107,1.107,0,0,1,.23-.275.573.573,0,0,1,.4-.142,1.2,1.2,0,0,1,.206.042l.162.084c.115.061.172.1.261.157a2.561,2.561,0,0,0,.514.23,3.08,3.08,0,0,0,2.207-.362,1.115,1.115,0,0,1,.7-.115.968.968,0,0,1,.569.448,4.687,4.687,0,0,0,.639.967.7.7,0,0,0,.206.116c.076.029.182.047.272.071a1.391,1.391,0,0,0,.528.018c.309-.057.487-.437.711-.778a4.728,4.728,0,0,1,.79-.972,3.455,3.455,0,0,1,.283-.2,1.12,1.12,0,0,1,.345-.1.931.931,0,0,1,.352.02,1.3,1.3,0,0,1,.319.1c.778.372,1.356.944,2.09,1.209a2.131,2.131,0,0,0,1.114.1c.386-.058.735-.228.661-.573-.04-.359-.318-.69-.321-1.193a.668.668,0,0,1,.05-.2.87.87,0,0,1,.122-.16,1.406,1.406,0,0,1,.272-.2,1.054,1.054,0,0,1,.664-.133c.448.047.81.276,1.172.336.369.091.623-.188.826-.529a8.467,8.467,0,0,0,.489-1.092,1.8,1.8,0,0,1,.864-.928,2.5,2.5,0,0,1,1.23-.265,6.839,6.839,0,0,1,1.217.189,3.566,3.566,0,0,0,.581.086.578.578,0,0,0,.477-.134,2.37,2.37,0,0,0,.269-1.1,4.465,4.465,0,0,1,.264-1.209,1.294,1.294,0,0,1,.93-.832,5.993,5.993,0,0,0,1.149-.3c.326-.181.362-.631.325-1.012a1.781,1.781,0,0,1,.005-.627,1.047,1.047,0,0,1,.361-.52,8.013,8.013,0,0,1,1.026-.655,1.951,1.951,0,0,0,.663-.963,4.152,4.152,0,0,0,.2-1.183,5.724,5.724,0,0,0-.4-2.371,5.747,5.747,0,0,1,.45,2.372,4.21,4.21,0,0,1-.183,1.2,2.032,2.032,0,0,1-.674,1.016,8.117,8.117,0,0,0-1,.667.927.927,0,0,0-.315.465,1.677,1.677,0,0,0,.01.58,1.863,1.863,0,0,1-.018.627.8.8,0,0,1-.361.54,5.741,5.741,0,0,1-1.181.341,1.339,1.339,0,0,0-.5.261,1.269,1.269,0,0,0-.3.466,4.278,4.278,0,0,0-.242,1.156c-.022.2-.039.4-.075.609a1.239,1.239,0,0,1-.241.612.591.591,0,0,1-.315.182,1.475,1.475,0,0,1-.328.027,3.754,3.754,0,0,1-.619-.086,6.657,6.657,0,0,0-1.179-.177,2.262,2.262,0,0,0-1.115.247,1.548,1.548,0,0,0-.747.817,8.513,8.513,0,0,1-.5,1.123,1.845,1.845,0,0,1-.414.5.834.834,0,0,1-.673.153c-.438-.078-.791-.3-1.157-.326a.779.779,0,0,0-.5.1,1.133,1.133,0,0,0-.215.159.252.252,0,0,0-.084.177c-.01.321.256.686.328,1.13a.671.671,0,0,1-.268.667,1.512,1.512,0,0,1-.623.236,2.435,2.435,0,0,1-1.273-.1c-.8-.289-1.425-.884-2.112-1.2a.8.8,0,0,0-.949.125,4.4,4.4,0,0,0-.73.912c-.108.168-.2.345-.336.522a1.018,1.018,0,0,1-.578.412,1.7,1.7,0,0,1-.677-.011c-.106-.027-.2-.04-.315-.08a1.049,1.049,0,0,1-.321-.177,4.574,4.574,0,0,1-.712-1.036.543.543,0,0,0-.824-.2,7.082,7.082,0,0,1-1.172.425,2.385,2.385,0,0,1-1.3-.036,2.941,2.941,0,0,1-.59-.269c-.189-.111-.346-.236-.454-.235-.1-.017-.2.086-.3.244s-.19.339-.289.517a2.678,2.678,0,0,1-.82.991,1.952,1.952,0,0,1-1.266.31.73.73,0,0,1-.365-.09A1.149,1.149,0,0,1,21.474,77a3.271,3.271,0,0,1-.364-.529c-.206-.36-.379-.727-.569-1.077a3.388,3.388,0,0,0-.664-.936,1.33,1.33,0,0,0-1.026-.24,9.9,9.9,0,0,0-1.176.2,2.749,2.749,0,0,1-1.282.066,2.134,2.134,0,0,1-.538-.381c-.154-.134-.3-.266-.458-.384a1.958,1.958,0,0,0-1.019-.455,2.059,2.059,0,0,0-1.1.258l-.548.258a2.014,2.014,0,0,1-.307.118.507.507,0,0,1-.4-.052,1.317,1.317,0,0,1-.389-.552,6.148,6.148,0,0,1-.233-.576c-.135-.393-.216-.8-.315-1.181s-.235-.789-.584-.794a4.6,4.6,0,0,0-1.122.307,4.2,4.2,0,0,1-1.234.17,1.78,1.78,0,0,1-.633-.137.766.766,0,0,1-.447-.517,1.867,1.867,0,0,1,.03-.642,5.836,5.836,0,0,0,.046-.594A3.067,3.067,0,0,0,7,68.175a1.119,1.119,0,0,0-.769-.746,1.573,1.573,0,0,0-.567-.042,3,3,0,0,1-.622.036,1.215,1.215,0,0,1-1.007-.734,1.487,1.487,0,0,1,.145-1.23,3.158,3.158,0,0,0,.316-1.139,2.136,2.136,0,0,0-.031-.588c-.041-.179-.125-.4-.3-.415a1.135,1.135,0,0,0-.278.066,1.7,1.7,0,0,1-.308.052.491.491,0,0,1-.315-.073.379.379,0,0,1-.138-.292,3.152,3.152,0,0,1,.345-1.17l.512-1.1a3.251,3.251,0,0,0,.36-1.149Z" transform="translate(-3.126 -59.65)" fill="#5ec363"/>
          </g>
          <g id="Group_667" data-name="Group 667" transform="translate(1.78 29.452)">
            <path id="Path_1979" data-name="Path 1979" d="M51.639,60.345a23.645,23.645,0,0,1-1.4,3.289,19.054,19.054,0,0,1-1.017,1.746c-2.835,4.294-7.188,6.686-14.424,7.762a40.719,40.719,0,0,1-4.521.431c-1,.036-2.009.036-3.026,0a37.011,37.011,0,0,1-4.294-.419c-6.375-1.029-10.5-3.4-13.359-7.116-.263-.347-.526-.718-.777-1.088a24.818,24.818,0,0,1-2.356-4.6Z" transform="translate(-6.466 -60.345)" fill="#aa6256"/>
          </g>
          <g id="Group_668" data-name="Group 668" transform="translate(4.914 34.487)">
            <path id="Path_1980" data-name="Path 1980" d="M52.191,70.149C49.357,74.443,45,76.835,37.767,77.911a40.719,40.719,0,0,1-4.521.431c-1,.036-2.009.036-3.026,0a37.013,37.013,0,0,1-4.294-.419c-6.375-1.029-10.5-3.4-13.359-7.116a3.088,3.088,0,0,1,.682-.036,2.828,2.828,0,0,1,2.069.933c.2.251.359.55.67.694.538.3,1.28,0,1.89.179a3,3,0,0,1,1.208.945,3.9,3.9,0,0,0,3.062.921c.694-.1,1.385,1.1,2.067.964,2.165-.407,4.5.6,6.6.012a8.341,8.341,0,0,1,1.674-.478,11.449,11.449,0,0,1,2.583.49c2.033.3,3.911-1.029,5.968-1.172a9.5,9.5,0,0,0,3.05-.251c.407-.167.742-.454,1.148-.634a7.131,7.131,0,0,1,1.973-.383c1.734-.239,3.3-2.364,4.978-2.842Z" transform="translate(-12.568 -70.149)" fill="#8a4852"/>
          </g>
          <g id="Group_689" data-name="Group 689" transform="translate(0 12.828)">
            <g id="Group_678" data-name="Group 678">
              <g id="Group_670" data-name="Group 670" transform="translate(0 12.883)">
                <g id="Group_669" data-name="Group 669">
                  <path id="Path_1981" data-name="Path 1981" d="M43.666,53.061v1.868a2.563,2.563,0,0,1-1.423,2.285,10.144,10.144,0,0,1-5.914.712,2.658,2.658,0,0,0-1.5.272l-13.1,7.618a2.569,2.569,0,0,1-2.346,0L3.492,56.642A.83.83,0,0,1,3,55.957V54.089a.848.848,0,0,0,.492.685L19.379,63.94a2.57,2.57,0,0,0,2.346,0l13.1-7.61a2.532,2.532,0,0,1,1.5-.272,10.1,10.1,0,0,0,5.922-.721,2.548,2.548,0,0,0,1.415-2.276Z" transform="translate(-3 -53.061)" fill="#ffb961"/>
                </g>
              </g>
              <g id="Group_672" data-name="Group 672" transform="translate(0.002 0.49)">
                <g id="Group_671" data-name="Group 671">
                  <path id="Path_1982" data-name="Path 1982" d="M36.263,33.192c6.62,3.822,9.3,8.483,5.986,10.41a10.121,10.121,0,0,1-5.918.716,2.57,2.57,0,0,0-1.5.275l-13.1,7.612a2.588,2.588,0,0,1-2.349,0L3.494,43.032a.719.719,0,0,1-.008-1.36l13.1-7.612c.39-.227.578-.551.47-.871a2.648,2.648,0,0,1,1.222-3.427c3.316-1.927,11.366-.392,17.986,3.43Z" transform="translate(-3.004 -28.93)" fill="#ffde9b"/>
                </g>
              </g>
              <g id="Group_674" data-name="Group 674" transform="translate(1.096)">
                <g id="Group_673" data-name="Group 673">
                  <path id="Path_1983" data-name="Path 1983" d="M38.393,32.238c6.62,3.822,8.7,8.134,5.381,10.061a10.121,10.121,0,0,1-5.918.716,2.57,2.57,0,0,0-1.5.275L23.256,50.9a2.588,2.588,0,0,1-2.349,0L5.624,42.078a.719.719,0,0,1-.008-1.36l13.1-7.612c.39-.227.578-.551.47-.871a2.648,2.648,0,0,1,1.222-3.427c3.316-1.927,11.366-.392,17.986,3.43Z" transform="translate(-5.133 -27.976)" fill="#fcd357"/>
                </g>
              </g>
              <g id="Group_677" data-name="Group 677" transform="translate(2.541 1.048)">
                <g id="Group_676" data-name="Group 676">
                  <g id="Group_675" data-name="Group 675">
                    <path id="Path_1984" data-name="Path 1984" d="M38.175,33.98c6.328,3.654,8.235,7.66,5.978,8.972-1.092.635-2.972.59-4.354.437a5.2,5.2,0,0,0-3.067.554L23.7,51.517l-15.753-9.1,13.031-7.573c.808-.47,1.168-1.134.946-1.778a1.959,1.959,0,0,1,.746-2.52c2.257-1.312,9.175-.224,15.5,3.43Z" transform="translate(-7.948 -30.016)" fill="#ffde9b"/>
                  </g>
                </g>
              </g>
            </g>
            <g id="Group_688" data-name="Group 688" transform="translate(8.632 0.11)">
              <g id="Group_680" data-name="Group 680" transform="translate(16.347 13.421)">
                <g id="Group_679" data-name="Group 679">
                  <path id="Path_1985" data-name="Path 1985" d="M75.47,55.009,59.583,64.174a2.57,2.57,0,0,1-2.346,0l-5.6-3.253v1.873l5.6,3.257a2.569,2.569,0,0,0,2.346,0L75.47,56.877a.83.83,0,0,0,.492-.685V54.323a.848.848,0,0,1-.492.685Z" transform="translate(-51.639 -54.323)" fill="#f9a83d"/>
                </g>
              </g>
              <g id="Group_682" data-name="Group 682">
                <g id="Group_681" data-name="Group 681">
                  <path id="Path_1986" data-name="Path 1986" d="M27.216,32.452c-6.62,3.822-9.3,8.483-5.986,10.41a10.121,10.121,0,0,0,5.918.716,2.57,2.57,0,0,1,1.5.275l13.1,7.612a2.588,2.588,0,0,0,2.349,0l15.888-9.173a.719.719,0,0,0,.008-1.36L46.9,33.32c-.39-.227-.578-.551-.47-.871A2.648,2.648,0,0,0,45.2,29.022c-3.316-1.927-11.366-.392-17.986,3.43Z" transform="translate(-19.808 -28.19)" fill="#ffde9b"/>
                </g>
              </g>
              <g id="Group_684" data-name="Group 684" transform="translate(0.937 0.238)">
                <g id="Group_683" data-name="Group 683">
                  <path id="Path_1987" data-name="Path 1987" d="M28.784,32.768c-6.392,3.69-8.981,8.19-5.78,10.051a9.772,9.772,0,0,0,5.714.691,2.482,2.482,0,0,1,1.451.266l12.646,7.349a2.5,2.5,0,0,0,2.268,0l15.34-8.856a.694.694,0,0,0,.007-1.313L47.784,33.606c-.377-.219-.559-.532-.454-.841a2.557,2.557,0,0,0-1.18-3.309c-3.2-1.861-10.974-.378-17.366,3.312Z" transform="translate(-21.632 -28.653)" fill="#fcd357"/>
                </g>
              </g>
              <g id="Group_687" data-name="Group 687" transform="translate(2.347 1.359)">
                <g id="Group_686" data-name="Group 686">
                  <g id="Group_685" data-name="Group 685">
                    <path id="Path_1988" data-name="Path 1988" d="M31.056,34.68c-6.133,3.541-7.982,7.424-5.794,8.7a7.755,7.755,0,0,0,4.22.424,5.035,5.035,0,0,1,2.972.537l12.63,7.34,15.268-8.815-12.63-7.34c-.783-.455-1.132-1.1-.917-1.723a1.9,1.9,0,0,0-.723-2.442c-2.188-1.271-8.893-.217-15.026,3.324Z" transform="translate(-24.378 -30.837)" fill="#ffde9b"/>
                  </g>
                </g>
              </g>
            </g>
          </g>
          <g id="Group_771" data-name="Group 771" transform="translate(0.171 14.693)">
            <g id="Group_728" data-name="Group 728" transform="translate(2.526)">
              <g id="Group_691" data-name="Group 691" transform="translate(0 7.649)">
                <g id="Group_690" data-name="Group 690">
                  <path id="Path_1989" data-name="Path 1989" d="M8.252,50.173v1.69A2.636,2.636,0,0,0,9.31,53.879c2.42,2.08,10.068,7.243,23.274,1.16,3.681-2.669,5-4.942,4.988-6.838V46.5c0,1.9-1.307,4.178-5,6.838-13.206,6.083-20.844.929-23.265-1.16a2.62,2.62,0,0,1-1.058-2.006Z" transform="translate(-8.252 -46.502)" fill="#df3260"/>
                </g>
              </g>
              <g id="Group_693" data-name="Group 693" transform="translate(0 0.395)">
                <g id="Group_692" data-name="Group 692">
                  <path id="Path_1990" data-name="Path 1990" d="M32.578,46.469a29.509,29.509,0,0,1-10.246,2.819A17.7,17.7,0,0,1,9.314,45.313a2.493,2.493,0,0,1-.847-3.043,6.761,6.761,0,0,1,2.1-2.519,3.815,3.815,0,0,1,.431-.285,33.28,33.28,0,0,1,5.862-2.134,18.482,18.482,0,0,1,3.089-2.989,6.752,6.752,0,0,1,.609-.393,3.675,3.675,0,0,1,.493-.247c1.864-.793,6.016-2.118,9.6-.709a20.607,20.607,0,0,1,3.166,1.548c3.582,2.172,6.779,6.132-1.233,11.925Z" transform="translate(-8.253 -32.375)" fill="#fe90a9"/>
                </g>
              </g>
              <g id="Group_695" data-name="Group 695" transform="translate(0.801)">
                <g id="Group_694" data-name="Group 694">
                  <path id="Path_1991" data-name="Path 1991" d="M34.137,45.7A29.509,29.509,0,0,1,23.891,48.52a17.7,17.7,0,0,1-13.019-3.975,2.493,2.493,0,0,1-.847-3.043,6.761,6.761,0,0,1,2.1-2.519,3.815,3.815,0,0,1,.431-.285,33.281,33.281,0,0,1,5.862-2.134A18.482,18.482,0,0,1,21.5,33.576a6.752,6.752,0,0,1,.609-.393,3.675,3.675,0,0,1,.493-.247c1.864-.793,6.016-2.118,9.6-.709a20.608,20.608,0,0,1,3.166,1.548c3.582,2.172,6.779,6.132-1.233,11.925Z" transform="translate(-9.811 -31.607)" fill="#f45170"/>
                </g>
              </g>
              <g id="Group_697" data-name="Group 697" transform="translate(15.238 4.245)">
                <g id="Group_696" data-name="Group 696">
                  <path id="Path_1992" data-name="Path 1992" d="M38.016,39.957c-.056.032-.094.071-.092.11.005.1.245.224.35.285l.123.051.105.007a2.43,2.43,0,0,0,.351,0,.81.81,0,0,0,.269-.078.276.276,0,0,0,.03-.02l.053-.085-.029-.051a.614.614,0,0,0-.163-.142,1.433,1.433,0,0,0-.532-.146l-.164-.014A.676.676,0,0,0,38.016,39.957Z" transform="translate(-37.924 -39.874)" fill="#ffd06c"/>
                </g>
              </g>
              <g id="Group_699" data-name="Group 699" transform="translate(17.496 3.753)">
                <g id="Group_698" data-name="Group 698">
                  <path id="Path_1993" data-name="Path 1993" d="M42.473,39c-.172.1-.225.263-.02.369a2.2,2.2,0,0,0,.7.261l.164.014a1.052,1.052,0,0,0,.258-.068,1.66,1.66,0,0,0,.206-.094c.072-.042.125-.09.129-.147l-.052-.119a1.343,1.343,0,0,0-1.088-.3A.668.668,0,0,0,42.473,39Z" transform="translate(-42.321 -38.916)" fill="#ffd06c"/>
                </g>
              </g>
              <g id="Group_701" data-name="Group 701" transform="translate(19.83 3.754)">
                <g id="Group_700" data-name="Group 700">
                  <path id="Path_1994" data-name="Path 1994" d="M47.084,38.946l-.094.1a1.186,1.186,0,0,0-.113.282.274.274,0,0,0,.109.329.572.572,0,0,0,.3.109.47.47,0,0,0,.2-.064.716.716,0,0,0,.085-.058c.059-.041.112-.078.165-.122a.507.507,0,0,0,.183-.173c.059-.129-.069-.265-.244-.346a.8.8,0,0,0-.246-.081l-.176-.007Z" transform="translate(-46.864 -38.916)" fill="#ffd06c"/>
                </g>
              </g>
              <g id="Group_703" data-name="Group 703" transform="translate(21.424 4.797)">
                <g id="Group_702" data-name="Group 702">
                  <path id="Path_1995" data-name="Path 1995" d="M50.25,41.12a.851.851,0,0,0-.281.227l.117-.041-.118.088.035.027a.611.611,0,0,0,.263.112.777.777,0,0,0,.364-.075,3.417,3.417,0,0,0,.414-.191l.044-.026.065-.078c.018-.058-.064-.112-.146-.146a.8.8,0,0,0-.392-.064.867.867,0,0,0-.223.088C50.345,41.066,50.3,41.093,50.25,41.12Z" transform="translate(-49.969 -40.948)" fill="#ffd06c"/>
                </g>
              </g>
              <g id="Group_705" data-name="Group 705" transform="translate(22.108 6.25)">
                <g id="Group_704" data-name="Group 704">
                  <path id="Path_1996" data-name="Path 1996" d="M51.3,44.12l.187.115a.892.892,0,0,0,.328.02,1.556,1.556,0,0,0,.487-.139c.088-.044.17-.085.253-.132l.035-.034-.035-.034a1.194,1.194,0,0,0-.263-.1.687.687,0,0,0-.275-.037l-.182.058c-.123.058-.229.119-.341.183Z" transform="translate(-51.3 -43.777)" fill="#ffd06c"/>
                </g>
              </g>
              <g id="Group_707" data-name="Group 707" transform="translate(21.562 8.011)">
                <g id="Group_706" data-name="Group 706">
                  <path id="Path_1997" data-name="Path 1997" d="M50.345,47.346a.207.207,0,0,0-.075.064.21.21,0,0,0-.019.187.532.532,0,0,0,.438.2,1.736,1.736,0,0,0,.58-.071,1.1,1.1,0,0,0,.259-.1.346.346,0,0,0,.111-.094.151.151,0,0,0-.011-.2.478.478,0,0,0-.28-.122h-.258l-.258.02a1.718,1.718,0,0,0-.275.037.868.868,0,0,0-.213.082Z" transform="translate(-50.236 -47.206)" fill="#ffd06c"/>
                </g>
              </g>
              <g id="Group_709" data-name="Group 709" transform="translate(4.163 8.143)">
                <g id="Group_708" data-name="Group 708">
                  <path id="Path_1998" data-name="Path 1998" d="M17.592,48.555a11.26,11.26,0,0,1,3.2-1.091c2.493.258.795,1.36-.223,2.1s-.854.926-.075,1.8,3.691.6,3.844.587a22.574,22.574,0,0,1,3.964-.807c1.312-.041,1.078.98-.212,2.266a2.753,2.753,0,0,1-.571.436c-1.346.777-3.421.55-6.063.412-3.045-.156-4.832-1.951-5.09-3.959-.1-.735.468-1.312,1.224-1.748Zm1.557,1.989c.041-.044.1-.092.112-.146l-.017-.1a1.2,1.2,0,0,0-.455-.4.659.659,0,0,0-.636.01.267.267,0,0,0-.144.17c-.037.258.085.512.512.631l.2.031a.54.54,0,0,0,.256-.076,1.254,1.254,0,0,0,.166-.121M25.548,53A.726.726,0,0,0,25.9,53a.6.6,0,0,0,.163-.064.616.616,0,0,0,.172-.15.416.416,0,0,0,.125-.336.385.385,0,0,0-.344-.254,1.017,1.017,0,0,0-.322.01.363.363,0,0,0-.11.043.486.486,0,0,0-.142.123.387.387,0,0,0-.059.156l-.042.153v.149a.32.32,0,0,0,.21.163m-6.415-3.85a1.093,1.093,0,0,0,.245.1l.088.017.147-.031.035-.018a.33.33,0,0,0,.136-.155.477.477,0,0,0,0-.2l-.011-.061-.087-.071a1.193,1.193,0,0,0-.485-.207.392.392,0,0,0-.194.055.273.273,0,0,0-.147.176l.029.092a.508.508,0,0,0,.244.312m3.462,4.1.059-.02c.082-.047.153-.095.229-.146a.62.62,0,0,0,.242-.282.192.192,0,0,0-.034-.19l-.2-.109-.17.112c-.106.061-.217.126-.312.193l-.106.109c-.018.051.023.109.064.159a.639.639,0,0,0,.169.153Z" transform="translate(-16.358 -47.463)" fill="#f45170"/>
                </g>
              </g>
              <g id="Group_711" data-name="Group 711" transform="translate(6.666 9.191)">
                <g id="Group_710" data-name="Group 710">
                  <path id="Path_1999" data-name="Path 1999" d="M21.378,49.559a.273.273,0,0,0-.147.176l.029.092a.508.508,0,0,0,.244.312,1.094,1.094,0,0,0,.245.095l.088.017.147-.031.035-.018a.33.33,0,0,0,.136-.155.477.477,0,0,0,0-.2l-.011-.061-.087-.071a1.193,1.193,0,0,0-.485-.207A.392.392,0,0,0,21.378,49.559Z" transform="translate(-21.231 -49.504)" fill="#ffd06c"/>
                </g>
              </g>
              <g id="Group_713" data-name="Group 713" transform="translate(13.423 2.8)">
                <g id="Group_712" data-name="Group 712">
                  <path id="Path_2000" data-name="Path 2000" d="M42.126,41.69c.025-.089.508-1.774-1-2.229s-1.824-.55-3.11.037-3.195,1.567-3.626.119a5.071,5.071,0,0,1,1.891-1.849,5.429,5.429,0,0,1,3.02-.7c3.466.156,6.558,1.2,6.818,2.962.23,1.531.615,2.734-.731,3.511a4.117,4.117,0,0,1-.755.329c-2.224.743-3.987.875-3.907.112A6.755,6.755,0,0,1,42.126,41.69Zm-3.218-3.674a.668.668,0,0,0-.293.083c-.172.1-.225.263-.02.369a2.2,2.2,0,0,0,.7.261l.164.014a1.052,1.052,0,0,0,.258-.068,1.661,1.661,0,0,0,.206-.094c.072-.042.125-.09.129-.147L40,38.315a1.343,1.343,0,0,0-1.088-.3m4.072,4.844a1.736,1.736,0,0,0,.58-.071,1.1,1.1,0,0,0,.259-.1.346.346,0,0,0,.111-.094.151.151,0,0,0-.011-.2.478.478,0,0,0-.28-.122h-.258l-.258.02a1.718,1.718,0,0,0-.275.037.869.869,0,0,0-.213.082.207.207,0,0,0-.075.064.21.21,0,0,0-.019.187.532.532,0,0,0,.438.2M41.608,38.1a.8.8,0,0,0-.246-.081l-.176-.007-.17.031-.094.1a1.187,1.187,0,0,0-.113.282.274.274,0,0,0,.109.329.572.572,0,0,0,.3.109.47.47,0,0,0,.2-.064.716.716,0,0,0,.085-.058c.059-.041.112-.078.165-.122a.507.507,0,0,0,.183-.173c.059-.129-.069-.265-.244-.346m-4.846.417L36.6,38.5a.676.676,0,0,0-.3.083c-.056.032-.094.071-.092.11.005.1.245.224.35.285l.123.051.105.007a2.429,2.429,0,0,0,.351,0,.81.81,0,0,0,.269-.078l.03-.02.053-.085-.029-.051a.614.614,0,0,0-.163-.142,1.433,1.433,0,0,0-.532-.146m5.926,1.123a.777.777,0,0,0,.364-.075,3.418,3.418,0,0,0,.414-.191l.044-.026.065-.078c.018-.058-.064-.112-.146-.146a.8.8,0,0,0-.392-.064.867.867,0,0,0-.223.088c-.047.025-.1.052-.143.079a.851.851,0,0,0-.281.227l.117-.041-.118.088.035.027a.611.611,0,0,0,.263.112m.9,1.347a1.556,1.556,0,0,0,.487-.139c.088-.044.17-.085.253-.132l.035-.034-.035-.034a1.194,1.194,0,0,0-.263-.1.686.686,0,0,0-.275-.037l-.182.058c-.123.058-.229.119-.341.183l-.194.1.187.115a.893.893,0,0,0,.328.02" transform="translate(-34.39 -37.06)" fill="#f45170"/>
                </g>
              </g>
              <g id="Group_715" data-name="Group 715" transform="translate(5.809 10.501)">
                <g id="Group_714" data-name="Group 714">
                  <path id="Path_2001" data-name="Path 2001" d="M19.712,52.143a.267.267,0,0,0-.144.169c-.037.258.085.512.512.631l.2.031a.54.54,0,0,0,.256-.076,1.254,1.254,0,0,0,.166-.121c.041-.044.1-.092.112-.146l-.017-.1a1.2,1.2,0,0,0-.455-.4.66.66,0,0,0-.636.01Z" transform="translate(-19.562 -52.055)" fill="#ffd06c"/>
                </g>
              </g>
              <g id="Group_717" data-name="Group 717" transform="translate(13.143 12.87)">
                <g id="Group_716" data-name="Group 716">
                  <path id="Path_2002" data-name="Path 2002" d="M34.089,56.73a.485.485,0,0,0-.142.123.387.387,0,0,0-.059.156l-.042.153v.149a.32.32,0,0,0,.21.163.726.726,0,0,0,.351.007.6.6,0,0,0,.163-.064.617.617,0,0,0,.172-.15.416.416,0,0,0,.125-.336.385.385,0,0,0-.344-.254,1.017,1.017,0,0,0-.322.01A.363.363,0,0,0,34.089,56.73Z" transform="translate(-33.844 -56.668)" fill="#ffd06c"/>
                </g>
              </g>
              <g id="Group_719" data-name="Group 719" transform="translate(10.105 13.181)">
                <g id="Group_718" data-name="Group 718">
                  <path id="Path_2003" data-name="Path 2003" d="M28.52,57.272l-.17.112c-.106.061-.217.126-.311.193l-.106.109c-.018.051.023.109.064.159a.639.639,0,0,0,.169.153l.058.02.059-.02c.082-.047.153-.095.229-.146a.62.62,0,0,0,.242-.282.192.192,0,0,0-.034-.19Z" transform="translate(-27.928 -57.272)" fill="#ffd06c"/>
                </g>
              </g>
              <g id="Group_721" data-name="Group 721" transform="translate(2.607 7.254)">
                <g id="Group_720" data-name="Group 720">
                  <path id="Path_2004" data-name="Path 2004" d="M14.109,47.486a6,6,0,0,1,1.071-.841c.125-.081.254-.162.389-.24a4.693,4.693,0,0,1,1.947-.656,7.967,7.967,0,0,1,1.423.044,8.4,8.4,0,0,1,1.867.234,8.335,8.335,0,0,1,1.1.628c1.115.621,2.124,1.3,3.216,1.93a27.749,27.749,0,0,1,4.76,3.447,1.628,1.628,0,0,1,.528.811.653.653,0,0,1-.372.615,1.147,1.147,0,0,1-.283.114c-.17.044-.352.054-.528.088-.258.047-.493.129-.745.2a19.585,19.585,0,0,1-5.929.441,12.851,12.851,0,0,1-1.411-.085,12.478,12.478,0,0,1-1.328-.282c-1.105-.282-2.216-.56-3.322-.841a7.428,7.428,0,0,1-1.2-.377,2.883,2.883,0,0,1-1.328-1.282c-.754-1.282-1-2.761.139-3.949Zm5.876,5.933c2.642.138,4.717.365,6.063-.412a2.753,2.753,0,0,0,.571-.436c1.29-1.286,1.524-2.307.212-2.266a22.575,22.575,0,0,0-3.964.807c-.153.014-3.065.288-3.844-.587s-.943-1.058.075-1.8,2.716-1.845.223-2.1a11.26,11.26,0,0,0-3.2,1.091c-.756.436-1.32,1.013-1.224,1.748.258,2.008,2.046,3.8,5.09,3.959" transform="translate(-13.327 -45.731)" fill="#cc104a"/>
                </g>
              </g>
              <g id="Group_723" data-name="Group 723" transform="translate(11.889 1.899)">
                <g id="Group_722" data-name="Group 722">
                  <path id="Path_2005" data-name="Path 2005" d="M31.5,38.543a1.656,1.656,0,0,1-.071-.824,2.259,2.259,0,0,1,1.141-1.127c.134-.078.273-.152.413-.223a9.388,9.388,0,0,1,1.456-.617,14.346,14.346,0,0,1,6.823-.071,5.858,5.858,0,0,1,2.2.777,3,3,0,0,1,.646.7c.483.641.959,1.286,1.442,1.927a3.747,3.747,0,0,1,.482.77,2.614,2.614,0,0,1,.142.818A4.234,4.234,0,0,1,45.4,44.1a3.242,3.242,0,0,0-.348.431,2.8,2.8,0,0,1-.148.3.708.708,0,0,1-.2.165,2.089,2.089,0,0,1-1.061.212,5.064,5.064,0,0,1-1.4-.305A38.384,38.384,0,0,1,36.3,42.136c-1.092-.634-2.254-1.221-3.322-1.869a8.067,8.067,0,0,1-1.08-.641c-.32-.3-.306-.743-.4-1.082Zm11.676,4.471a4.117,4.117,0,0,0,.755-.329c1.346-.777.961-1.98.731-3.511-.259-1.764-3.352-2.805-6.818-2.962a5.429,5.429,0,0,0-3.02.7,5.071,5.071,0,0,0-1.891,1.849c.431,1.449,2.346.465,3.626-.119s1.6-.492,3.11-.037,1.026,2.14,1,2.229a6.754,6.754,0,0,0-1.4,2.29c-.08.763,1.683.631,3.907-.112" transform="translate(-31.402 -35.304)" fill="#cc104a"/>
                </g>
              </g>
              <g id="Group_725" data-name="Group 725" transform="translate(7.601 12.887)">
                <g id="Group_724" data-name="Group 724">
                  <path id="Path_2006" data-name="Path 2006" d="M23.333,56.872a.851.851,0,0,0-.281.227l.117-.041-.118.088.035.027a.611.611,0,0,0,.263.112.777.777,0,0,0,.364-.075,3.418,3.418,0,0,0,.414-.191l.044-.026.065-.078c.018-.058-.064-.112-.146-.146a.8.8,0,0,0-.392-.064.867.867,0,0,0-.223.088C23.428,56.819,23.38,56.845,23.333,56.872Z" transform="translate(-23.052 -56.701)" fill="#ffd06c"/>
                </g>
              </g>
              <g id="Group_727" data-name="Group 727" transform="translate(6.13 11.984)">
                <g id="Group_726" data-name="Group 726">
                  <path id="Path_2007" data-name="Path 2007" d="M20.409,54.973l-.094.1a1.186,1.186,0,0,0-.113.282.274.274,0,0,0,.109.329.572.572,0,0,0,.3.109.469.469,0,0,0,.2-.064.717.717,0,0,0,.085-.058c.059-.041.112-.078.165-.122a.507.507,0,0,0,.183-.173c.059-.129-.069-.265-.244-.346a.8.8,0,0,0-.246-.081l-.176-.007Z" transform="translate(-20.189 -54.942)" fill="#ffd06c"/>
                </g>
              </g>
            </g>
            <g id="Group_767" data-name="Group 767" transform="translate(16.384 0)">
              <g id="Group_730" data-name="Group 730" transform="translate(0.661 7.649)">
                <g id="Group_729" data-name="Group 729">
                  <path id="Path_2008" data-name="Path 2008" d="M65.843,50.173v1.69a2.636,2.636,0,0,1-1.058,2.015c-2.42,2.08-10.068,7.243-23.274,1.16-3.681-2.669-5-4.942-4.988-6.838V46.5c0,1.9,1.307,4.178,5,6.838,13.206,6.083,20.844.929,23.264-1.16a2.62,2.62,0,0,0,1.058-2.006Z" transform="translate(-36.523 -46.502)" fill="#df3260"/>
                </g>
              </g>
              <g id="Group_732" data-name="Group 732" transform="translate(0.66 0.394)">
                <g id="Group_731" data-name="Group 731">
                  <path id="Path_2009" data-name="Path 2009" d="M64.779,45.313c-2.419,2.08-10.061,7.241-23.264,1.156C30.968,38.843,39.85,34.4,43.448,33c3.582-1.41,7.734-.085,9.606.709a4.2,4.2,0,0,1,.493.247,17,17,0,0,1,3.7,3.382A33.268,33.268,0,0,1,63.1,39.466a3.815,3.815,0,0,1,.431.285c1.379,1.078,3.667,3.482,1.248,5.562Z" transform="translate(-36.521 -32.375)" fill="#fe90a9"/>
                </g>
              </g>
              <g id="Group_734" data-name="Group 734">
                <g id="Group_733" data-name="Group 733">
                  <path id="Path_2010" data-name="Path 2010" d="M63.492,44.546c-2.419,2.08-10.061,7.241-23.264,1.156-10.546-7.626-1.664-12.071,1.934-13.473,3.582-1.41,7.734-.085,9.606.709a4.2,4.2,0,0,1,.493.247,17,17,0,0,1,3.7,3.382A33.267,33.267,0,0,1,61.813,38.7a3.815,3.815,0,0,1,.431.285c1.379,1.078,3.667,3.482,1.248,5.562Z" transform="translate(-35.235 -31.608)" fill="#f45170"/>
                </g>
              </g>
              <g id="Group_736" data-name="Group 736" transform="translate(13.461 4.245)">
                <g id="Group_735" data-name="Group 735">
                  <path id="Path_2011" data-name="Path 2011" d="M62.637,39.957c.056.032.094.071.092.11-.005.1-.245.224-.35.285l-.123.051-.105.007a2.429,2.429,0,0,1-.351,0,.81.81,0,0,1-.269-.078.276.276,0,0,1-.03-.02l-.053-.085.029-.051a.613.613,0,0,1,.163-.142,1.433,1.433,0,0,1,.532-.146l.164-.014A.676.676,0,0,1,62.637,39.957Z" transform="translate(-61.447 -39.874)" fill="#ffd06c"/>
                </g>
              </g>
              <g id="Group_738" data-name="Group 738" transform="translate(10.9 3.753)">
                <g id="Group_737" data-name="Group 737">
                  <path id="Path_2012" data-name="Path 2012" d="M57.891,39c.172.1.225.263.02.369a2.2,2.2,0,0,1-.7.261l-.164.014a1.053,1.053,0,0,1-.258-.068,1.66,1.66,0,0,1-.206-.094c-.072-.042-.125-.09-.129-.147l.052-.119a1.343,1.343,0,0,1,1.088-.3A.668.668,0,0,1,57.891,39Z" transform="translate(-56.459 -38.916)" fill="#ffd06c"/>
                </g>
              </g>
              <g id="Group_740" data-name="Group 740" transform="translate(9.081 3.753)">
                <g id="Group_739" data-name="Group 739">
                  <path id="Path_2013" data-name="Path 2013" d="M53.768,38.946l.094.1a1.186,1.186,0,0,1,.113.282.274.274,0,0,1-.109.329.572.572,0,0,1-.3.109.47.47,0,0,1-.2-.064.715.715,0,0,1-.085-.058c-.059-.041-.112-.078-.165-.122a.507.507,0,0,1-.183-.173c-.059-.129.069-.265.244-.346a.8.8,0,0,1,.246-.081l.176-.007Z" transform="translate(-52.918 -38.916)" fill="#ffd06c"/>
                </g>
              </g>
              <g id="Group_742" data-name="Group 742" transform="translate(7.37 4.797)">
                <g id="Group_741" data-name="Group 741">
                  <path id="Path_2014" data-name="Path 2014" d="M50.492,41.12a.851.851,0,0,1,.281.227l-.117-.041.118.088-.035.027a.611.611,0,0,1-.263.112.777.777,0,0,1-.364-.075,3.417,3.417,0,0,1-.414-.191l-.044-.026-.065-.078c-.018-.058.064-.112.146-.146a.8.8,0,0,1,.392-.064.867.867,0,0,1,.223.088C50.4,41.066,50.446,41.093,50.492,41.12Z" transform="translate(-49.586 -40.948)" fill="#ffd06c"/>
                </g>
              </g>
              <g id="Group_744" data-name="Group 744" transform="translate(6.584 6.25)">
                <g id="Group_743" data-name="Group 743">
                  <path id="Path_2015" data-name="Path 2015" d="M49.345,44.12l-.187.115a.892.892,0,0,1-.328.02,1.556,1.556,0,0,1-.487-.139c-.088-.044-.17-.085-.253-.132l-.035-.034.035-.034a1.194,1.194,0,0,1,.263-.1.687.687,0,0,1,.275-.037l.182.058c.123.058.229.119.341.183Z" transform="translate(-48.056 -43.777)" fill="#ffd06c"/>
                </g>
              </g>
              <g id="Group_746" data-name="Group 746" transform="translate(6.982 8.01)">
                <g id="Group_745" data-name="Group 745">
                  <path id="Path_2016" data-name="Path 2016" d="M50.16,47.346a.207.207,0,0,1,.075.064.21.21,0,0,1,.019.187.532.532,0,0,1-.438.2,1.736,1.736,0,0,1-.58-.071,1.1,1.1,0,0,1-.259-.1.346.346,0,0,1-.111-.094.151.151,0,0,1,.011-.2.479.479,0,0,1,.28-.122h.258l.258.02a1.717,1.717,0,0,1,.275.037A.868.868,0,0,1,50.16,47.346Z" transform="translate(-48.83 -47.206)" fill="#ffd06c"/>
                </g>
              </g>
              <g id="Group_748" data-name="Group 748" transform="translate(12.994 8.143)">
                <g id="Group_747" data-name="Group 747">
                  <path id="Path_2017" data-name="Path 2017" d="M73.351,50.3c-.258,2.008-2.046,3.8-5.09,3.959-2.642.138-4.717.365-6.063-.412a2.753,2.753,0,0,1-.571-.436c-1.29-1.286-1.524-2.307-.212-2.266a22.575,22.575,0,0,1,3.964.807c.153.014,3.065.288,3.844-.587s.943-1.058-.075-1.8-2.716-1.845-.223-2.1a11.26,11.26,0,0,1,3.2,1.091c.756.436,1.32,1.013,1.224,1.748Zm-2.781.241a1.252,1.252,0,0,0,.166.121.54.54,0,0,0,.256.076l.2-.031c.427-.119.548-.373.512-.631a.267.267,0,0,0-.144-.17.659.659,0,0,0-.636-.01,1.2,1.2,0,0,0-.455.4l-.017.1c.012.054.071.1.112.146M64.171,53a.32.32,0,0,0,.21-.163v-.149l-.042-.153a.388.388,0,0,0-.059-.156.486.486,0,0,0-.142-.123.363.363,0,0,0-.11-.043,1.017,1.017,0,0,0-.322-.01.385.385,0,0,0-.344.254.416.416,0,0,0,.125.336.616.616,0,0,0,.172.15A.6.6,0,0,0,63.82,53,.726.726,0,0,0,64.171,53m6.415-3.85a.508.508,0,0,0,.244-.312l.029-.092a.273.273,0,0,0-.147-.176.392.392,0,0,0-.194-.055,1.193,1.193,0,0,0-.485.207l-.087.071-.011.061a.477.477,0,0,0,0,.2.33.33,0,0,0,.136.155l.035.018.147.031.088-.017a1.094,1.094,0,0,0,.245-.095m-3.462,4.1.058-.02a.639.639,0,0,0,.169-.153c.041-.051.081-.109.064-.159l-.106-.109c-.094-.068-.206-.132-.311-.193l-.17-.112-.2.109a.192.192,0,0,0-.034.19.62.62,0,0,0,.242.282c.076.051.147.1.229.146Z" transform="translate(-60.537 -47.463)" fill="#f45170"/>
                </g>
              </g>
              <g id="Group_750" data-name="Group 750" transform="translate(22.381 9.191)">
                <g id="Group_749" data-name="Group 749">
                  <path id="Path_2018" data-name="Path 2018" d="M79.6,49.559a.273.273,0,0,1,.147.176l-.029.092a.508.508,0,0,1-.244.312,1.094,1.094,0,0,1-.245.095l-.088.017L79,50.22l-.035-.018a.33.33,0,0,1-.136-.155.477.477,0,0,1,0-.2l.011-.061.087-.071a1.193,1.193,0,0,1,.485-.207A.392.392,0,0,1,79.6,49.559Z" transform="translate(-78.814 -49.504)" fill="#ffd06c"/>
                </g>
              </g>
              <g id="Group_752" data-name="Group 752" transform="translate(4.597 2.8)">
                <g id="Group_751" data-name="Group 751">
                  <path id="Path_2019" data-name="Path 2019" d="M49.811,43.98c.08.763-1.683.631-3.907-.112a4.118,4.118,0,0,1-.755-.329c-1.346-.777-.961-1.98-.731-3.511.259-1.764,3.352-2.805,6.818-2.962a5.429,5.429,0,0,1,3.02.7,5.072,5.072,0,0,1,1.891,1.849c-.431,1.449-2.346.465-3.626-.119s-1.6-.492-3.11-.037-1.026,2.14-1,2.229a6.754,6.754,0,0,1,1.4,2.29Zm1.817-5.964a1.343,1.343,0,0,0-1.088.3l-.052.119c0,.057.057.1.129.147a1.659,1.659,0,0,0,.206.094,1.052,1.052,0,0,0,.258.068l.164-.014a2.2,2.2,0,0,0,.7-.261c.2-.105.152-.269-.02-.369a.668.668,0,0,0-.293-.083m-4.072,4.844a.532.532,0,0,0,.438-.2.21.21,0,0,0-.019-.187.207.207,0,0,0-.075-.064.868.868,0,0,0-.213-.082,1.718,1.718,0,0,0-.275-.037l-.258-.02H46.9a.478.478,0,0,0-.28.122.151.151,0,0,0-.011.2.346.346,0,0,0,.111.094,1.1,1.1,0,0,0,.259.1,1.736,1.736,0,0,0,.58.071M48.929,38.1c-.175.081-.3.217-.244.346a.507.507,0,0,0,.183.173c.053.044.106.081.165.122a.717.717,0,0,0,.085.058.47.47,0,0,0,.2.064.572.572,0,0,0,.3-.109.274.274,0,0,0,.109-.329,1.186,1.186,0,0,0-.113-.282l-.094-.1-.17-.031-.176.007a.8.8,0,0,0-.246.081m4.846.417a1.433,1.433,0,0,0-.532.146.614.614,0,0,0-.163.142l-.029.051.053.085a.277.277,0,0,0,.03.02.81.81,0,0,0,.269.078,2.428,2.428,0,0,0,.351,0l.105-.007.123-.051c.105-.061.344-.187.35-.285,0-.039-.036-.078-.092-.11a.676.676,0,0,0-.3-.083Zm-5.926,1.123a.611.611,0,0,0,.263-.112l.035-.027-.118-.088.117.041a.851.851,0,0,0-.281-.227c-.047-.027-.1-.053-.143-.079a.867.867,0,0,0-.223-.088.8.8,0,0,0-.392.064c-.082.034-.163.088-.146.146l.065.078.044.026a3.416,3.416,0,0,0,.414.191.777.777,0,0,0,.364.075m-.9,1.347a.893.893,0,0,0,.328-.02l.187-.115-.194-.1c-.112-.064-.217-.126-.341-.183l-.182-.058a.687.687,0,0,0-.275.037,1.194,1.194,0,0,0-.263.1l-.035.034.035.034c.082.047.164.088.253.132a1.556,1.556,0,0,0,.487.139" transform="translate(-44.185 -37.06)" fill="#f45170"/>
                </g>
              </g>
              <g id="Group_754" data-name="Group 754" transform="translate(22.915 10.501)">
                <g id="Group_753" data-name="Group 753">
                  <path id="Path_2020" data-name="Path 2020" d="M80.963,52.143a.267.267,0,0,1,.144.169c.037.258-.085.512-.512.631l-.2.031a.54.54,0,0,1-.256-.076,1.253,1.253,0,0,1-.166-.121c-.041-.044-.1-.092-.112-.146l.017-.1a1.2,1.2,0,0,1,.455-.4.66.66,0,0,1,.636.01Z" transform="translate(-79.855 -52.055)" fill="#ffd06c"/>
                </g>
              </g>
              <g id="Group_756" data-name="Group 756" transform="translate(15.812 12.87)">
                <g id="Group_755" data-name="Group 755">
                  <path id="Path_2021" data-name="Path 2021" d="M66.805,56.73a.485.485,0,0,1,.142.123.387.387,0,0,1,.059.156l.042.153v.149a.32.32,0,0,1-.21.163.726.726,0,0,1-.351.007.6.6,0,0,1-.163-.064.617.617,0,0,1-.172-.15.416.416,0,0,1-.125-.336.385.385,0,0,1,.344-.254,1.016,1.016,0,0,1,.322.01A.363.363,0,0,1,66.805,56.73Z" transform="translate(-66.024 -56.668)" fill="#ffd06c"/>
                </g>
              </g>
              <g id="Group_758" data-name="Group 758" transform="translate(19.039 13.18)">
                <g id="Group_757" data-name="Group 757">
                  <path id="Path_2022" data-name="Path 2022" d="M72.553,57.272l.17.112c.106.061.217.126.311.193l.106.109c.018.051-.023.109-.064.159a.639.639,0,0,1-.169.153l-.058.02L72.792,58c-.082-.047-.153-.095-.229-.146a.62.62,0,0,1-.242-.282.192.192,0,0,1,.034-.19Z" transform="translate(-72.309 -57.272)" fill="#ffd06c"/>
                </g>
              </g>
              <g id="Group_760" data-name="Group 760" transform="translate(10.286 7.253)">
                <g id="Group_759" data-name="Group 759">
                  <path id="Path_2023" data-name="Path 2023" d="M71.71,51.434a2.883,2.883,0,0,1-1.328,1.282,7.429,7.429,0,0,1-1.2.377c-1.105.282-2.216.56-3.322.841a12.477,12.477,0,0,1-1.328.282,12.85,12.85,0,0,1-1.411.085,19.585,19.585,0,0,1-5.929-.441c-.252-.071-.487-.153-.745-.2-.176-.034-.357-.044-.528-.088a1.147,1.147,0,0,1-.283-.114.653.653,0,0,1-.372-.615,1.628,1.628,0,0,1,.528-.811,27.749,27.749,0,0,1,4.76-3.447c1.092-.634,2.1-1.309,3.216-1.93a8.335,8.335,0,0,1,1.1-.628,8.4,8.4,0,0,1,1.867-.234,7.967,7.967,0,0,1,1.423-.044,4.693,4.693,0,0,1,1.947.656c.135.078.264.158.389.24a6,6,0,0,1,1.071.841c1.143,1.187.893,2.666.139,3.949ZM65.7,53.419c3.045-.156,4.832-1.951,5.09-3.959.1-.735-.468-1.312-1.224-1.748a11.26,11.26,0,0,0-3.2-1.091c-2.493.258-.795,1.36.223,2.1s.854.926.075,1.8-3.691.6-3.844.587a22.574,22.574,0,0,0-3.964-.807c-1.312-.041-1.078.98.212,2.266a2.753,2.753,0,0,0,.571.436c1.346.777,3.421.55,6.063.412" transform="translate(-55.264 -45.731)" fill="#cc104a"/>
                </g>
              </g>
              <g id="Group_762" data-name="Group 762" transform="translate(3.269 1.898)">
                <g id="Group_761" data-name="Group 761">
                  <path id="Path_2024" data-name="Path 2024" d="M55.925,39.625a8.067,8.067,0,0,1-1.08.641c-1.068.648-2.23,1.235-3.322,1.869A38.383,38.383,0,0,1,45.588,44.9a5.064,5.064,0,0,1-1.4.305A2.089,2.089,0,0,1,43.124,45a.708.708,0,0,1-.2-.165,2.8,2.8,0,0,1-.148-.3,3.243,3.243,0,0,0-.348-.431,4.234,4.234,0,0,1-.781-3.433,2.613,2.613,0,0,1,.142-.818,3.747,3.747,0,0,1,.482-.77c.482-.641.959-1.286,1.442-1.927a3,3,0,0,1,.646-.7,5.858,5.858,0,0,1,2.2-.777,14.346,14.346,0,0,1,6.823.071,9.388,9.388,0,0,1,1.456.617c.14.071.279.146.413.223a2.259,2.259,0,0,1,1.141,1.127,1.656,1.656,0,0,1-.071.824c-.092.339-.078.787-.4,1.082ZM44.646,43.014c2.224.743,3.987.875,3.907.112a6.754,6.754,0,0,0-1.4-2.29c-.025-.089-.508-1.774,1-2.229s1.824-.55,3.11.037,3.195,1.567,3.626.119A5.071,5.071,0,0,0,53,36.915a5.429,5.429,0,0,0-3.02-.7c-3.466.156-6.558,1.2-6.818,2.962-.23,1.531-.615,2.734.731,3.511a4.118,4.118,0,0,0,.755.329" transform="translate(-41.6 -35.304)" fill="#cc104a"/>
                </g>
              </g>
              <g id="Group_764" data-name="Group 764" transform="translate(21.194 12.887)">
                <g id="Group_763" data-name="Group 763">
                  <path id="Path_2025" data-name="Path 2025" d="M77.409,56.872a.851.851,0,0,1,.281.227l-.117-.041.118.088-.035.027a.611.611,0,0,1-.263.112.777.777,0,0,1-.364-.075,3.418,3.418,0,0,1-.414-.191l-.044-.026-.065-.078c-.018-.058.064-.112.146-.146a.8.8,0,0,1,.392-.064.868.868,0,0,1,.223.088C77.314,56.819,77.362,56.845,77.409,56.872Z" transform="translate(-76.503 -56.701)" fill="#ffd06c"/>
                </g>
              </g>
              <g id="Group_766" data-name="Group 766" transform="translate(22.78 11.983)">
                <g id="Group_765" data-name="Group 765">
                  <path id="Path_2026" data-name="Path 2026" d="M80.443,54.973l.094.1a1.187,1.187,0,0,1,.113.282.274.274,0,0,1-.109.329.572.572,0,0,1-.3.109.47.47,0,0,1-.2-.064.717.717,0,0,1-.085-.058c-.059-.041-.112-.078-.165-.122a.507.507,0,0,1-.183-.173c-.059-.129.069-.265.244-.346a.8.8,0,0,1,.246-.081l.176-.007Z" transform="translate(-79.593 -54.942)" fill="#ffd06c"/>
                </g>
              </g>
            </g>
            <g id="Group_768" data-name="Group 768" transform="translate(2.74 2.363)" opacity="0.4">
              <path id="Path_2027" data-name="Path 2027" d="M51.153,41.269c-1.564,2.072-.932,1.287-1.171,2.242s-1.741.308-2.28,1.348c-.532,1.025-.139,2.465-.87,2.619-.724.17-1.857-.532-3.02-.1-1.294.478-.994,1.417-1.764,2.357s-1.756-.693-2.758.27c-.516.5.948,1.656-.277,2.057-2.157.7-3.467-2.226-4.707-1.071-1.225,1.14-.87,2.118-2.427,1.695-.894-.239-.809-1.934-1.949-1.441-1.156.5-1.987.817-3.166.039-1.186-.8-.747,2.134-3.12,1.91-.47-.046-.763-1.086-1.109-2.041-.262-.709-.555-1.379-.994-1.541-1.025-.377-2.519.693-3.12.3-.609-.377-1.4-1.556-2.758-1.025s-1.4.994-1.957-.339c-.539-1.34.146-2.92-1.248-2.373s-2.943.539-2.742-.555c.108-.678-.431-1.132-1.048-1.487a6.761,6.761,0,0,1,2.1-2.519,3.814,3.814,0,0,1,.431-.285A33.28,33.28,0,0,1,17.058,39.2a18.482,18.482,0,0,1,3.089-2.989l13.866.2,16.493.239c.739,1.156,1.726,3.2.647,4.622Z" transform="translate(-8.669 -36.208)" fill="#cc104a"/>
            </g>
            <g id="Group_769" data-name="Group 769" transform="translate(0.033 1.34)">
              <path id="Path_2028" data-name="Path 2028" d="M49.251,39.479c-1.564,2.072-.932,1.286-1.171,2.242s-1.741.308-2.28,1.348c-.532,1.025-.139,2.465-.87,2.619-.724.169-1.857-.532-3.02-.1-1.294.478-.994,1.417-1.764,2.357s-1.756-.693-2.758.27c-.516.5.948,1.656-.277,2.057-2.157.7-3.467-2.226-4.707-1.071-1.225,1.14-.87,2.118-2.427,1.695-.894-.239-.809-1.934-1.949-1.441-1.156.5-1.987.817-3.166.039-1.186-.8-.747,2.134-3.12,1.91-.824-.077-1.094-3.2-2.1-3.582-1.025-.378-2.519.693-3.12.3-.609-.377-1.4-1.556-2.758-1.025s-1.4.994-1.957-.339c-.539-1.34.146-2.92-1.248-2.373s-2.943.539-2.742-.555c.177-1.109-1.4-1.633-2.172-2.057s-1.764-.616-1.194-1.733.377-2.427-.154-2.242c-2.2.755.354-2.6.285-3.582l44.025.639c.74,1.156,1.726,3.2.647,4.622Z" transform="translate(-3.397 -34.217)" fill="#78e75a"/>
            </g>
            <g id="Group_770" data-name="Group 770" transform="translate(0 1.34)">
              <path id="Path_2029" data-name="Path 2029" d="M48.573,34.857A7.688,7.688,0,0,1,49.583,37a2.942,2.942,0,0,1-.208,2.326c-.216.342-.466.643-.693.968-.116.16-.23.321-.337.484a1.592,1.592,0,0,0-.137.248.607.607,0,0,0-.025.268,1.679,1.679,0,0,1-.121.611.823.823,0,0,1-.488.409c-.393.138-.8.149-1.144.3a1.151,1.151,0,0,0-.695.8,5.233,5.233,0,0,0-.2,1.144,5.031,5.031,0,0,1-.087.6.861.861,0,0,1-.343.569,1.111,1.111,0,0,1-.649.1,5.886,5.886,0,0,1-.6-.1,3.028,3.028,0,0,0-2.225.123,1.536,1.536,0,0,0-.706.809,6.89,6.89,0,0,1-.5,1.1,1.69,1.69,0,0,1-.425.491.866.866,0,0,1-.676.139c-.432-.081-.779-.287-1.13-.318a.766.766,0,0,0-.482.088.921.921,0,0,0-.209.146.252.252,0,0,0-.1.15,1.164,1.164,0,0,0,.118.489,3.339,3.339,0,0,1,.2.591.9.9,0,0,1,0,.368.7.7,0,0,1-.214.328,1.357,1.357,0,0,1-.617.258,2.291,2.291,0,0,1-1.257-.064,13.213,13.213,0,0,1-2.091-1.164.837.837,0,0,0-.94-.01,3.534,3.534,0,0,0-.744.831l-.319.5a1.389,1.389,0,0,1-.473.481,1.19,1.19,0,0,1-.682.107,2.444,2.444,0,0,1-.633-.149,2.123,2.123,0,0,1-.824-.976,1.363,1.363,0,0,0-.316-.4.444.444,0,0,0-.4-.057,4.524,4.524,0,0,1-2.359.543,3.083,3.083,0,0,1-1.154-.486c-.153-.093-.254-.112-.344-.047a1.243,1.243,0,0,0-.3.4,4.55,4.55,0,0,1-.676,1.031,1.816,1.816,0,0,1-1.162.554,1.571,1.571,0,0,1-.319.009.867.867,0,0,1-.356-.049,1.074,1.074,0,0,1-.483-.51,8.073,8.073,0,0,1-.461-1.126c-.132-.373-.261-.745-.419-1.094a1.655,1.655,0,0,0-.627-.821,1.9,1.9,0,0,0-1.067,0c-.374.083-.745.215-1.143.313a1.874,1.874,0,0,1-.651.06.8.8,0,0,1-.344-.135,2.868,2.868,0,0,1-.249-.19,5.79,5.79,0,0,0-.917-.7,1.538,1.538,0,0,0-1.037-.192,4.739,4.739,0,0,0-1.063.407,2.127,2.127,0,0,1-.61.221.514.514,0,0,1-.389-.142,1.219,1.219,0,0,1-.2-.277,5.207,5.207,0,0,1-.256-.558,3.505,3.505,0,0,1-.165-.6c-.076-.4-.084-.81-.119-1.193a1.133,1.133,0,0,0-.128-.5c-.072-.106-.223-.116-.4-.076a4.863,4.863,0,0,1-2.365.395,1.08,1.08,0,0,1-.593-.281.764.764,0,0,1-.2-.641,1.04,1.04,0,0,0-.325-.99,9.627,9.627,0,0,0-2.008-1.185,2.83,2.83,0,0,1-1.017-.667.769.769,0,0,1-.119-.627,2.572,2.572,0,0,1,.225-.567A3.076,3.076,0,0,0,4.7,38.754a1.844,1.844,0,0,0-.048-.572c-.043-.176-.154-.374-.326-.347a2.557,2.557,0,0,1-.585.114.455.455,0,0,1-.3-.1.388.388,0,0,1-.109-.3,3.243,3.243,0,0,1,.353-1.14l.506-1.074a3.144,3.144,0,0,0,.356-1.122,3.153,3.153,0,0,1-.335,1.132l-.485,1.084A3.215,3.215,0,0,0,3.4,37.552a.317.317,0,0,0,.09.243.379.379,0,0,0,.251.072,2.615,2.615,0,0,0,.573-.125.323.323,0,0,1,.3.128.817.817,0,0,1,.138.283,1.951,1.951,0,0,1,.064.606,3.2,3.2,0,0,1-.276,1.173,2.444,2.444,0,0,0-.2.537.607.607,0,0,0,.1.5,2.744,2.744,0,0,0,.967.6,9.517,9.517,0,0,1,2.077,1.2,1.394,1.394,0,0,1,.353.53,1.2,1.2,0,0,1,.067.322c0,.105-.013.233-.019.31a.531.531,0,0,0,.136.455.852.852,0,0,0,.469.208,3,3,0,0,0,1.129-.064,5.266,5.266,0,0,0,.557-.156c.179-.063.36-.139.573-.2a.975.975,0,0,1,.347-.023.524.524,0,0,1,.338.2,1.342,1.342,0,0,1,.187.633c.042.4.054.792.129,1.168a3.543,3.543,0,0,0,.4,1.06.947.947,0,0,0,.146.2.191.191,0,0,0,.15.055,2.045,2.045,0,0,0,.5-.2,4.85,4.85,0,0,1,1.147-.44,1.873,1.873,0,0,1,1.251.223,6.037,6.037,0,0,1,.973.732,2.55,2.55,0,0,0,.223.169.439.439,0,0,0,.2.079,1.583,1.583,0,0,0,.524-.056c.37-.092.747-.227,1.146-.318a2.217,2.217,0,0,1,1.273.008,1.912,1.912,0,0,1,.82,1c.17.372.3.749.435,1.121a7.831,7.831,0,0,0,.44,1.069.769.769,0,0,0,.3.347.578.578,0,0,0,.227.022,1.27,1.27,0,0,0,.272-.008,1.44,1.44,0,0,0,.935-.448,4.252,4.252,0,0,0,.614-.954,1.522,1.522,0,0,1,.411-.535.39.39,0,0,1,.193-.089.372.372,0,0,1,.214-.011.871.871,0,0,1,.349.134,2.729,2.729,0,0,0,1.018.431A2.335,2.335,0,0,0,27,49.64c.181-.054.361-.125.542-.2s.34-.155.574-.226a.826.826,0,0,1,.722.119,1.686,1.686,0,0,1,.416.518c.2.349.374.7.654.828a1.407,1.407,0,0,0,.992.057c.261-.14.436-.534.667-.861a3.816,3.816,0,0,1,.84-.922,1.04,1.04,0,0,1,.664-.2,1.746,1.746,0,0,1,.632.189,13.6,13.6,0,0,0,2.04,1.153,1.949,1.949,0,0,0,1.082.06,1.07,1.07,0,0,0,.471-.183.353.353,0,0,0,.108-.38,3.119,3.119,0,0,0-.182-.531,1.4,1.4,0,0,1-.136-.659.587.587,0,0,1,.2-.345,1.24,1.24,0,0,1,.277-.191,1.075,1.075,0,0,1,.665-.118c.443.052.8.271,1.147.333.352.085.594-.149.8-.484a6.736,6.736,0,0,0,.488-1.056,1.82,1.82,0,0,1,.835-.931,2.487,2.487,0,0,1,1.2-.294,5.783,5.783,0,0,1,1.2.169,1.888,1.888,0,0,0,1.081.042.652.652,0,0,0,.243-.424,4.851,4.851,0,0,0,.089-.572,5.416,5.416,0,0,1,.225-1.186,1.7,1.7,0,0,1,.295-.553,1.229,1.229,0,0,1,.523-.357c.391-.153.8-.156,1.157-.276a.665.665,0,0,0,.407-.322,1.565,1.565,0,0,0,.117-.546.734.734,0,0,1,.041-.316,1.694,1.694,0,0,1,.155-.268c.113-.165.231-.325.351-.483.232-.319.495-.625.708-.949a2.872,2.872,0,0,0,.242-2.265A7.665,7.665,0,0,0,48.573,34.857Z" transform="translate(-3.332 -34.217)" fill="#5ec363"/>
            </g>
          </g>
          <g id="Group_775" data-name="Group 775" transform="translate(1.348)">
            <g id="Group_772" data-name="Group 772" transform="translate(0 0)">
              <path id="Path_2030" data-name="Path 2030" d="M51.208,18.462a8.242,8.242,0,0,1-.138,1.489,8.013,8.013,0,0,1-.776,2.252c-2.765,5.368-11.511,8.558-21.872,8.558-12.588,0-22.8-4.7-22.8-12.3,0-3.328,1.964-6.707,5.218-9.447a.039.039,0,0,0,.013-.025,25.717,25.717,0,0,1,2.315-1.7A28.5,28.5,0,0,1,28.422,3c12.588,0,22.785,7.87,22.785,15.465Z" transform="translate(-5.625 -2.997)" fill="#f3a250"/>
            </g>
            <g id="Group_773" data-name="Group 773" transform="translate(3.428)">
              <path id="Path_2031" data-name="Path 2031" d="M54.455,18.462a8.242,8.242,0,0,1-.138,1.489,8.012,8.012,0,0,1-.776,2.252c-4.142,3.015-10.861,4.73-18.443,4.73-12.588,0-22.8-4.7-22.8-12.3A10.481,10.481,0,0,1,14.09,9.015.039.039,0,0,0,14.1,8.99a25.717,25.717,0,0,1,2.315-1.7A28.5,28.5,0,0,1,31.67,3c12.588,0,22.785,7.87,22.785,15.465Z" transform="translate(-12.301 -2.997)" fill="#ffb961"/>
            </g>
            <g id="Group_774" data-name="Group 774" transform="translate(6.844 0)">
              <path id="Path_2032" data-name="Path 2032" d="M57.69,18.462a8.242,8.242,0,0,1-.138,1.489c-4.1,2.04-9.66,3.153-15.8,3.153-12.588,0-22.8-4.7-22.8-12.3a9.469,9.469,0,0,1,.7-3.516A28.5,28.5,0,0,1,34.905,3C47.493,3,57.69,10.867,57.69,18.462Z" transform="translate(-18.952 -2.997)" fill="#ffd06c"/>
            </g>
          </g>
          <g id="Group_776" data-name="Group 776" transform="translate(6.415 35.822)">
            <path id="Path_2033" data-name="Path 2033" d="M15.656,72.777c.467-.153,1.041.365,1.211.752l.011.084a.155.155,0,0,1-.033.065A.716.716,0,0,1,16.3,74a.741.741,0,0,1-.305-.145c-.2-.152-.786-.908-.337-1.075Z" transform="translate(-15.492 -72.749)" fill="#aa6256"/>
          </g>
          <g id="Group_777" data-name="Group 777" transform="translate(9.26 35.513)">
            <path id="Path_2034" data-name="Path 2034" d="M22.626,72.69a.622.622,0,0,1,.191.419.09.09,0,0,1-.024.048c-.012.012-.024.012-.048.024a2.284,2.284,0,0,1-.753-.036,1.8,1.8,0,0,1-.718-.443.634.634,0,0,1-.239-.347c-.048-.359.323-.155.478-.108a4.572,4.572,0,0,1,.885.311.867.867,0,0,1,.227.132Z" transform="translate(-21.031 -72.147)" fill="#dba660"/>
          </g>
          <g id="Group_778" data-name="Group 778" transform="translate(6.655 34.227)">
            <path id="Path_2035" data-name="Path 2035" d="M16.911,69.646a.431.431,0,0,1,.26.151.062.062,0,0,1,.008.034c0,.011-.007.015-.013.03a1.255,1.255,0,0,1-.376.256,1.076,1.076,0,0,1-.522.028.423.423,0,0,1-.254-.1c-.167-.172.093-.2.187-.231a2.6,2.6,0,0,1,.55-.158.514.514,0,0,1,.162-.013Z" transform="translate(-15.958 -69.644)" fill="#dba660"/>
          </g>
          <g id="Group_779" data-name="Group 779" transform="translate(10.632 38.334)">
            <path id="Path_2036" data-name="Path 2036" d="M24.278,77.686c.364.153,1.24.648.809,1.13-.4.464-1.1-.4-1.321-.71a.183.183,0,0,1-.062-.144c-.008-.08.067-.141.131-.2a.457.457,0,0,1,.289-.125.351.351,0,0,1,.155.044Z" transform="translate(-23.703 -77.641)" fill="#aa6256"/>
          </g>
          <g id="Group_780" data-name="Group 780" transform="translate(13.051 37.584)">
            <path id="Path_2037" data-name="Path 2037" d="M30.25,76.927c.227.239.478.754-.072.754a1.659,1.659,0,0,1-1.017-.347,2.17,2.17,0,0,1-.706-.8c-.191-.443.3-.371.574-.3a2.137,2.137,0,0,1,1.22.694Z" transform="translate(-28.413 -76.179)" fill="#dba660"/>
          </g>
          <g id="Group_781" data-name="Group 781" transform="translate(19.133 38.486)">
            <path id="Path_2038" data-name="Path 2038" d="M42.371,77.945c.113.191.206.42.074.593a1.935,1.935,0,0,1-.185.156c-.1.085-.193.193-.3.266-.294.206-.685.146-1.03.25a2.593,2.593,0,0,1-.643.177.913.913,0,0,1-.033-.261C40.386,78.6,41.934,77.842,42.371,77.945Z" transform="translate(-40.255 -77.936)" fill="#dba660"/>
          </g>
          <g id="Group_782" data-name="Group 782" transform="translate(21.162 40.91)">
            <path id="Path_2039" data-name="Path 2039" d="M45.893,82.837a.461.461,0,0,1,.191.335.312.312,0,0,1-.048.179.547.547,0,0,1-.239.167,2.133,2.133,0,0,1-.61.191.949.949,0,0,1-.694-.215c-.227-.2-.514-.885,0-.837.2.024.395.108.6.12.251.012.562-.084.8.06Z" transform="translate(-44.205 -82.655)" fill="#aa6256"/>
          </g>
          <g id="Group_783" data-name="Group 783" transform="translate(25.244 40.529)">
            <path id="Path_2040" data-name="Path 2040" d="M53.3,82.574a.334.334,0,0,1,0,.28.226.226,0,0,1-.094.1A.4.4,0,0,1,53,82.97a1.546,1.546,0,0,1-.453-.1.688.688,0,0,1-.362-.382c-.071-.209-.01-.742.3-.529.12.087.211.208.335.288C52.969,82.348,53.2,82.4,53.3,82.574Z" transform="translate(-52.155 -81.914)" fill="#aa6256"/>
          </g>
          <g id="Group_784" data-name="Group 784" transform="translate(22.319 37.719)">
            <path id="Path_2041" data-name="Path 2041" d="M48.555,76.725a.119.119,0,0,1-.06.048c-.287.167-.574.323-.861.478a1.531,1.531,0,0,1-.431.191,1.342,1.342,0,0,1-.383.036c-.132,0-.287-.024-.347-.132-.06-.144.06-.3.179-.395a5.262,5.262,0,0,1,.538-.359,1.445,1.445,0,0,1,1.256-.012c.06.024.132.084.108.144Z" transform="translate(-46.458 -76.443)" fill="#dba660"/>
          </g>
          <g id="Group_785" data-name="Group 785" transform="translate(27.041 37.943)">
            <path id="Path_2042" data-name="Path 2042" d="M57.38,77.61a.246.246,0,0,1-.139.216.735.735,0,0,1-.254.069,1.987,1.987,0,0,1-.739-.031.842.842,0,0,1-.555-.478,1.072,1.072,0,0,1-.023-.47c0-.015,0-.023.015-.023,0-.015.023-.015.039-.015h.27a.245.245,0,0,1,.108.015c.077.039.046.146.1.177.085.046.223.015.308.023a1.937,1.937,0,0,1,.693.254A.38.38,0,0,1,57.38,77.61Z" transform="translate(-55.655 -76.878)" fill="#dba660"/>
          </g>
          <g id="Group_786" data-name="Group 786" transform="translate(27.937 40.621)">
            <path id="Path_2043" data-name="Path 2043" d="M59.264,82.776a.53.53,0,0,1-.239.036c-.167,0-.347,0-.514.012a4.8,4.8,0,0,1-1.017-.072c-.024-.012-.06-.012-.072-.036a.114.114,0,0,1-.024-.084.422.422,0,0,1,.108-.359.314.314,0,0,1,.155-.072,3.087,3.087,0,0,1,1.363-.06c.263.048.61.454.239.634Z" transform="translate(-57.398 -82.093)" fill="#aa6256"/>
          </g>
          <g id="Group_787" data-name="Group 787" transform="translate(15.988 40.638)">
            <path id="Path_2044" data-name="Path 2044" d="M36.058,82.677a.143.143,0,0,1,.012.167.226.226,0,0,1-.167.084,2.348,2.348,0,0,1-1.6-.275.31.31,0,0,1-.167-.2.109.109,0,0,1,.048-.1c.024-.012.06,0,.084,0,.179,0,.347-.144.514-.179a4.28,4.28,0,0,1,.562-.048.577.577,0,0,1,.347.084c.12.072.167.215.263.323A.645.645,0,0,1,36.058,82.677Z" transform="translate(-34.133 -82.127)" fill="#aa6256"/>
          </g>
          <g id="Group_788" data-name="Group 788" transform="translate(32.083 39.483)">
            <path id="Path_2045" data-name="Path 2045" d="M67.461,79.893c.167.1.06.323-.048.431a2.462,2.462,0,0,1-1.83.371c-.012,0-.036-.012-.048-.012a.091.091,0,0,1-.024-.048.456.456,0,0,1,.012-.395.663.663,0,0,1,.443-.287,1.927,1.927,0,0,1,.526-.012c.155,0,.323,0,.49-.012C67.079,79.929,67.378,79.845,67.461,79.893Z" transform="translate(-65.472 -79.878)" fill="#aa6256"/>
          </g>
          <g id="Group_789" data-name="Group 789" transform="translate(4.256 32.652)">
            <path id="Path_2046" data-name="Path 2046" d="M12.663,67.328a.327.327,0,0,1-.079.314.4.4,0,0,1-.267.094.963.963,0,0,1-.676-.33c-.2-.2-.613-.707-.126-.817.33-.079.77.236.974.456a.658.658,0,0,1,.173.283Z" transform="translate(-11.287 -66.577)" fill="#dba660"/>
          </g>
          <g id="Group_790" data-name="Group 790" transform="translate(35.573 36.848)">
            <path id="Path_2047" data-name="Path 2047" d="M73.524,75.6a.649.649,0,0,1-.407.3c-.311.072-.765.108-.837-.263a.706.706,0,0,1,.155-.61.922.922,0,0,1,.765-.263A.609.609,0,0,1,73.524,75.6Z" transform="translate(-72.267 -74.746)" fill="#dba660"/>
          </g>
          <g id="Group_791" data-name="Group 791" transform="translate(38.584 35.615)">
            <path id="Path_2048" data-name="Path 2048" d="M78.919,72.882a.408.408,0,0,1-.256.188c-.2.045-.481.068-.526-.165a.444.444,0,0,1,.1-.383.579.579,0,0,1,.481-.165A.383.383,0,0,1,78.919,72.882Z" transform="translate(-78.129 -72.345)" fill="#dba660"/>
          </g>
          <g id="Group_792" data-name="Group 792" transform="translate(37.923 38.047)">
            <path id="Path_2049" data-name="Path 2049" d="M77.8,77.115c.227.155.084.789-.06.957-.179.191-.777.371-.873.1a1.026,1.026,0,0,1,.167-.789C77.155,77.223,77.621,77,77.8,77.115Z" transform="translate(-76.844 -77.082)" fill="#aa6256"/>
          </g>
          <g id="Group_793" data-name="Group 793" transform="translate(42.236 32.23)">
            <path id="Path_2050" data-name="Path 2050" d="M88.031,65.942a1.106,1.106,0,0,1-.389.792,8.778,8.778,0,0,1-1.815,1.441c-.879.5-.634-.4-.144-.749.562-.4.835-1.08,1.412-1.469a.93.93,0,0,1,.836-.158c.014.014.043.029.058.043A.156.156,0,0,1,88.031,65.942Z" transform="translate(-85.241 -65.755)" fill="#dba660"/>
          </g>
          <g id="Group_794" data-name="Group 794" transform="translate(40.646 35.249)">
            <path id="Path_2051" data-name="Path 2051" d="M83.388,72.49a1.281,1.281,0,0,1,.048.478.1.1,0,0,1-.024.084c-.012.024-.036.036-.048.048a1.416,1.416,0,0,1-.706.108.472.472,0,0,1-.311-.084.379.379,0,0,1-.1-.144c-.132-.311-.227-1.208.251-1.34.2-.048.3.167.419.3.155.179.371.311.466.55Z" transform="translate(-82.145 -71.634)" fill="#dba660"/>
          </g>
        </g>
        <g id="Group_857" data-name="Group 857" transform="translate(5.606 1.595)">
          <g id="Group_826" data-name="Group 826" transform="translate(0 0.456)">
            <g id="Group_796" data-name="Group 796" transform="translate(11.074 10.642)">
              <path id="Path_2052" data-name="Path 2052" d="M37.422,27.752c.417.238.042,1.484-.28,2.023a.8.8,0,0,1-1.193.3.746.746,0,0,1-.312-1.156c.322-.539,1.368-1.4,1.785-1.167Z" transform="translate(-35.479 -27.713)" fill="#e28e42"/>
            </g>
            <g id="Group_797" data-name="Group 797" transform="translate(20.473 13.29)">
              <path id="Path_2053" data-name="Path 2053" d="M55.626,34.206a.861.861,0,1,1-1.515.82c-.3-.56-.514-1.9-.1-2.123s1.305.743,1.612,1.3Z" transform="translate(-53.781 -32.869)" fill="#e28e42"/>
            </g>
            <g id="Group_798" data-name="Group 798" transform="translate(13.515 15.45)">
              <path id="Path_2054" data-name="Path 2054" d="M41.465,38.87a.861.861,0,1,1-.689-1.579c.583-.253,1.934-.352,2.124.083s-.851,1.238-1.435,1.5Z" transform="translate(-40.231 -37.074)" fill="#e28e42"/>
            </g>
            <g id="Group_799" data-name="Group 799" transform="translate(21.745 5.404)">
              <path id="Path_2055" data-name="Path 2055" d="M58.048,18.784c-.333.438-1.325,1.088-1.669.845s.106-1.294.438-1.737a.8.8,0,0,1,1.141-.227.732.732,0,0,1,.09,1.12Z" transform="translate(-56.258 -17.513)" fill="#e28e42"/>
            </g>
            <g id="Group_800" data-name="Group 800" transform="translate(10.532 5.805)">
              <path id="Path_2056" data-name="Path 2056" d="M34.9,18.3a1.733,1.733,0,0,1,1.447.7c.414.533.583,1.315.111,1.37A3.186,3.186,0,0,1,34.627,19.2C34.263,18.722,34.41,18.373,34.9,18.3Z" transform="translate(-34.424 -18.294)" fill="#e28e42"/>
            </g>
            <g id="Group_801" data-name="Group 801" transform="translate(27.095 8.147)">
              <path id="Path_2057" data-name="Path 2057" d="M68.338,23.643c.105.6-.111,1.9-.567,1.987s-.97-1.058-1.076-1.66a.88.88,0,0,1,.672-1.1A.814.814,0,0,1,68.338,23.643Z" transform="translate(-66.676 -22.855)" fill="#e28e42"/>
            </g>
            <g id="Group_802" data-name="Group 802" transform="translate(31.565 11.9)">
              <path id="Path_2058" data-name="Path 2058" d="M77.041,30.95c.105.6-.111,1.9-.567,1.987s-.97-1.058-1.076-1.66a.88.88,0,0,1,.672-1.1A.814.814,0,0,1,77.041,30.95Z" transform="translate(-75.379 -30.161)" fill="#e28e42"/>
            </g>
            <g id="Group_803" data-name="Group 803" transform="translate(32.597 4.869)">
              <path id="Path_2059" data-name="Path 2059" d="M79.212,17.723c-.249.558-1.153,1.514-1.58,1.332s-.214-1.419.035-1.978a.88.88,0,0,1,1.171-.536.814.814,0,0,1,.374,1.182Z" transform="translate(-77.389 -16.472)" fill="#e28e42"/>
            </g>
            <g id="Group_804" data-name="Group 804" transform="translate(35.162 9.896)">
              <path id="Path_2060" data-name="Path 2060" d="M83.564,26.518c.347.345.8,1.292.547,1.56s-1.122-.243-1.469-.587a.7.7,0,0,1-.068-1.028.651.651,0,0,1,.99.056Z" transform="translate(-82.382 -26.26)" fill="#e28e42"/>
            </g>
            <g id="Group_805" data-name="Group 805" transform="translate(28.155 18.341)">
              <path id="Path_2061" data-name="Path 2061" d="M70.59,44.2c-.536.14-1.726.041-1.84-.364s.882-.956,1.419-1.1a.8.8,0,0,1,1.045.526A.737.737,0,0,1,70.59,44.2Z" transform="translate(-68.74 -42.704)" fill="#e28e42"/>
            </g>
            <g id="Group_806" data-name="Group 806" transform="translate(33.564 16.532)">
              <path id="Path_2062" data-name="Path 2062" d="M80.384,39.269c.513.21,1.4,1,1.252,1.4s-1.28.234-1.792.023a.8.8,0,0,1-.519-1.048A.737.737,0,0,1,80.384,39.269Z" transform="translate(-79.271 -39.182)" fill="#e28e42"/>
            </g>
            <g id="Group_807" data-name="Group 807" transform="translate(35.476 14.259)">
              <path id="Path_2063" data-name="Path 2063" d="M84.082,35.929c-.4-.1-1.153-.595-1.082-.9s.926-.312,1.331-.212a.6.6,0,0,1,.5.723A.554.554,0,0,1,84.082,35.929Z" transform="translate(-82.995 -34.755)" fill="#e28e42"/>
            </g>
            <g id="Group_808" data-name="Group 808" transform="translate(24.064 21.229)">
              <path id="Path_2064" data-name="Path 2064" d="M62.568,49.6c-.335.442-1.331,1.1-1.672.851s.1-1.3.437-1.738a.8.8,0,0,1,1.146-.233A.737.737,0,0,1,62.568,49.6Z" transform="translate(-60.774 -48.328)" fill="#e28e42"/>
            </g>
            <g id="Group_809" data-name="Group 809" transform="translate(19.103 17.85)">
              <path id="Path_2065" data-name="Path 2065" d="M52.55,43.313c-.537-.139-1.528-.8-1.43-1.214s1.236-.406,1.773-.267a.8.8,0,0,1,.657.968A.737.737,0,0,1,52.55,43.313Z" transform="translate(-51.113 -41.748)" fill="#e28e42"/>
            </g>
            <g id="Group_810" data-name="Group 810" transform="translate(8.931 18.489)">
              <path id="Path_2066" data-name="Path 2066" d="M32.742,44.557c-.537-.139-1.528-.8-1.43-1.214s1.236-.406,1.773-.267a.8.8,0,0,1,.657.968.737.737,0,0,1-1,.513Z" transform="translate(-31.305 -42.992)" fill="#e28e42"/>
            </g>
            <g id="Group_811" data-name="Group 811" transform="translate(0 13.845)">
              <path id="Path_2067" data-name="Path 2067" d="M15.33,34.361c.314.457.626,1.609.283,1.854s-1.2-.5-1.513-.961a.8.8,0,0,1,.139-1.161.737.737,0,0,1,1.091.268Z" transform="translate(-13.916 -33.949)" fill="#e28e42"/>
            </g>
            <g id="Group_812" data-name="Group 812" transform="translate(25.397 13.066)">
              <path id="Path_2068" data-name="Path 2068" d="M65.751,34.031a1.065,1.065,0,0,1-1.362.169c-.533-.309-1.259-1.241-.944-1.61s1.543-.024,2.082.284A.716.716,0,0,1,65.751,34.031Z" transform="translate(-63.369 -32.433)" fill="#e28e42"/>
            </g>
            <g id="Group_813" data-name="Group 813" transform="translate(6.102 9.056)">
              <path id="Path_2069" data-name="Path 2069" d="M25.935,24.69c.368-.3,1.4.486,1.79.983a.79.79,0,0,1-.14,1.218.747.747,0,0,1-1.194-.114c-.388-.5-.822-1.78-.457-2.088Z" transform="translate(-25.798 -24.623)" fill="#e28e42"/>
            </g>
            <g id="Group_814" data-name="Group 814" transform="translate(3.357 5.607)">
              <path id="Path_2070" data-name="Path 2070" d="M20.453,18.634c-.011-.418,1.084-.72,1.634-.726a.687.687,0,0,1,.765.748.659.659,0,0,1-.715.773c-.55.006-1.666-.376-1.684-.8Z" transform="translate(-20.452 -17.908)" fill="#e28e42"/>
            </g>
            <g id="Group_815" data-name="Group 815" transform="translate(4.833 14.177)">
              <path id="Path_2071" data-name="Path 2071" d="M23.34,34.909c.15-.451,1.445-.34,2.039-.128a.79.79,0,0,1,.534,1.1.747.747,0,0,1-1.069.543c-.594-.212-1.647-1.063-1.5-1.518Z" transform="translate(-23.327 -34.597)" fill="#e28e42"/>
            </g>
            <g id="Group_816" data-name="Group 816" transform="translate(4.468 18.947)">
              <path id="Path_2072" data-name="Path 2072" d="M22.844,43.907c.354-.174,1.042.658,1.262,1.133a.656.656,0,0,1-.343.958.621.621,0,0,1-.944-.317c-.22-.475-.329-1.594.024-1.774Z" transform="translate(-22.616 -43.884)" fill="#e28e42"/>
            </g>
            <g id="Group_817" data-name="Group 817" transform="translate(14.198 21.452)">
              <path id="Path_2073" data-name="Path 2073" d="M41.563,49.677c-.038-.474,1.2-.876,1.828-.911a.79.79,0,0,1,.921.808.747.747,0,0,1-.773.917C42.91,50.526,41.608,50.152,41.563,49.677Z" transform="translate(-41.563 -48.763)" fill="#e28e42"/>
            </g>
            <g id="Group_818" data-name="Group 818" transform="translate(16.652 9.235)">
              <path id="Path_2074" data-name="Path 2074" d="M49.05,26.4c-.121.459-1.442.444-2.054.285a.859.859,0,0,1,.433-1.663c.618.158,1.743.919,1.621,1.378Z" transform="translate(-46.34 -24.974)" fill="#e28e42"/>
            </g>
            <g id="Group_819" data-name="Group 819" transform="translate(15.577 5.284)">
              <path id="Path_2075" data-name="Path 2075" d="M46.818,17.882a.921.921,0,0,1-.882.776c-.581.085-1.69-.106-1.69-.5,0-.37,1.109-.782,1.69-.866.549-.09.855.2.882.586Z" transform="translate(-44.246 -17.279)" fill="#e28e42"/>
            </g>
            <g id="Group_820" data-name="Group 820" transform="translate(16.451)">
              <path id="Path_2076" data-name="Path 2076" d="M48.52,7.593a.921.921,0,0,1-.882.776c-.581.085-1.69-.106-1.69-.5,0-.37,1.109-.782,1.69-.866.549-.09.855.2.882.586Z" transform="translate(-45.949 -6.991)" fill="#e28e42"/>
            </g>
            <g id="Group_821" data-name="Group 821" transform="translate(12.67 0.478)">
              <path id="Path_2077" data-name="Path 2077" d="M38.732,9.315c-.232-.5-.2-1.278.211-1.384.4-.09,1.046.507,1.278,1a.648.648,0,0,1-.428.951A.937.937,0,0,1,38.732,9.315Z" transform="translate(-38.587 -7.922)" fill="#e28e42"/>
            </g>
            <g id="Group_822" data-name="Group 822" transform="translate(0.409 8.555)">
              <path id="Path_2078" data-name="Path 2078" d="M15,24.136c.37-.4,1.105-.672,1.36-.332.234.332-.07,1.16-.441,1.564a.648.648,0,0,1-1.042-.033A.937.937,0,0,1,15,24.136Z" transform="translate(-14.713 -23.649)" fill="#e28e42"/>
            </g>
            <g id="Group_823" data-name="Group 823" transform="translate(23.153 0.341)">
              <path id="Path_2079" data-name="Path 2079" d="M59.076,8.641a.652.652,0,0,1,.4-.94.78.78,0,0,1,1,.449c.2.449.222,1.457-.153,1.605-.4.132-1.046-.66-1.246-1.114Z" transform="translate(-58.999 -7.655)" fill="#e28e42"/>
            </g>
            <g id="Group_824" data-name="Group 824" transform="translate(6.034 1.431)">
              <path id="Path_2080" data-name="Path 2080" d="M25.688,11.319c-.185-.438.858-1.212,1.444-1.447a.907.907,0,0,1,1.254.438.843.843,0,0,1-.564,1.152c-.587.234-1.942.3-2.135-.143Z" transform="translate(-25.666 -9.778)" fill="#e28e42"/>
            </g>
            <g id="Group_825" data-name="Group 825" transform="translate(27.617 2.922)">
              <path id="Path_2081" data-name="Path 2081" d="M70.13,13.694a.732.732,0,0,1-.982.539c-.539-.127-1.537-.771-1.452-1.183s1.225-.428,1.764-.3a.794.794,0,0,1,.671.945Z" transform="translate(-67.691 -12.68)" fill="#e28e42"/>
            </g>
          </g>
          <g id="Group_827" data-name="Group 827" transform="translate(11.292 10.642)">
            <path id="Path_2082" data-name="Path 2082" d="M37.845,26.865c.417.238.042,1.484-.28,2.023a.8.8,0,0,1-1.193.3.746.746,0,0,1-.312-1.156C36.383,27.493,37.428,26.632,37.845,26.865Z" transform="translate(-35.903 -26.826)" fill="#ffde9b"/>
          </g>
          <g id="Group_828" data-name="Group 828" transform="translate(20.691 13.29)">
            <path id="Path_2083" data-name="Path 2083" d="M56.049,33.318a.861.861,0,1,1-1.515.82c-.3-.56-.514-1.9-.1-2.123S55.743,32.758,56.049,33.318Z" transform="translate(-54.204 -31.981)" fill="#ffde9b"/>
          </g>
          <g id="Group_829" data-name="Group 829" transform="translate(13.732 15.45)">
            <path id="Path_2084" data-name="Path 2084" d="M41.888,37.982A.861.861,0,1,1,41.2,36.4c.583-.253,1.934-.352,2.124.083s-.851,1.238-1.435,1.5Z" transform="translate(-40.655 -36.186)" fill="#ffde9b"/>
          </g>
          <g id="Group_830" data-name="Group 830" transform="translate(21.963 5.404)">
            <path id="Path_2085" data-name="Path 2085" d="M58.472,17.9c-.333.438-1.325,1.088-1.669.845s.106-1.294.438-1.737a.8.8,0,0,1,1.141-.227.732.732,0,0,1,.09,1.12Z" transform="translate(-56.682 -16.626)" fill="#ffde9b"/>
          </g>
          <g id="Group_831" data-name="Group 831" transform="translate(10.75 5.805)">
            <path id="Path_2086" data-name="Path 2086" d="M35.319,17.408a1.733,1.733,0,0,1,1.447.7c.414.533.583,1.315.111,1.37a3.186,3.186,0,0,1-1.826-1.173c-.364-.475-.217-.824.268-.9Z" transform="translate(-34.848 -17.406)" fill="#ffde9b"/>
          </g>
          <g id="Group_832" data-name="Group 832" transform="translate(27.313 8.147)">
            <path id="Path_2087" data-name="Path 2087" d="M68.762,22.755c.105.6-.111,1.9-.567,1.987s-.97-1.058-1.076-1.66a.88.88,0,0,1,.672-1.1A.814.814,0,0,1,68.762,22.755Z" transform="translate(-67.099 -21.967)" fill="#ffde9b"/>
          </g>
          <g id="Group_833" data-name="Group 833" transform="translate(31.782 11.9)">
            <path id="Path_2088" data-name="Path 2088" d="M77.465,30.062c.105.6-.111,1.9-.567,1.987s-.97-1.058-1.076-1.66a.88.88,0,0,1,.672-1.1A.814.814,0,0,1,77.465,30.062Z" transform="translate(-75.802 -29.273)" fill="#ffde9b"/>
          </g>
          <g id="Group_834" data-name="Group 834" transform="translate(32.815 4.869)">
            <path id="Path_2089" data-name="Path 2089" d="M79.636,16.836c-.249.558-1.153,1.514-1.58,1.332s-.214-1.419.035-1.978a.879.879,0,0,1,1.171-.536.814.814,0,0,1,.374,1.182Z" transform="translate(-77.812 -15.584)" fill="#ffde9b"/>
          </g>
          <g id="Group_835" data-name="Group 835" transform="translate(35.379 9.896)">
            <path id="Path_2090" data-name="Path 2090" d="M83.987,25.63c.347.345.8,1.292.547,1.56s-1.122-.243-1.469-.587A.7.7,0,0,1,83,25.575.651.651,0,0,1,83.987,25.63Z" transform="translate(-82.806 -25.373)" fill="#ffde9b"/>
          </g>
          <g id="Group_836" data-name="Group 836" transform="translate(28.373 18.341)">
            <path id="Path_2091" data-name="Path 2091" d="M71.014,43.314c-.536.14-1.726.041-1.84-.364s.882-.956,1.419-1.1a.8.8,0,0,1,1.045.526A.737.737,0,0,1,71.014,43.314Z" transform="translate(-69.164 -41.816)" fill="#ffde9b"/>
          </g>
          <g id="Group_837" data-name="Group 837" transform="translate(33.781 16.532)">
            <path id="Path_2092" data-name="Path 2092" d="M80.808,38.381c.513.21,1.4,1,1.252,1.4s-1.28.234-1.792.023a.8.8,0,0,1-.519-1.048A.737.737,0,0,1,80.808,38.381Z" transform="translate(-79.695 -38.294)" fill="#ffde9b"/>
          </g>
          <g id="Group_838" data-name="Group 838" transform="translate(35.694 14.259)">
            <path id="Path_2093" data-name="Path 2093" d="M84.506,35.041c-.4-.1-1.153-.595-1.082-.9s.926-.312,1.331-.212a.6.6,0,0,1,.5.723A.554.554,0,0,1,84.506,35.041Z" transform="translate(-83.418 -33.868)" fill="#ffde9b"/>
          </g>
          <g id="Group_839" data-name="Group 839" transform="translate(24.282 21.229)">
            <path id="Path_2094" data-name="Path 2094" d="M62.992,48.711c-.335.442-1.331,1.1-1.672.851s.1-1.3.437-1.738a.8.8,0,0,1,1.146-.233.737.737,0,0,1,.088,1.12Z" transform="translate(-61.197 -47.44)" fill="#ffde9b"/>
          </g>
          <g id="Group_840" data-name="Group 840" transform="translate(19.321 17.85)">
            <path id="Path_2095" data-name="Path 2095" d="M52.974,42.425c-.537-.139-1.528-.8-1.43-1.214s1.236-.406,1.773-.267a.8.8,0,0,1,.657.968.737.737,0,0,1-1,.513Z" transform="translate(-51.537 -40.86)" fill="#ffde9b"/>
          </g>
          <g id="Group_841" data-name="Group 841" transform="translate(9.148 18.489)">
            <path id="Path_2096" data-name="Path 2096" d="M33.166,43.669c-.537-.139-1.528-.8-1.43-1.214s1.236-.406,1.773-.267a.8.8,0,0,1,.657.968A.737.737,0,0,1,33.166,43.669Z" transform="translate(-31.729 -42.104)" fill="#ffde9b"/>
          </g>
          <g id="Group_842" data-name="Group 842" transform="translate(0.218 13.845)">
            <path id="Path_2097" data-name="Path 2097" d="M15.754,33.473c.314.457.626,1.609.283,1.854s-1.2-.5-1.513-.961a.8.8,0,0,1,.139-1.161.737.737,0,0,1,1.091.268Z" transform="translate(-14.339 -33.061)" fill="#ffde9b"/>
          </g>
          <g id="Group_843" data-name="Group 843" transform="translate(25.615 13.066)">
            <path id="Path_2098" data-name="Path 2098" d="M66.175,33.143a1.065,1.065,0,0,1-1.362.169c-.533-.309-1.259-1.241-.944-1.61s1.543-.024,2.082.284A.716.716,0,0,1,66.175,33.143Z" transform="translate(-63.793 -31.546)" fill="#ffde9b"/>
          </g>
          <g id="Group_844" data-name="Group 844" transform="translate(6.32 9.056)">
            <path id="Path_2099" data-name="Path 2099" d="M26.359,23.8c.368-.3,1.4.486,1.79.983A.79.79,0,0,1,28.01,26a.747.747,0,0,1-1.194-.114C26.428,25.393,25.994,24.11,26.359,23.8Z" transform="translate(-26.221 -23.736)" fill="#ffde9b"/>
          </g>
          <g id="Group_845" data-name="Group 845" transform="translate(3.603 5.546)">
            <path id="Path_2100" data-name="Path 2100" d="M20.933,17.629c-.011-.418,1.084-.72,1.634-.726a.687.687,0,0,1,.765.748.659.659,0,0,1-.715.773c-.55.006-1.666-.376-1.684-.8Z" transform="translate(-20.932 -16.902)" fill="#ffde9b"/>
          </g>
          <g id="Group_846" data-name="Group 846" transform="translate(5.051 14.177)">
            <path id="Path_2101" data-name="Path 2101" d="M23.764,34.022c.15-.451,1.445-.34,2.039-.128a.79.79,0,0,1,.534,1.1.747.747,0,0,1-1.069.543C24.674,35.328,23.62,34.477,23.764,34.022Z" transform="translate(-23.75 -33.709)" fill="#ffde9b"/>
          </g>
          <g id="Group_847" data-name="Group 847" transform="translate(4.685 18.947)">
            <path id="Path_2102" data-name="Path 2102" d="M23.268,43.02c.354-.174,1.042.658,1.262,1.133a.656.656,0,0,1-.343.958.621.621,0,0,1-.944-.317c-.22-.475-.329-1.594.024-1.774Z" transform="translate(-23.039 -42.996)" fill="#ffde9b"/>
          </g>
          <g id="Group_848" data-name="Group 848" transform="translate(14.416 21.452)">
            <path id="Path_2103" data-name="Path 2103" d="M41.987,48.789c-.038-.474,1.2-.876,1.828-.911a.79.79,0,0,1,.921.808.747.747,0,0,1-.773.917C43.334,49.638,42.032,49.265,41.987,48.789Z" transform="translate(-41.986 -47.875)" fill="#ffde9b"/>
          </g>
          <g id="Group_849" data-name="Group 849" transform="translate(16.869 9.236)">
            <path id="Path_2104" data-name="Path 2104" d="M49.473,25.508c-.121.459-1.442.444-2.054.285a.859.859,0,0,1,.433-1.663c.618.158,1.743.919,1.621,1.378Z" transform="translate(-46.764 -24.086)" fill="#ffde9b"/>
          </g>
          <g id="Group_850" data-name="Group 850" transform="translate(15.794 5.284)">
            <path id="Path_2105" data-name="Path 2105" d="M47.242,16.995a.921.921,0,0,1-.882.776c-.581.085-1.69-.106-1.69-.5,0-.37,1.109-.782,1.69-.866.549-.09.855.2.882.586Z" transform="translate(-44.67 -16.392)" fill="#ffde9b"/>
          </g>
          <g id="Group_851" data-name="Group 851" transform="translate(16.668)">
            <path id="Path_2106" data-name="Path 2106" d="M48.944,6.706a.921.921,0,0,1-.882.776c-.581.085-1.69-.106-1.69-.5,0-.37,1.109-.782,1.69-.866.549-.09.855.2.882.586Z" transform="translate(-46.372 -6.103)" fill="#ffde9b"/>
          </g>
          <g id="Group_852" data-name="Group 852" transform="translate(12.888 0.478)">
            <path id="Path_2107" data-name="Path 2107" d="M39.155,8.427c-.232-.5-.2-1.278.211-1.384.4-.09,1.046.507,1.278,1A.648.648,0,0,1,40.217,9a.937.937,0,0,1-1.061-.57Z" transform="translate(-39.011 -7.034)" fill="#ffde9b"/>
          </g>
          <g id="Group_853" data-name="Group 853" transform="translate(0.627 8.555)">
            <path id="Path_2108" data-name="Path 2108" d="M15.42,23.248c.37-.4,1.105-.672,1.36-.332.234.332-.07,1.16-.441,1.564a.648.648,0,0,1-1.042-.033.937.937,0,0,1,.123-1.2Z" transform="translate(-15.137 -22.761)" fill="#ffde9b"/>
          </g>
          <g id="Group_854" data-name="Group 854" transform="translate(23.371 0.341)">
            <path id="Path_2109" data-name="Path 2109" d="M59.5,7.754a.652.652,0,0,1,.4-.94.78.78,0,0,1,1,.449c.2.449.222,1.457-.153,1.605C60.349,9,59.7,8.208,59.5,7.754Z" transform="translate(-59.423 -6.767)" fill="#ffde9b"/>
          </g>
          <g id="Group_855" data-name="Group 855" transform="translate(6.252 1.431)">
            <path id="Path_2110" data-name="Path 2110" d="M26.111,10.431c-.185-.438.858-1.212,1.444-1.447a.907.907,0,0,1,1.254.438.843.843,0,0,1-.564,1.152c-.587.234-1.942.3-2.135-.143Z" transform="translate(-26.09 -8.89)" fill="#ffde9b"/>
          </g>
          <g id="Group_856" data-name="Group 856" transform="translate(27.834 2.922)">
            <path id="Path_2111" data-name="Path 2111" d="M70.554,12.807a.732.732,0,0,1-.982.539c-.539-.127-1.537-.771-1.452-1.183s1.225-.428,1.764-.3a.794.794,0,0,1,.671.945Z" transform="translate(-68.114 -11.793)" fill="#ffde9b"/>
          </g>
        </g>
        <g id="Group_858" data-name="Group 858" transform="translate(24.463 36.57)">
          <path id="Path_2112" data-name="Path 2112" d="M52.022,74.88c-.064.238-.321.023-.7-.079s-.745-.054-.681-.292.426-.368.812-.265S52.09,74.628,52.022,74.88Z" transform="translate(-50.634 -74.206)" fill="#dba660"/>
        </g>
        <g id="Group_859" data-name="Group 859" transform="translate(18.001 42.851)">
          <path id="Path_2113" data-name="Path 2113" d="M39.927,88.595a1.672,1.672,0,0,1-.183.473.29.29,0,0,1-.176.121c-.17.028-.3-.159-.339-.326-.05-.193-.058-.394-.1-.589a.819.819,0,0,0-.285-.509,1.394,1.394,0,0,0-.235-.122,1.061,1.061,0,0,1-.468-.373.529.529,0,0,1-.013-.572.809.809,0,0,1,.647-.244c.461-.023.923-.017,1.385-.008a2.565,2.565,0,0,1,.715.082c.162.05.638.224.662.423.027.219-.394.373-.533.46A2.6,2.6,0,0,0,39.927,88.595Z" transform="translate(-38.051 -86.436)" fill="#bde5ac"/>
        </g>
        <g id="Group_860" data-name="Group 860" transform="translate(17.164 28.62)">
          <path id="Path_2114" data-name="Path 2114" d="M39.282,60.884a1.4,1.4,0,0,1-.279.473.491.491,0,0,1-.269.121.513.513,0,0,1-.517-.326c-.077-.193-.088-.394-.15-.589a.817.817,0,0,0-.434-.509,2.67,2.67,0,0,0-.359-.122,1.68,1.68,0,0,1-.714-.373.384.384,0,0,1-.02-.572,1.636,1.636,0,0,1,.986-.244c.7-.023,1.408-.017,2.112-.008a5.882,5.882,0,0,1,1.09.083c.247.05.973.224,1.01.423.041.219-.6.373-.814.46a3.427,3.427,0,0,0-1.643,1.184Z" transform="translate(-36.421 -58.726)" fill="#b0ea9b"/>
        </g>
        <g id="Group_861" data-name="Group 861" transform="translate(9.102 40.988)">
          <path id="Path_2115" data-name="Path 2115" d="M27.026,84.877a.885.885,0,0,1-.692.155.967.967,0,0,1-.321-.235,1.483,1.483,0,0,0-.8-.453,2.317,2.317,0,0,1-.42-.042,1.354,1.354,0,0,1-.311-.175,1.831,1.831,0,0,0-.59-.245,2.968,2.968,0,0,0-.54-.058c-.308-.011-.617,0-.926.006a3.4,3.4,0,0,1-.915-.054,1.12,1.12,0,0,1-.732-.512.314.314,0,0,1-.029-.3.31.31,0,0,1,.2-.128,1.232,1.232,0,0,1,.786.1c.248.1.48.244.733.336.842.3,1.817.025,2.645.363.118.048.231.108.349.156a10.756,10.756,0,0,0,1.44.314c.173.044.517.114.578.313C27.546,84.647,27.18,84.793,27.026,84.877Z" transform="translate(-20.723 -82.808)" fill="#bde5ac"/>
        </g>
        <g id="Group_862" data-name="Group 862" transform="translate(8.975 25.927)">
          <path id="Path_2116" data-name="Path 2116" d="M26.353,56.593a.885.885,0,0,1-.709.027.967.967,0,0,1-.273-.29,1.483,1.483,0,0,0-.706-.591,2.316,2.316,0,0,1-.406-.117,1.354,1.354,0,0,1-.274-.229,1.831,1.831,0,0,0-.536-.348,2.968,2.968,0,0,0-.52-.155c-.3-.066-.606-.115-.911-.162a3.4,3.4,0,0,1-.89-.219,1.12,1.12,0,0,1-.627-.636.314.314,0,0,1,.025-.3.31.31,0,0,1,.216-.091,1.232,1.232,0,0,1,.755.238c.225.147.428.327.66.463.773.451,1.782.355,2.536.837.107.069.208.148.315.217a10.757,10.757,0,0,0,1.359.57c.162.075.488.206.511.413.027.238-.36.315-.526.37Z" transform="translate(-20.476 -53.482)" fill="#b0ea9b"/>
        </g>
        <g id="Group_863" data-name="Group 863" transform="translate(1.877 33.232)">
          <path id="Path_2117" data-name="Path 2117" d="M12.031,73.892a1.083,1.083,0,0,0-1.04-.2c-.247.108-.493.308-.732.2a.463.463,0,0,1-.239-.339,2.617,2.617,0,0,1-.031-.424,1.907,1.907,0,0,0-.216-.793c-.116-.208-.262-.393-.37-.6a3.1,3.1,0,0,0-.169-.362,1.81,1.81,0,0,0-1.117-.678c-.316-.1-.639-.208-.963-.308a.775.775,0,0,1-.362-.185.73.73,0,0,1-.139-.478,1.361,1.361,0,0,1,.039-.393c.031-.085.085-.169.123-.254a1.356,1.356,0,0,0,.008-1.055c-.046-.1-.085-.247.008-.3a.227.227,0,0,1,.1-.015h.385a.638.638,0,0,1,.27.038.567.567,0,0,1,.239.262,6.1,6.1,0,0,1,.37.824c.069.169.131.339.216.5a5.215,5.215,0,0,0,.4.585,7.544,7.544,0,0,0,1.756,1.81,5.621,5.621,0,0,1,1.209.809,2.973,2.973,0,0,1,.424.639c.131.231.339,1.009-.169.716Z" transform="translate(-6.654 -67.706)" fill="#b0ea9b"/>
        </g>
        <g id="Group_864" data-name="Group 864" transform="translate(26.07 41.352)">
          <path id="Path_2118" data-name="Path 2118" d="M64.551,83.945a.97.97,0,0,1-.282.654,1.088,1.088,0,0,1-.613.149l-.737.025a2.722,2.722,0,0,0-1.292.265,2.042,2.042,0,0,0-.77,1.01.755.755,0,0,1-.207.34.693.693,0,0,1-.662.017,14.842,14.842,0,0,0-1.946-.638,2.231,2.231,0,0,0-1.921.455,3.332,3.332,0,0,0-.505.754.927.927,0,0,1-.381.414.587.587,0,0,1-.638-.232,1.807,1.807,0,0,1-.265-.671.726.726,0,0,0-.224-.439c-.1-.074-.282-.058-.331-.19-.124-.331.621-.29.778-.3a10.074,10.074,0,0,0,2.732-.315c.34-.108.671-.248,1-.373a22.791,22.791,0,0,1,3.552-.9c.729-.141,1.457-.29,2.186-.431.174-.033.389-.05.489.091A.454.454,0,0,1,64.551,83.945Z" transform="translate(-53.764 -83.517)" fill="#bde5ac"/>
        </g>
        <g id="Group_865" data-name="Group 865" transform="translate(26.079 27.638)">
          <path id="Path_2119" data-name="Path 2119" d="M63.816,57.211a.9.9,0,0,1-.262.609,1.013,1.013,0,0,1-.57.139l-.686.023a2.532,2.532,0,0,0-1.2.247,1.9,1.9,0,0,0-.716.94.7.7,0,0,1-.193.316.645.645,0,0,1-.616.015,13.807,13.807,0,0,0-1.81-.593,2.075,2.075,0,0,0-1.787.424,3.1,3.1,0,0,0-.47.7.862.862,0,0,1-.354.385.546.546,0,0,1-.593-.216,1.681,1.681,0,0,1-.246-.624.675.675,0,0,0-.208-.408c-.092-.069-.262-.054-.308-.177-.116-.308.578-.27.724-.277a9.372,9.372,0,0,0,2.542-.293c.316-.1.624-.231.932-.347a21.2,21.2,0,0,1,3.3-.84c.678-.131,1.356-.27,2.034-.4.162-.031.362-.046.455.085A.422.422,0,0,1,63.816,57.211Z" transform="translate(-53.781 -56.813)" fill="#b0ea9b"/>
        </g>
        <g id="Group_866" data-name="Group 866" transform="translate(41.02 32.49)">
          <path id="Path_2120" data-name="Path 2120" d="M88.6,66.818A5.082,5.082,0,0,1,87.48,68.39a3,3,0,0,0-.894,1.687,1.045,1.045,0,0,1-.031.223.476.476,0,0,1-.3.27,3.49,3.49,0,0,1-.408.085,2.2,2.2,0,0,0-1.317.924,4.809,4.809,0,0,0-.639,1.5,1.307,1.307,0,0,1-.139.354c-.193.285-.532.169-.74-.031a.455.455,0,0,1-.062-.585,5.867,5.867,0,0,1,1.233-1.456c.362-.339.747-.647,1.109-.986a9.581,9.581,0,0,0,.9-.955c.154-.185.3-.377.455-.57.193-.262.393-.516.585-.778.1-.131.2-.254.293-.393a4.158,4.158,0,0,0,.6-1.086c.046-.139.108-.316.262-.331a.254.254,0,0,1,.262.2.571.571,0,0,1-.046.354Z" transform="translate(-82.874 -66.261)" fill="#b0ea9b"/>
        </g>
        <g id="Group_867" data-name="Group 867" transform="translate(38.636 22.723)">
          <path id="Path_2121" data-name="Path 2121" d="M79.866,51.048a.372.372,0,0,0,.24-.044.392.392,0,0,0,.116-.212A3.853,3.853,0,0,1,81,49.4a1.889,1.889,0,0,1,.677-.528c.274-.114.58-.127.858-.23a1.424,1.424,0,0,0,.9-1.4c-.095-.015-.172.07-.233.144a4.277,4.277,0,0,1-1.453,1.059,11.507,11.507,0,0,0-2.228,1.14,1.962,1.962,0,0,1-.792.478c-.227.048-.449.086-.485.369C78.159,51.047,79.494,51.032,79.866,51.048Z" transform="translate(-78.232 -47.243)" fill="#b0ea9b"/>
        </g>
      </g>
      <g id="Group_871" data-name="Group 871" transform="translate(2.758 11.968)">
        <g id="Group_869" data-name="Group 869">
          <path id="Path_2122" data-name="Path 2122" d="M9.44,28.793c0,1.373-.238,2.492-.538,2.492s-.532-1.12-.532-2.492S8.608,26.3,8.9,26.3,9.44,27.407,9.44,28.793Z" transform="translate(-8.37 -26.301)" fill="#fff"/>
        </g>
        <g id="Group_870" data-name="Group 870" transform="translate(0.088 5.245)">
          <path id="Path_2123" data-name="Path 2123" d="M9.436,37.5c0,.541-.2.981-.449.981s-.445-.441-.445-.981.2-.981.445-.981S9.436,36.95,9.436,37.5Z" transform="translate(-8.541 -36.515)" fill="#fff"/>
        </g>
      </g>
      <g id="Group_872" data-name="Group 872" transform="translate(11.808 1.948)" opacity="0.15">
        <path id="Path_2124" data-name="Path 2124" d="M55.446,14.34c-.65,3.49-7.212,5.193-14.717,5.223-7.479-.028-14.041-1.734-14.69-5.223-.663-3.463,5.9-7.561,14.689-7.55C49.548,6.777,56.109,10.878,55.446,14.34Z" transform="translate(-25.993 -6.789)" fill="#fff"/>
      </g>
    </g>
    <g id="Group_874" data-name="Group 874" transform="translate(5.061 23.91)">
      <path id="Path_2125" data-name="Path 2125" d="M7.193,44.6c-.016.087-.056.169-.073.256a.687.687,0,0,0,.307.637,3.491,3.491,0,0,0,.666.331,4.853,4.853,0,0,1,.825.5,3.026,3.026,0,0,1,.813.793c.063.1.116.206.185.3a1.514,1.514,0,0,0,1.1.564,4.487,4.487,0,0,0,1.265-.121.235.235,0,0,0,.136-.058.187.187,0,0,0,.033-.151.452.452,0,0,0-.136-.265.957.957,0,0,0-.478-.191,4.961,4.961,0,0,1-1.96-.821,9.04,9.04,0,0,1-1.5-1.629q-.16-.2-.326-.389c-.164-.19-.6-.747-.9-.63a.255.255,0,0,0-.108.352c.08.178.192.3.152.517Z" transform="translate(-7.012 -43.719)" fill="#b0ea9b"/>
    </g>
    <g id="Group_875" data-name="Group 875" transform="translate(47.253 22.746)">
      <path id="Path_2126" data-name="Path 2126" d="M91.009,41.491a1.671,1.671,0,0,1-.05.5,4.105,4.105,0,0,1-.325.671,1.629,1.629,0,0,1-.195.368c-.058.058-.123.108-.18.159a1.305,1.305,0,0,0-.4.591.923.923,0,0,1-.1.245,1.068,1.068,0,0,1-.087.1,2.672,2.672,0,0,1-.231.166.2.2,0,0,1-.216.036.144.144,0,0,1-.058-.123.436.436,0,0,1,.043-.137c.079-.151.188-.289.274-.44.123-.216.18-.469.31-.678a2.089,2.089,0,0,1,.411-.425,2.638,2.638,0,0,0,.426-.426.823.823,0,0,0,.173-.555l.065-.079a.232.232,0,0,1,.1-.007.043.043,0,0,1,.029.007C91.009,41.469,91.009,41.477,91.009,41.491Z" transform="translate(-89.17 -41.452)" fill="#b0ea9b"/>
    </g>
    <g id="Group_876" data-name="Group 876" transform="translate(36.499 12.964)" opacity="0.7">
      <path id="Path_2127" data-name="Path 2127" d="M68.914,22.776a.378.378,0,0,1-.277.465.394.394,0,0,1-.4-.37.378.378,0,0,1,.277-.465A.394.394,0,0,1,68.914,22.776Z" transform="translate(-68.229 -22.404)" fill="#fff"/>
    </g>
    <g id="Group_877" data-name="Group 877" transform="translate(42.32 9.636)" opacity="0.7">
      <path id="Path_2128" data-name="Path 2128" d="M80.132,15.982a.378.378,0,0,1,.215.5.394.394,0,0,1-.535.108.378.378,0,0,1-.215-.5A.393.393,0,0,1,80.132,15.982Z" transform="translate(-79.563 -15.924)" fill="#fff"/>
    </g>
    <g id="Group_878" data-name="Group 878" transform="translate(37.758 7.893)" opacity="0.7">
      <path id="Path_2129" data-name="Path 2129" d="M71.5,12.847a.334.334,0,0,1-.33.4.439.439,0,0,1-.477-.315.334.334,0,0,1,.33-.4A.439.439,0,0,1,71.5,12.847Z" transform="translate(-70.68 -12.53)" fill="#fff"/>
    </g>
    <g id="Group_879" data-name="Group 879" transform="translate(26.585 4.853)" opacity="0.7">
      <path id="Path_2130" data-name="Path 2130" d="M49.536,7.254A.378.378,0,0,1,49,7.274a.394.394,0,0,1,.092-.538.378.378,0,0,1,.541-.021.394.394,0,0,1-.092.538Z" transform="translate(-48.925 -6.612)" fill="#fff"/>
    </g>
    <g id="Group_880" data-name="Group 880" transform="translate(45.452 19.168)" opacity="0.7">
      <path id="Path_2131" data-name="Path 2131" d="M86.14,34.906a.27.27,0,0,1-.371.109.278.278,0,0,1-.053-.385.27.27,0,0,1,.371-.109A.278.278,0,0,1,86.14,34.906Z" transform="translate(-85.663 -34.484)" fill="#fff"/>
    </g>
    <g id="Group_881" data-name="Group 881" transform="translate(29.53 23.033)" opacity="0.7">
      <path id="Path_2132" data-name="Path 2132" d="M55.186,42.468c-.068.221-.233.368-.375.337s-.194-.234-.122-.453.233-.368.375-.337S55.259,42.249,55.186,42.468Z" transform="translate(-54.659 -42.011)" fill="#fff"/>
    </g>
    <g id="Group_882" data-name="Group 882" transform="translate(19.308 23.541)" opacity="0.7">
      <path id="Path_2133" data-name="Path 2133" d="M35.282,43.457c-.068.221-.233.368-.375.337s-.194-.234-.122-.453.233-.368.375-.337S35.355,43.239,35.282,43.457Z" transform="translate(-34.754 -43)" fill="#fff"/>
    </g>
    <g id="Group_883" data-name="Group 883" transform="translate(20.321 16.41)" opacity="0.7">
      <path id="Path_2134" data-name="Path 2134" d="M36.773,29.38a.356.356,0,0,1,.487-.228.447.447,0,0,1,.139.569.356.356,0,0,1-.487.228.447.447,0,0,1-.139-.569Z" transform="translate(-36.727 -29.116)" fill="#fff"/>
    </g>
    <g id="Group_884" data-name="Group 884" transform="translate(9.475 13.961)" opacity="0.7">
      <path id="Path_2135" data-name="Path 2135" d="M15.654,24.61a.356.356,0,0,1,.487-.228.447.447,0,0,1,.139.569.356.356,0,0,1-.487.228.447.447,0,0,1-.139-.569Z" transform="translate(-15.608 -24.346)" fill="#fff"/>
    </g>
    <g id="Group_885" data-name="Group 885" transform="translate(19.801 10.622)" opacity="0.7">
      <path id="Path_2136" data-name="Path 2136" d="M35.971,17.881a.3.3,0,0,1,.43.143.376.376,0,0,1-.244.428.3.3,0,0,1-.43-.143A.376.376,0,0,1,35.971,17.881Z" transform="translate(-35.715 -17.845)" fill="#fff"/>
    </g>
    <g id="Group_886" data-name="Group 886" transform="translate(9.02 18.674)" opacity="0.7">
      <path id="Path_2137" data-name="Path 2137" d="M15.261,34.03c-.184.139-.4.161-.5.053s-.02-.3.167-.438.4-.161.5-.053S15.448,33.9,15.261,34.03Z" transform="translate(-14.722 -33.524)" fill="#fff"/>
    </g>
  </g>
<!-- Code injected by live-server -->
<script>
	// <![CDATA[  <-- For SVG support
	if ('WebSocket' in window) {
		(function () {
			function refreshCSS() {
				var sheets = [].slice.call(document.getElementsByTagName("link"));
				var head = document.getElementsByTagName("head")[0];
				for (var i = 0; i < sheets.length; ++i) {
					var elem = sheets[i];
					var parent = elem.parentElement || head;
					parent.removeChild(elem);
					var rel = elem.rel;
					if (elem.href && typeof rel != "string" || rel.length == 0 || rel.toLowerCase() == "stylesheet") {
						var url = elem.href.replace(/(&|\?)_cacheOverride=\d+/, '');
						elem.href = url + (url.indexOf('?') >= 0 ? '&' : '?') + '_cacheOverride=' + (new Date().valueOf());
					}
					parent.appendChild(elem);
				}
			}
			var protocol = window.location.protocol === 'http:' ? 'ws://' : 'wss://';
			var address = protocol + window.location.host + window.location.pathname + '/ws';
			var socket = new WebSocket(address);
			socket.onmessage = function (msg) {
				if (msg.data == 'reload') window.location.reload();
				else if (msg.data == 'refreshcss') refreshCSS();
			};
			if (sessionStorage && !sessionStorage.getItem('IsThisFirstTime_Log_From_LiveServer')) {
				console.log('Live reload enabled.');
				sessionStorage.setItem('IsThisFirstTime_Log_From_LiveServer', true);
			}
		})();
	}
	else {
		console.error('Upgrade your browser. This Browser is NOT supported WebSocket for Live-Reloading.');
	}
	// ]]>
</script>
</svg>
