<svg xmlns="http://www.w3.org/2000/svg" width="17" height="17" viewBox="0 0 17 17">
  <g id="Group_3095" data-name="Group 3095" transform="translate(-2 -2)">
    <path id="Path_14394" data-name="Path 14394" d="M17.179,3.214H14.75V2.607a.607.607,0,1,0-1.214,0v.607H7.464V2.607a.607.607,0,1,0-1.214,0v.607H3.821A1.821,1.821,0,0,0,2,5.036V17.179A1.821,1.821,0,0,0,3.821,19H17.179A1.821,1.821,0,0,0,19,17.179V5.036a1.821,1.821,0,0,0-1.821-1.821ZM3.821,4.429H17.179a.607.607,0,0,1,.607.607V6.857H3.214V5.036A.607.607,0,0,1,3.821,4.429ZM17.179,17.786H3.821a.607.607,0,0,1-.607-.607V8.071H17.786v9.107A.607.607,0,0,1,17.179,17.786Z"/>
    <path id="Path_14395" data-name="Path 14395" d="M16.283,15.138l-3.825,3.279-1.424-1.424a.607.607,0,1,0-.859.859L12,19.673a.607.607,0,0,0,.824.032l4.25-3.643a.607.607,0,1,0-.789-.922Z" transform="translate(-3.142 -5.099)"/>
  </g>
</svg>
