<svg xmlns="http://www.w3.org/2000/svg" width="21.551" height="14.816" viewBox="0 0 21.551 14.816">
  <g id="credit-card" transform="translate(0 -80)">
    <path id="Path_4843" data-name="Path 4843" d="M21.551,83.494V82.357A2.357,2.357,0,0,0,19.194,80H2.357A2.357,2.357,0,0,0,0,82.357v1.136a.21.21,0,0,0,.21.21H21.34A.21.21,0,0,0,21.551,83.494Z"/>
    <path id="Path_4844" data-name="Path 4844" d="M0,200.21v7.2a2.357,2.357,0,0,0,2.357,2.357H19.194a2.357,2.357,0,0,0,2.357-2.357v-7.2a.21.21,0,0,0-.21-.21H.21A.21.21,0,0,0,0,200.21Zm5.388,5.514a.673.673,0,0,1-.673.673H4.041a.673.673,0,0,1-.673-.673v-.673a.673.673,0,0,1,.673-.673h.673a.673.673,0,0,1,.673.673Z" transform="translate(0 -114.949)"/>
  </g>
</svg>
