<svg xmlns="http://www.w3.org/2000/svg" width="13.9" height="124.096" viewBox="0 0 13.9 124.096">
  <g id="Group_2942" data-name="Group 2942" transform="translate(-72 -316.39)">
    <g id="calendar" transform="translate(71 314.39)">
      <path id="Path_2420" data-name="Path 2420" d="M13.384,2h-1.3V3.3a.433.433,0,0,1-.866,0V2H4.291V3.3a.433.433,0,0,1-.866,0V2h-1.3A1.193,1.193,0,0,0,1,3.3V4.858H14.857V3.3A1.461,1.461,0,0,0,13.384,2ZM1,5.767v7.924a1.175,1.175,0,0,0,1.169,1.3H13.428a1.461,1.461,0,0,0,1.472-1.3V5.767Zm3.854,7.275H3.815a.342.342,0,0,1-.346-.346V11.613a.342.342,0,0,1,.346-.346H4.9a.342.342,0,0,1,.346.346V12.7A.379.379,0,0,1,4.854,13.042Zm0-3.9H3.815A.342.342,0,0,1,3.468,8.8V7.716a.342.342,0,0,1,.346-.346H4.9a.342.342,0,0,1,.346.346V8.8A.379.379,0,0,1,4.854,9.145Zm3.464,3.9H7.236a.342.342,0,0,1-.346-.346V11.613a.342.342,0,0,1,.346-.346H8.318a.342.342,0,0,1,.346.346V12.7A.319.319,0,0,1,8.318,13.042Zm0-3.9H7.236A.342.342,0,0,1,6.889,8.8V7.716a.342.342,0,0,1,.346-.346H8.318a.342.342,0,0,1,.346.346V8.8A.319.319,0,0,1,8.318,9.145Zm3.464,3.9H10.7a.342.342,0,0,1-.346-.346V11.613a.342.342,0,0,1,.346-.346h1.083a.342.342,0,0,1,.346.346V12.7A.319.319,0,0,1,11.782,13.042Zm0-3.9H10.7a.342.342,0,0,1-.346-.346V7.716a.342.342,0,0,1,.346-.346h1.083a.342.342,0,0,1,.346.346V8.8A.319.319,0,0,1,11.782,9.145Z"/>
    </g>
    <g id="Layer_2" data-name="Layer 2" transform="translate(71 369.24)">
      <path id="Path_2421" data-name="Path 2421" d="M7.9,1a6.9,6.9,0,1,0,6.9,6.9A6.9,6.9,0,0,0,7.9,1Zm2.325,9.225a.627.627,0,0,1-.887,0L7.456,8.343A.627.627,0,0,1,7.273,7.9V4.136a.627.627,0,1,1,1.255,0v3.5l1.7,1.7a.627.627,0,0,1,0,.887Z"/>
    </g>
    <g id="user" transform="translate(41 424.898)">
      <g id="Group_2939" data-name="Group 2939" transform="translate(33.74)">
        <g id="Group_2938" data-name="Group 2938" transform="translate(0)">
          <path id="Path_2422" data-name="Path 2422" d="M125.11,0a4.11,4.11,0,1,0,4.11,4.11A4.115,4.115,0,0,0,125.11,0Z" transform="translate(-121)"/>
        </g>
      </g>
      <g id="Group_2941" data-name="Group 2941" transform="translate(31 9.133)">
        <g id="Group_2940" data-name="Group 2940" transform="translate(0)">
          <path id="Path_2423" data-name="Path 2423" d="M42.963,301.772a5.859,5.859,0,0,0-4.2-1.772H36.937a5.859,5.859,0,0,0-4.2,1.772A5.99,5.99,0,0,0,31,306a.457.457,0,0,0,.457.457H44.243A.457.457,0,0,0,44.7,306,5.99,5.99,0,0,0,42.963,301.772Z" transform="translate(-31 -300)"/>
        </g>
      </g>
    </g>
  </g>
</svg>
