<svg xmlns="http://www.w3.org/2000/svg" width="21.43" height="351" viewBox="0 0 21.43 351">
  <g id="Group_3097" data-name="Group 3097" transform="translate(8792 -212)">
    <g id="road-straight-line-top-view" transform="translate(-8894.092 212)">
      <g id="Group_3052" data-name="Group 3052" transform="translate(107.092)">
        <path id="Path_14396" data-name="Path 14396" d="M161.58.471h-1.065V0h-2.933V19.232h2.933v-.471h1.065v.471h2.933V0H161.58Zm0,16.258h-1.065V14.7h1.065Zm0-4.064h-1.065V10.632h1.065Zm0-4.064h-1.065V6.568h1.065Zm0-4.064h-1.065V2.5h1.065Z" transform="translate(-155.611)"/>
        <rect id="Rectangle_1235" data-name="Rectangle 1235" width="1.229" height="19.232" transform="translate(0)"/>
        <rect id="Rectangle_1236" data-name="Rectangle 1236" width="1.229" height="19.232" transform="translate(9.644)"/>
      </g>
    </g>
    <g id="hourglass" transform="translate(-8849 253.768)">
      <g id="Group_3053" data-name="Group 3053" transform="translate(61)">
        <path id="Path_14397" data-name="Path 14397" d="M69.864,6.521a7.061,7.061,0,0,0,2.7-5.557h.975V0H61V.965h.975a7.061,7.061,0,0,0,2.7,5.557c.732.668,1.147,1.076,1.147,1.711s-.414,1.043-1.147,1.711a7.061,7.061,0,0,0-2.7,5.557H61v.965H73.541V15.5h-.975a7.061,7.061,0,0,0-2.7-5.557c-.732-.668-1.147-1.076-1.147-1.711S69.132,7.189,69.864,6.521Zm-3.076,5.326a2.439,2.439,0,0,0-.44.135l-2.954,1.223a6.581,6.581,0,0,1,1.933-2.55,3.288,3.288,0,0,0,1.461-2.424Zm2.426-1.192a6.582,6.582,0,0,1,1.933,2.549l-2.954-1.223a2.439,2.439,0,0,0-.44-.135V8.232A3.288,3.288,0,0,0,69.214,10.656Zm-5.837-7.44A7.147,7.147,0,0,1,62.941.965H71.6a7.146,7.146,0,0,1-.436,2.251Z" transform="translate(-61)"/>
      </g>
    </g>
    <g id="soup" transform="translate(-8789.999 295.001)">
      <path id="Path_14398" data-name="Path 14398" d="M233.187,3.75a.468.468,0,0,1-.351-.157,1.527,1.527,0,0,1,0-2.029.59.59,0,0,0,0-.783.469.469,0,0,1,.7-.623,1.527,1.527,0,0,1,0,2.029.59.59,0,0,0,0,.783.469.469,0,0,1-.35.78Z" transform="translate(-224.219 0)"/>
      <path id="Path_14399" data-name="Path 14399" d="M163.187,3.75a.468.468,0,0,1-.351-.157,1.527,1.527,0,0,1,0-2.029.59.59,0,0,0,0-.783.469.469,0,0,1,.7-.623,1.527,1.527,0,0,1,0,2.029.59.59,0,0,0,0,.783.469.469,0,0,1-.35.78Z" transform="translate(-156.406 0)"/>
      <path id="Path_14400" data-name="Path 14400" d="M303.187,3.75a.468.468,0,0,1-.351-.157,1.527,1.527,0,0,1,0-2.029.59.59,0,0,0,0-.783.469.469,0,0,1,.7-.623,1.527,1.527,0,0,1,0,2.029.59.59,0,0,0,0,.783.469.469,0,0,1-.35.78Z" transform="translate(-292.032 0)"/>
      <g id="Group_3056" data-name="Group 3056" transform="translate(0.999 2.5)">
        <path id="Path_14401" data-name="Path 14401" d="M400.086,81.875h.433a.937.937,0,1,0,0-1.875h-.383a1.875,1.875,0,0,0-1.827,1.453l-.386,1.672H399.8Z" transform="translate(-385.519 -80)"/>
        <g id="Group_3055" data-name="Group 3055" transform="translate(0 4.062)">
          <path id="Path_14402" data-name="Path 14402" d="M1.013,210.6a8.032,8.032,0,0,0,.29,1.274h15.33a8.034,8.034,0,0,0,.29-1.274l.009-.066a.469.469,0,0,0-.464-.535h-15a.469.469,0,0,0-.464.535Z" transform="translate(-0.999 -210)"/>
          <g id="Group_3054" data-name="Group 3054" transform="translate(4.375 7.831)">
            <path id="Path_14403" data-name="Path 14403" d="M141.354,460.607l-.33.989a.469.469,0,0,0,.445.617h6.25a.469.469,0,0,0,.445-.617l-.33-.989a8.964,8.964,0,0,1-6.48,0Z" transform="translate(-141.001 -460.607)"/>
          </g>
          <path id="Path_14404" data-name="Path 14404" d="M22.258,300a8.035,8.035,0,0,0,14.609,0Z" transform="translate(-21.594 -297.188)"/>
        </g>
      </g>
    </g>
    <g id="food-tray" transform="translate(-8792 323.574)">
      <path id="Path_14405" data-name="Path 14405" d="M0,46.07a1.455,1.455,0,0,0,1.417,1.112h18.6A1.455,1.455,0,0,0,21.43,46.07Z" transform="translate(0 -20.931)"/>
      <path id="Path_14406" data-name="Path 14406" d="M14.5,18.91H14.2a8.76,8.76,0,0,0-8.741,8.4H23.236a8.763,8.763,0,0,0-8.741-8.4Z" transform="translate(-3.631 -2.867)"/>
      <path id="Path_14407" data-name="Path 14407" d="M28.8,15.3h.345v.415c.114,0,.231-.007.348-.007h.348V15.3h.348a.348.348,0,1,0,0-.7H28.8a.348.348,0,0,0,0,.7Z" transform="translate(-18.922)"/>
    </g>
    <g id="parking-sign" transform="translate(-8789 379.019)">
      <path id="Path_14408" data-name="Path 14408" d="M181.844,151.615a.615.615,0,0,0-.615-.615H180v1.229h1.229A.615.615,0,0,0,181.844,151.615Zm0,0" transform="translate(-172.624 -144.812)"/>
      <path id="Path_14409" data-name="Path 14409" d="M94.3,99.606A4.3,4.3,0,1,0,90,95.3,4.308,4.308,0,0,0,94.3,99.606Zm-1.844-7.376h2.459a1.844,1.844,0,0,1,0,3.688H93.688v2.459H92.459Zm0,0" transform="translate(-86.312 -87.271)"/>
      <path id="Path_14410" data-name="Path 14410" d="M7.991,20.981l6.389-8.15.007-.009a7.921,7.921,0,0,0,1.595-4.791A8.035,8.035,0,0,0,7.991,0,8.035,8.035,0,0,0,0,8.032a7.927,7.927,0,0,0,1.6,4.8Zm0-18.481A5.532,5.532,0,1,1,2.458,8.032,5.538,5.538,0,0,1,7.991,2.5Zm0,0"/>
    </g>
    <g id="credit-card" transform="translate(-8791 341.561)">
      <g id="Group_3058" data-name="Group 3058" transform="translate(0 81.92)">
        <g id="Group_3057" data-name="Group 3057" transform="translate(0 0)">
          <path id="Path_14411" data-name="Path 14411" d="M18,81.92H1.149A1.15,1.15,0,0,0,0,83.069V93.79a1.15,1.15,0,0,0,1.149,1.149H18a1.15,1.15,0,0,0,1.149-1.149V83.069A1.15,1.15,0,0,0,18,81.92Zm.383,11.87a.384.384,0,0,1-.383.383H1.149a.384.384,0,0,1-.383-.383V83.069a.383.383,0,0,1,.383-.383H18a.384.384,0,0,1,.383.383Z" transform="translate(0 -81.92)"/>
        </g>
      </g>
      <g id="Group_3060" data-name="Group 3060" transform="translate(0.383 85.366)">
        <g id="Group_3059" data-name="Group 3059" transform="translate(0 0)">
          <rect id="Rectangle_1237" data-name="Rectangle 1237" width="18.379" height="1.532"/>
        </g>
      </g>
      <g id="Group_3062" data-name="Group 3062" transform="translate(0 84.983)">
        <g id="Group_3061" data-name="Group 3061" transform="translate(0 0)">
          <path id="Path_14412" data-name="Path 14412" d="M18.762,163.84H.383a.383.383,0,0,0-.383.383v1.532a.383.383,0,0,0,.383.383H18.762a.383.383,0,0,0,.383-.383v-1.532A.383.383,0,0,0,18.762,163.84Zm-.383,1.532H.766v-.766H18.379Z" transform="translate(0 -163.84)"/>
        </g>
      </g>
      <g id="Group_3064" data-name="Group 3064" transform="translate(3.063 89.578)">
        <g id="Group_3063" data-name="Group 3063" transform="translate(0 0)">
          <path id="Path_14413" data-name="Path 14413" d="M89.2,286.72H82.3a.383.383,0,0,0,0,.766H89.2a.383.383,0,0,0,0-.766Z" transform="translate(-81.92 -286.72)"/>
        </g>
      </g>
      <g id="Group_3066" data-name="Group 3066" transform="translate(3.063 91.11)">
        <g id="Group_3065" data-name="Group 3065" transform="translate(0 0)">
          <path id="Path_14414" data-name="Path 14414" d="M86.132,327.68H82.3a.383.383,0,1,0,0,.766h3.829a.383.383,0,1,0,0-.766Z" transform="translate(-81.92 -327.68)"/>
        </g>
      </g>
    </g>
    <g id="price-tag" transform="translate(-8790 464.998)">
      <g id="Group_3067" data-name="Group 3067" transform="translate(0 0.002)">
        <path id="Path_14415" data-name="Path 14415" d="M16.868,0H10.495A2.135,2.135,0,0,0,9.186.544L.448,9.282a1.537,1.537,0,0,0,0,2.168l6.506,6.506a1.537,1.537,0,0,0,2.168,0L17.86,9.219A2.137,2.137,0,0,0,18.4,7.91V1.536A1.538,1.538,0,0,0,16.868,0ZM13.8,6.136A1.534,1.534,0,1,1,15.335,4.6,1.534,1.534,0,0,1,13.8,6.136Z" transform="translate(0 -0.002)"/>
      </g>
    </g>
    <g id="old-typical-phone" transform="translate(-8789 509.637)">
      <g id="Group_962" data-name="Group 962" transform="translate(0 0)">
        <path id="Path_2413" data-name="Path 2413" d="M7.85,6.867c2.6.026,4.236-.136,4.456,2.75h3.176c0-4.472-3.9-5.075-7.715-5.075S.052,5.145.052,9.617H3.2C3.447,6.675,5.267,6.841,7.85,6.867Z" transform="translate(-0.036 -4.542)"/>
        <path id="Path_2414" data-name="Path 2414" d="M1.591,23.713c.774,0,1.417.046,1.56-.715a1.942,1.942,0,0,0,.03-.356H0C0,23.774.712,23.713,1.591,23.713Z" transform="translate(0 -17.2)"/>
        <path id="Path_2415" data-name="Path 2415" d="M40.811,22.642h-.03a1.7,1.7,0,0,0,.034.356c.151.7.794.658,1.565.658.883,0,1.6.058,1.6-1.014Z" transform="translate(-28.521 -17.2)"/>
        <path id="Path_2416" data-name="Path 2416" d="M13.337,18.535v-.45c0-.2-.232-.214-.518-.214h-.467c-.286,0-.518.013-.518.214v.688H8.526v-.688c0-.2-.232-.214-.518-.214H7.541c-.286,0-.518.013-.518.214v.842a33.329,33.329,0,0,0-3.308,4.519v2.692a.452.452,0,0,0,.451.451H16.193a.452.452,0,0,0,.451-.451V23.433a33.925,33.925,0,0,0-3.307-4.506ZM8.363,23.808A.438.438,0,1,1,8.8,23.37.438.438,0,0,1,8.363,23.808Zm0-1.5a.438.438,0,1,1,.438-.438A.438.438,0,0,1,8.363,22.305Zm0-1.5a.438.438,0,1,1,.438-.438A.438.438,0,0,1,8.363,20.8Zm1.8,3.006a.438.438,0,1,1,.438-.438A.438.438,0,0,1,10.167,23.808Zm0-1.5a.438.438,0,1,1,.438-.438A.438.438,0,0,1,10.167,22.305Zm0-1.5a.438.438,0,1,1,.438-.438A.438.438,0,0,1,10.167,20.8Zm1.8,3.006a.438.438,0,1,1,.438-.438A.438.438,0,0,1,11.971,23.808Zm0-1.5a.438.438,0,1,1,.438-.438A.438.438,0,0,1,11.971,22.305Zm0-1.5a.438.438,0,1,1,.438-.438A.438.438,0,0,1,11.971,20.8Z" transform="translate(-2.598 -13.864)"/>
      </g>
    </g>
    <path id="location-pin" d="M9.1,0A6.131,6.131,0,0,0,3,6.146c0,4.816,5.528,9.788,5.763,10a.51.51,0,0,0,.677,0c.235-.209,5.763-5.182,5.763-10A6.131,6.131,0,0,0,9.1,0Zm0,9.491a3.39,3.39,0,1,1,3.39-3.39A3.394,3.394,0,0,1,9.1,9.491Z" transform="translate(-8790 546.729)"/>
  </g>
</svg>
