<svg xmlns="http://www.w3.org/2000/svg" width="67.699" height="66.335" viewBox="0 0 67.699 66.335">
  <g id="Group_2883" data-name="Group 2883" transform="translate(371.5 -1046)">
    <path id="Path_14390" data-name="Path 14390" d="M16.789,14.988H4.821a2.821,2.821,0,0,1,0-5.642H16.789a9.171,9.171,0,0,1,17.451,0H66.878a2.821,2.821,0,0,1,0,5.642H34.24a9.171,9.171,0,0,1-17.451,0Zm3.789-2.821A4.936,4.936,0,1,1,25.514,17.1,4.936,4.936,0,0,1,20.578,12.168Z" transform="translate(-373.5 1067)" fill-rule="evenodd"/>
    <path id="Path_14393" data-name="Path 14393" d="M36.789,14.988H4.821a2.821,2.821,0,0,1,0-5.642H36.789a9.171,9.171,0,0,1,17.451,0H66.878a2.821,2.821,0,0,1,0,5.642H54.24a9.171,9.171,0,0,1-17.451,0Zm3.789-2.821A4.936,4.936,0,1,1,45.514,17.1,4.936,4.936,0,0,1,40.578,12.168Z" transform="translate(-373.5 1043)" fill-rule="evenodd"/>
    <path id="Path_14394" data-name="Path 14394" d="M36.789,14.988H4.821a2.821,2.821,0,0,1,0-5.642H36.789a9.171,9.171,0,0,1,17.451,0H66.878a2.821,2.821,0,0,1,0,5.642H54.24a9.171,9.171,0,0,1-17.451,0Zm3.789-2.821A4.936,4.936,0,1,1,45.514,17.1,4.936,4.936,0,0,1,40.578,12.168Z" transform="translate(-373.5 1091)" fill-rule="evenodd"/>
  </g>
</svg>
