<svg xmlns="http://www.w3.org/2000/svg" xmlns:xlink="http://www.w3.org/1999/xlink" width="56.586" height="42.314" viewBox="0 0 56.586 42.314">
  <defs>
    <clipPath id="clip-path">
      <rect id="Rectangle_1151" data-name="Rectangle 1151" width="49.707" height="25.726" fill="none"/>
    </clipPath>
    <clipPath id="clip-path-2">
      <rect id="Rectangle_1150" data-name="Rectangle 1150" width="49.707" height="25.725" fill="none"/>
    </clipPath>
    <clipPath id="clip-path-4">
      <rect id="Rectangle_1148" data-name="Rectangle 1148" width="56.586" height="40.903" fill="none"/>
    </clipPath>
    <clipPath id="clip-path-6">
      <rect id="Rectangle_1128" data-name="Rectangle 1128" width="55.871" height="20.871" fill="none"/>
    </clipPath>
    <clipPath id="clip-path-8">
      <rect id="Rectangle_1130" data-name="Rectangle 1130" width="50.673" height="31.291" fill="none"/>
    </clipPath>
    <clipPath id="clip-path-9">
      <rect id="Rectangle_1131" data-name="Rectangle 1131" width="48.534" height="29.338" fill="none"/>
    </clipPath>
    <clipPath id="clip-path-10">
      <rect id="Rectangle_1132" data-name="Rectangle 1132" width="36.661" height="21.276" fill="none"/>
    </clipPath>
    <clipPath id="clip-path-11">
      <rect id="Rectangle_1133" data-name="Rectangle 1133" width="37.346" height="22.693" fill="none"/>
    </clipPath>
    <clipPath id="clip-path-12">
      <rect id="Rectangle_1134" data-name="Rectangle 1134" width="45.896" height="26.747" fill="none"/>
    </clipPath>
    <clipPath id="clip-path-13">
      <rect id="Rectangle_1135" data-name="Rectangle 1135" width="37.241" height="22.816" fill="none"/>
    </clipPath>
    <clipPath id="clip-path-14">
      <rect id="Rectangle_1136" data-name="Rectangle 1136" width="11.927" height="15.697" fill="none"/>
    </clipPath>
    <clipPath id="clip-path-15">
      <rect id="Rectangle_1137" data-name="Rectangle 1137" width="13.928" height="12.242" fill="none"/>
    </clipPath>
    <clipPath id="clip-path-16">
      <rect id="Rectangle_1138" data-name="Rectangle 1138" width="7.667" height="5.007" fill="none"/>
    </clipPath>
    <clipPath id="clip-path-17">
      <rect id="Rectangle_1139" data-name="Rectangle 1139" width="8.427" height="4.781" fill="none"/>
    </clipPath>
    <clipPath id="clip-path-18">
      <rect id="Rectangle_1140" data-name="Rectangle 1140" width="4.828" height="8.26" fill="none"/>
    </clipPath>
    <clipPath id="clip-path-19">
      <rect id="Rectangle_1141" data-name="Rectangle 1141" width="6.198" height="3.334" fill="none"/>
    </clipPath>
    <clipPath id="clip-path-20">
      <rect id="Rectangle_1142" data-name="Rectangle 1142" width="6.974" height="3.557" fill="none"/>
    </clipPath>
    <clipPath id="clip-path-21">
      <rect id="Rectangle_1143" data-name="Rectangle 1143" width="6.844" height="1.826" fill="none"/>
    </clipPath>
    <clipPath id="clip-path-22">
      <rect id="Rectangle_1144" data-name="Rectangle 1144" width="7.436" height="3.084" fill="none"/>
    </clipPath>
    <clipPath id="clip-path-23">
      <rect id="Rectangle_1145" data-name="Rectangle 1145" width="2.675" height="6.693" fill="none"/>
    </clipPath>
    <clipPath id="clip-path-24">
      <rect id="Rectangle_1146" data-name="Rectangle 1146" width="2.906" height="7.422" fill="none"/>
    </clipPath>
  </defs>
  <g id="Group_2872" data-name="Group 2872" transform="translate(-146.707 -1106.549)">
    <g id="Group_2871" data-name="Group 2871" transform="translate(150.146 1123.137)" opacity="0.48">
      <g id="Group_2870" data-name="Group 2870" clip-path="url(#clip-path)">
        <g id="Group_2869" data-name="Group 2869" transform="translate(0 0)">
          <g id="Group_2868" data-name="Group 2868" clip-path="url(#clip-path-2)">
            <g id="Group_2867" data-name="Group 2867" transform="translate(0 0)" style="mix-blend-mode: multiply;isolation: isolate">
              <g id="Group_2866" data-name="Group 2866">
                <g id="Group_2865" data-name="Group 2865" clip-path="url(#clip-path)">
                  <path id="Path_14368" data-name="Path 14368" d="M49.707,12.863c0,7.1-11.127,12.863-24.854,12.863S0,19.967,0,12.863,11.127,0,24.853,0,49.707,5.759,49.707,12.863" fill="#d3dbd2"/>
                </g>
              </g>
            </g>
          </g>
        </g>
      </g>
    </g>
    <g id="Group_2864" data-name="Group 2864" transform="translate(146.707 1106.549)">
      <g id="Group_2863" data-name="Group 2863" clip-path="url(#clip-path-4)">
        <g id="Group_2862" data-name="Group 2862">
          <g id="Group_2861" data-name="Group 2861" clip-path="url(#clip-path-4)">
            <path id="Path_14116" data-name="Path 14116" d="M1.137,63.709C2.484,76.071,14.9,84.58,29.072,84.58s26.588-8.508,27.935-20.871Z" transform="translate(-0.779 -43.677)" fill="#ccc"/>
            <g id="Group_2806" data-name="Group 2806" transform="translate(0.358 20.032)" opacity="0.8" style="mix-blend-mode: multiply;isolation: isolate">
              <g id="Group_2805" data-name="Group 2805">
                <g id="Group_2804" data-name="Group 2804" clip-path="url(#clip-path-6)">
                  <path id="Path_14117" data-name="Path 14117" d="M1.137,63.709C2.484,76.071,14.9,84.58,29.072,84.58s26.588-8.508,27.935-20.871Z" transform="translate(-1.137 -63.709)" fill="#ccc"/>
                </g>
              </g>
            </g>
            <g id="Group_2809" data-name="Group 2809" transform="translate(0.358 20.032)" opacity="0.8" style="mix-blend-mode: multiply;isolation: isolate">
              <g id="Group_2808" data-name="Group 2808">
                <g id="Group_2807" data-name="Group 2807" clip-path="url(#clip-path-6)">
                  <path id="Path_14118" data-name="Path 14118" d="M1.137,63.709a19.968,19.968,0,0,0,.714,3.538l48.806,2.6c-1.8,8.5-14.513,13.732-28.665,12.979a49.962,49.962,0,0,1-5.358-.574A33.739,33.739,0,0,0,29.072,84.58c14.172,0,26.588-8.508,27.935-20.871Z" transform="translate(-1.137 -63.709)" fill="#ccc"/>
                </g>
              </g>
            </g>
            <path id="Path_14119" data-name="Path 14119" d="M56.586,18.626c0,10.287-12.667,18.626-28.293,18.626S0,28.913,0,18.626,12.667,0,28.293,0,56.586,8.339,56.586,18.626" fill="#fff"/>
            <path id="Path_14120" data-name="Path 14120" d="M58.558,20.991c0,9.644-11.876,17.461-26.524,17.461S5.51,30.635,5.51,20.991,17.385,3.53,32.034,3.53s26.524,7.818,26.524,17.461" transform="translate(-3.777 -2.42)" fill="#ccc"/>
            <g id="Group_2812" data-name="Group 2812" transform="translate(1.769 4.796)" opacity="0.8" style="mix-blend-mode: multiply;isolation: isolate">
              <g id="Group_2811" data-name="Group 2811">
                <g id="Group_2810" data-name="Group 2810" clip-path="url(#clip-path-8)">
                  <path id="Path_14121" data-name="Path 14121" d="M40.107,39.945c-14.649,0-26.524-7.818-26.524-17.461a12.623,12.623,0,0,1,2.375-7.231c-6.284,3.193-10.332,8.2-10.332,13.83,0,9.644,11.875,17.461,26.524,17.461,10.731,0,19.973-4.2,24.149-10.23a36.046,36.046,0,0,1-16.192,3.631" transform="translate(-5.625 -15.253)" fill="#ccc"/>
                </g>
              </g>
            </g>
            <path id="Path_14122" data-name="Path 14122" d="M37.071,20.369c-13.4,0-24.267,7.152-24.267,15.976a11.048,11.048,0,0,0,1.083,4.732c4.531,5.353,13.215,8.975,23.184,8.975s18.653-3.622,23.184-8.975a11.048,11.048,0,0,0,1.083-4.732c0-8.823-10.865-15.976-24.267-15.976" transform="translate(-8.778 -13.964)" fill="#d26200"/>
            <g id="Group_2815" data-name="Group 2815" transform="translate(4.026 6.749)" opacity="0.3" style="mix-blend-mode: multiply;isolation: isolate">
              <g id="Group_2814" data-name="Group 2814">
                <g id="Group_2813" data-name="Group 2813" clip-path="url(#clip-path-9)">
                  <path id="Path_14123" data-name="Path 14123" d="M55.67,26.834a3.4,3.4,0,0,0-.364.518,1.545,1.545,0,0,0-.318.933,1,1,0,0,0,.377.633c.373.314.881.477,1.178.879a1.026,1.026,0,0,1,.094.153,5.37,5.37,0,0,1,.213.931,3.519,3.519,0,0,0,.837,1.222,7.052,7.052,0,0,1,1.659,4.029,2.037,2.037,0,0,1-.166,1.135,4.421,4.421,0,0,1-.952.938,7.622,7.622,0,0,0-1.268,2.137,2.659,2.659,0,0,1-1.8,1.587c-.9.122-1.708-.541-2.583-.8a4.076,4.076,0,0,0-3.112.491,12.089,12.089,0,0,0-2.485,2.06l-1.754,1.741A4.721,4.721,0,0,1,43.9,46.447a3.523,3.523,0,0,1-1.405.263c-1.74.024-3.451-.605-5.187-.486-1.453.1-2.853.722-4.308.661a4.726,4.726,0,0,1-3.938-2.539A12.358,12.358,0,0,0,27.8,41.672c-1.034-1.2-2.881-1.234-4.442-.945s-3.179.795-4.7.329c-2.107-.646-3.228-2.9-3.99-4.964a3.982,3.982,0,0,1-.352-2.054c.282-1.544,2.066-2.189,3.4-3.011a7.588,7.588,0,0,0,2.2-2.066c.382-.54.753-1.176,1.389-1.356.877-.249,1.743.551,2.024,1.418a19.793,19.793,0,0,1,.351,2.706,4.992,4.992,0,0,0,3,3.691.906.906,0,0,0,.723.055.868.868,0,0,0,.362-.444,3.563,3.563,0,0,0,.267-2.106,7.162,7.162,0,0,1,2.1,2.473,2.452,2.452,0,0,1-.64,2.951,2.2,2.2,0,0,1-1.4.32,9.5,9.5,0,0,0,2.12.243,4.389,4.389,0,0,0,3.086-1.171,5.446,5.446,0,0,0,1.25-2.722,7.9,7.9,0,0,0,.088-3.51,3.962,3.962,0,0,0-2.081-2.715c-.762-.344-1.641-.373-2.389-.747a3.424,3.424,0,0,1-1.757-2.758,1.424,1.424,0,0,1,.09-.746A1.713,1.713,0,0,1,29,24.008l3.046-2.544C21.055,22.988,12.805,29.407,12.805,37.1a11.05,11.05,0,0,0,1.082,4.732C18.418,47.18,27.1,50.8,37.072,50.8s18.653-3.622,23.184-8.975A11.05,11.05,0,0,0,61.339,37.1c0-3.907-2.132-7.486-5.669-10.261" transform="translate(-12.805 -21.464)" fill="#d26200"/>
                </g>
              </g>
            </g>
            <g id="Group_2818" data-name="Group 2818" transform="translate(4.026 14.811)" opacity="0.6" style="mix-blend-mode: multiply;isolation: isolate">
              <g id="Group_2817" data-name="Group 2817">
                <g id="Group_2816" data-name="Group 2816" clip-path="url(#clip-path-10)">
                  <path id="Path_14124" data-name="Path 14124" d="M41.948,67.072c-14.649,0-26.524-7.818-26.524-17.461a11.716,11.716,0,0,1,.273-2.5,11.889,11.889,0,0,0-2.892,7.569,11.046,11.046,0,0,0,1.083,4.732c4.531,5.353,13.215,8.975,23.184,8.975a37.8,37.8,0,0,0,12.394-2.023,39.49,39.49,0,0,1-7.518.712" transform="translate(-12.805 -47.106)" fill="#d26200"/>
                </g>
              </g>
            </g>
            <g id="Group_2821" data-name="Group 2821" transform="translate(10.337 9.728)" opacity="0.2" style="mix-blend-mode: multiply;isolation: isolate">
              <g id="Group_2820" data-name="Group 2820">
                <g id="Group_2819" data-name="Group 2819" clip-path="url(#clip-path-11)">
                  <path id="Path_14125" data-name="Path 14125" d="M112.138,92.512l.1.08a.52.52,0,0,0,.261.07l.138-.018a.521.521,0,0,0,.228-.131l.06-.06a.518.518,0,0,0,0-.72l-.1-.08a.522.522,0,0,0-.261-.069l-.137.018a.517.517,0,0,0-.228.131l-.061.059a.519.519,0,0,0,0,.721" transform="translate(-87.111 -72.514)" fill="#943400"/>
                  <path id="Path_14126" data-name="Path 14126" d="M93.841,96.531l.1.08a.52.52,0,0,0,.261.07h.121a.393.393,0,0,0,.2-.044.388.388,0,0,0,.167-.105.563.563,0,0,0,.152-.36l-.019-.136a.507.507,0,0,0-.133-.225l-.1-.08a.517.517,0,0,0-.261-.069h-.121a.58.58,0,0,0-.366.149.564.564,0,0,0-.152.36l.019.136a.507.507,0,0,0,.133.225" transform="translate(-74.567 -75.31)" fill="#943400"/>
                  <path id="Path_14127" data-name="Path 14127" d="M82.71,95.6l.019.136a.507.507,0,0,0,.133.225l.1.08a.519.519,0,0,0,.261.069h.031a.58.58,0,0,0,.366-.149.564.564,0,0,0,.152-.36l-.019-.136a.507.507,0,0,0-.133-.225l-.1-.08a.517.517,0,0,0-.261-.069h-.031a.394.394,0,0,0-.2.044.387.387,0,0,0-.166.105.564.564,0,0,0-.152.36" transform="translate(-67.04 -74.92)" fill="#943400"/>
                  <path id="Path_14128" data-name="Path 14128" d="M62.116,90.984a.393.393,0,0,0,.176-.091.385.385,0,0,0,.133-.143l.052-.122a.507.507,0,0,0,0-.271.535.535,0,0,0-.238-.3l-.515-.3a.389.389,0,0,0-.192-.061.4.4,0,0,0-.206.009.578.578,0,0,0-.309.234l-.052.122a.508.508,0,0,0,0,.271.534.534,0,0,0,.238.3l.515.3a.391.391,0,0,0,.192.06.4.4,0,0,0,.206-.009" transform="translate(-52.12 -71.212)" fill="#943400"/>
                  <path id="Path_14129" data-name="Path 14129" d="M136.747,79.181l-.137-.018a.524.524,0,0,0-.261.069l-.121.09a.39.39,0,0,0-.145.131.385.385,0,0,0-.092.173.38.38,0,0,0-.009.2.376.376,0,0,0,.061.189l.081.1a.517.517,0,0,0,.228.131l.137.018a.521.521,0,0,0,.261-.07l.121-.089a.388.388,0,0,0,.145-.131.453.453,0,0,0,.1-.376.373.373,0,0,0-.061-.189l-.081-.1a.517.517,0,0,0-.228-.131" transform="translate(-103.554 -63.999)" fill="#943400"/>
                  <path id="Path_14130" data-name="Path 14130" d="M106.139,84.684a.464.464,0,0,0,.274-.269.379.379,0,0,0,.044-.2l-.018-.136a.512.512,0,0,0-.133-.225l-.1-.08a.521.521,0,0,0-.261-.069h-.273a.58.58,0,0,0-.366.149.564.564,0,0,0-.152.36l.019.136a.507.507,0,0,0,.133.225l.1.08a.52.52,0,0,0,.261.07h.273a.394.394,0,0,0,.2-.044" transform="translate(-82.424 -67.116)" fill="#943400"/>
                  <path id="Path_14131" data-name="Path 14131" d="M79.781,79.741l.1.08a.521.521,0,0,0,.261.07h.061a.4.4,0,0,0,.2-.044.39.39,0,0,0,.166-.105.567.567,0,0,0,.152-.36l-.019-.136a.505.505,0,0,0-.133-.225l-.1-.08a.52.52,0,0,0-.261-.069h-.061a.4.4,0,0,0-.2.044.39.39,0,0,0-.166.105.56.56,0,0,0-.152.36l.018.136a.51.51,0,0,0,.133.225" transform="translate(-64.928 -63.799)" fill="#943400"/>
                  <path id="Path_14132" data-name="Path 14132" d="M58.035,74.958a.51.51,0,0,0,0-1.019.51.51,0,0,0,0,1.019" transform="translate(-49.781 -60.418)" fill="#943400"/>
                  <path id="Path_14133" data-name="Path 14133" d="M45.466,81.689a.5.5,0,0,0-.071-.257l-.08-.159a.579.579,0,0,0-.309-.234.393.393,0,0,0-.206-.009.386.386,0,0,0-.192.06l-.1.08a.507.507,0,0,0-.133.225c-.006.045-.013.091-.019.136a.5.5,0,0,0,.071.257l.08.159a.577.577,0,0,0,.309.234.4.4,0,0,0,.206.009.388.388,0,0,0,.192-.061l.1-.08a.507.507,0,0,0,.133-.225Z" transform="translate(-40.742 -65.273)" fill="#943400"/>
                  <path id="Path_14134" data-name="Path 14134" d="M32.894,67.009l.233.719a.537.537,0,0,0,.238.3.389.389,0,0,0,.192.061.4.4,0,0,0,.206-.009.522.522,0,0,0,.309-.234.51.51,0,0,0,.052-.393l-.233-.719a.538.538,0,0,0-.238-.3.388.388,0,0,0-.192-.06.394.394,0,0,0-.206.009.522.522,0,0,0-.309.234.51.51,0,0,0-.052.393" transform="translate(-32.875 -55.224)" fill="#943400"/>
                  <path id="Path_14135" data-name="Path 14135" d="M33.29,54.554a.386.386,0,0,0,.145.131l.124.052a.528.528,0,0,0,.274,0l.124-.052a.514.514,0,0,0,.186-.183c.027-.053.054-.106.081-.159a.374.374,0,0,0,.062-.189.456.456,0,0,0-.1-.377.391.391,0,0,0-.146-.131l-.124-.051a.524.524,0,0,0-.275,0l-.124.051a.517.517,0,0,0-.186.183c-.026.053-.054.106-.081.159a.379.379,0,0,0-.061.19.45.45,0,0,0,.1.376" transform="translate(-33.082 -46.458)" fill="#943400"/>
                  <path id="Path_14136" data-name="Path 14136" d="M117.544,65.338a.4.4,0,0,0-.2.044.387.387,0,0,0-.166.105.563.563,0,0,0-.152.36c.006.045.012.091.019.136a.505.505,0,0,0,.133.225l.1.08a.522.522,0,0,0,.261.069h.081a.4.4,0,0,0,.2-.044.387.387,0,0,0,.166-.105.563.563,0,0,0,.152-.36l-.019-.135a.505.505,0,0,0-.133-.225l-.1-.08a.522.522,0,0,0-.261-.069Z" transform="translate(-90.567 -54.522)" fill="#943400"/>
                  <path id="Path_14137" data-name="Path 14137" d="M73.433,62.817a.463.463,0,0,0-.337.192.38.38,0,0,0-.093.173l-.018.136a.5.5,0,0,0,.07.257.522.522,0,0,0,.309.234l.525.119a.4.4,0,0,0,.206.009.528.528,0,0,0,.43-.365l.019-.136a.5.5,0,0,0-.07-.257.524.524,0,0,0-.309-.234l-.525-.119a.4.4,0,0,0-.206-.009" transform="translate(-60.373 -52.787)" fill="#943400"/>
                  <path id="Path_14138" data-name="Path 14138" d="M60.937,57.608l.1.08a.52.52,0,0,0,.261.07h.041a.4.4,0,0,0,.2-.044.462.462,0,0,0,.273-.269.382.382,0,0,0,.045-.2l-.019-.136a.507.507,0,0,0-.133-.225l-.1-.08a.52.52,0,0,0-.261-.069H61.3a.578.578,0,0,0-.366.149.564.564,0,0,0-.152.36l.019.136a.507.507,0,0,0,.133.225" transform="translate(-52.009 -48.625)" fill="#943400"/>
                  <path id="Path_14139" data-name="Path 14139" d="M64.514,45.06l1.009-.08a.558.558,0,0,0,.366-.149.513.513,0,0,0,.151-.36.513.513,0,0,0-.517-.509l-1.009.08a.556.556,0,0,0-.366.149.51.51,0,0,0,.366.87" transform="translate(-54.21 -39.866)" fill="#943400"/>
                  <path id="Path_14140" data-name="Path 14140" d="M94.707,44.707l.1.08a.52.52,0,0,0,.261.07h.162a.4.4,0,0,0,.2-.044.387.387,0,0,0,.166-.105.565.565,0,0,0,.152-.36c-.006-.045-.012-.09-.019-.136a.507.507,0,0,0-.133-.225l-.1-.08a.519.519,0,0,0-.261-.069h-.162a.578.578,0,0,0-.366.149.564.564,0,0,0-.152.36l.019.136a.507.507,0,0,0,.133.225" transform="translate(-75.161 -39.781)" fill="#943400"/>
                  <path id="Path_14141" data-name="Path 14141" d="M135.838,52.9a.578.578,0,0,0,.309.234.4.4,0,0,0,.206.009.389.389,0,0,0,.192-.061l.1-.08a.507.507,0,0,0,.133-.225l.019-.136a.5.5,0,0,0-.071-.257l-.121-.2a.386.386,0,0,0-.133-.143.392.392,0,0,0-.176-.091.4.4,0,0,0-.206-.009.392.392,0,0,0-.192.06l-.1.08a.506.506,0,0,0-.133.225l-.019.136a.5.5,0,0,0,.071.257l.121.2" transform="translate(-103.332 -45.33)" fill="#943400"/>
                  <path id="Path_14142" data-name="Path 14142" d="M141.5,70.4a.517.517,0,0,0,.186.183l.121.08a.389.389,0,0,0,.192.061.4.4,0,0,0,.206-.009.393.393,0,0,0,.176-.091.388.388,0,0,0,.133-.143l.052-.122a.5.5,0,0,0,0-.271l-.052-.122a.516.516,0,0,0-.186-.183l-.121-.08a.385.385,0,0,0-.192-.06.394.394,0,0,0-.206.009.58.58,0,0,0-.309.234l-.052.122a.508.508,0,0,0,0,.271l.052.122" transform="translate(-107.293 -57.469)" fill="#943400"/>
                  <path id="Path_14143" data-name="Path 14143" d="M126.035,38.658a.515.515,0,0,0,.228.131l.444.081a.393.393,0,0,0,.206.009.463.463,0,0,0,.337-.192.379.379,0,0,0,.093-.173c.006-.045.012-.09.019-.135a.5.5,0,0,0-.071-.257l-.081-.1a.523.523,0,0,0-.228-.131l-.444-.081a.4.4,0,0,0-.206-.009.465.465,0,0,0-.338.191.386.386,0,0,0-.092.174l-.019.136a.5.5,0,0,0,.071.257l.081.1" transform="translate(-96.638 -35.634)" fill="#943400"/>
                  <path id="Path_14144" data-name="Path 14144" d="M95.735,32.312l.1.08a.523.523,0,0,0,.261.07h.242a.4.4,0,0,0,.2-.044.387.387,0,0,0,.166-.106.562.562,0,0,0,.152-.36c-.006-.045-.012-.09-.019-.136a.509.509,0,0,0-.133-.225l-.1-.08a.523.523,0,0,0-.261-.069H96.1a.4.4,0,0,0-.2.044.392.392,0,0,0-.166.105.565.565,0,0,0-.152.36l.019.136a.5.5,0,0,0,.133.225" transform="translate(-75.866 -31.283)" fill="#943400"/>
                  <path id="Path_14145" data-name="Path 14145" d="M66,34.987a.578.578,0,0,0,.309.234l.138.018a.521.521,0,0,0,.261-.07l.1-.08a.507.507,0,0,0,.133-.225l.041-.119a.383.383,0,0,0,.009-.2.376.376,0,0,0-.061-.189.578.578,0,0,0-.309-.234l-.138-.018a.521.521,0,0,0-.261.07l-.1.08a.507.507,0,0,0-.133.225l-.041.119a.382.382,0,0,0-.009.2.376.376,0,0,0,.061.19" transform="translate(-55.535 -33.106)" fill="#943400"/>
                  <path id="Path_14146" data-name="Path 14146" d="M44.87,44.369l.1.08.006,0a.5.5,0,0,0,.463.71.516.516,0,0,0,.314-.916l.246-.2a.518.518,0,0,0,0-.72l-.1-.08a.522.522,0,0,0-.261-.069L45.5,43.2a.517.517,0,0,0-.228.131l-.4.32a.519.519,0,0,0,0,.721" transform="translate(-40.994 -39.33)" fill="#943400"/>
                  <path id="Path_14147" data-name="Path 14147" d="M44.116,62.486a.389.389,0,0,0,.166.105.4.4,0,0,0,.2.044l.138-.018a.521.521,0,0,0,.228-.131l.081-.1A.5.5,0,0,0,45,62.126v-.2a.38.38,0,0,0-.045-.2.461.461,0,0,0-.274-.269.394.394,0,0,0-.2-.044l-.137.018a.517.517,0,0,0-.228.131l-.081.1a.5.5,0,0,0-.071.257v.2a.563.563,0,0,0,.152.36" transform="translate(-40.477 -51.833)" fill="#943400"/>
                  <path id="Path_14148" data-name="Path 14148" d="M88.135,66.86l.019.136a.507.507,0,0,0,.133.225l.1.08a.519.519,0,0,0,.261.069h.283a.394.394,0,0,0,.2-.044.39.39,0,0,0,.166-.105.56.56,0,0,0,.152-.36l-.019-.136A.507.507,0,0,0,89.3,66.5l-.1-.08a.516.516,0,0,0-.261-.069h-.283a.4.4,0,0,0-.2.044.387.387,0,0,0-.166.105.565.565,0,0,0-.152.36" transform="translate(-70.759 -55.215)" fill="#943400"/>
                  <path id="Path_14149" data-name="Path 14149" d="M102.587,59.561a.516.516,0,0,0,.186.183l.124.052a.53.53,0,0,0,.275,0l.525-.159a.54.54,0,0,0,.309-.234.374.374,0,0,0,.062-.189.38.38,0,0,0-.009-.2l-.052-.122a.516.516,0,0,0-.186-.183l-.124-.051a.522.522,0,0,0-.275,0l-.525.159a.54.54,0,0,0-.309.234.376.376,0,0,0-.061.19.382.382,0,0,0,.009.2l.052.122" transform="translate(-80.619 -49.926)" fill="#943400"/>
                  <path id="Path_14150" data-name="Path 14150" d="M131.151,70.694a.565.565,0,0,0,.152.36.387.387,0,0,0,.166.105.394.394,0,0,0,.2.044l.137-.018a.517.517,0,0,0,.228-.131l.081-.1a.5.5,0,0,0,.07-.257v-.04a.558.558,0,0,0-.152-.36.385.385,0,0,0-.166-.105.394.394,0,0,0-.2-.044l-.137.018a.518.518,0,0,0-.228.131l-.081.1a.5.5,0,0,0-.071.257Z" transform="translate(-100.25 -57.816)" fill="#943400"/>
                  <path id="Path_14151" data-name="Path 14151" d="M124.159,81.489a.516.516,0,0,0,.186.183l.124.052a.53.53,0,0,0,.275,0l.323-.08a.393.393,0,0,0,.176-.091.388.388,0,0,0,.133-.143.374.374,0,0,0,.062-.189.38.38,0,0,0-.009-.2l-.052-.122a.517.517,0,0,0-.186-.183l-.124-.051a.524.524,0,0,0-.275,0l-.323.08a.58.58,0,0,0-.309.234.376.376,0,0,0-.061.19.382.382,0,0,0,.009.2l.052.122" transform="translate(-95.408 -65.014)" fill="#943400"/>
                  <path id="Path_14152" data-name="Path 14152" d="M99.092,80.144a.51.51,0,0,0,0-1.019.51.51,0,0,0,0,1.019" transform="translate(-77.929 -63.973)" fill="#943400"/>
                  <path id="Path_14153" data-name="Path 14153" d="M76,87.136a.461.461,0,0,0-.274.269.377.377,0,0,0-.044.2l.018.136a.513.513,0,0,0,.133.225l.1.08a.518.518,0,0,0,.261.069h.2a.394.394,0,0,0,.2-.044.39.39,0,0,0,.166-.105.565.565,0,0,0,.152-.36l-.019-.136a.507.507,0,0,0-.133-.225l-.1-.08a.516.516,0,0,0-.261-.069h-.2a.394.394,0,0,0-.2.044" transform="translate(-62.221 -69.435)" fill="#943400"/>
                  <path id="Path_14154" data-name="Path 14154" d="M64.552,85.7a.51.51,0,0,0,0,1.019.51.51,0,0,0,0-1.019" transform="translate(-54.249 -68.482)" fill="#943400"/>
                  <path id="Path_14155" data-name="Path 14155" d="M121.74,95.567a.511.511,0,0,0,.185.183l.124.052a.53.53,0,0,0,.275,0l.2-.083a.391.391,0,0,0,.176-.091.386.386,0,0,0,.133-.143.562.562,0,0,0,.052-.392l-.052-.122a.516.516,0,0,0-.186-.183l-.124-.051a.529.529,0,0,0-.275,0l-.2.083a.388.388,0,0,0-.176.091.382.382,0,0,0-.133.143.374.374,0,0,0-.062.19.379.379,0,0,0,.009.2l.052.122" transform="translate(-93.749 -74.663)" fill="#943400"/>
                  <path id="Path_14156" data-name="Path 14156" d="M132.564,88.6a.4.4,0,0,0-.176.091.387.387,0,0,0-.133.143.563.563,0,0,0-.052.392l.052.122a.515.515,0,0,0,.186.183l.124.051a.524.524,0,0,0,.275,0l.2-.08a.583.583,0,0,0,.309-.234.567.567,0,0,0,.052-.393l-.052-.122a.516.516,0,0,0-.186-.182l-.124-.052a.529.529,0,0,0-.275,0l-.2.08" transform="translate(-100.958 -70.399)" fill="#943400"/>
                  <path id="Path_14157" data-name="Path 14157" d="M139.266,85.255a.451.451,0,0,0,.1.376.39.39,0,0,0,.145.131l.124.051a.53.53,0,0,0,.275,0l.124-.051a.515.515,0,0,0,.186-.183l.163-.238a.376.376,0,0,0,.061-.189.38.38,0,0,0-.009-.2.385.385,0,0,0-.092-.173.39.39,0,0,0-.145-.131l-.124-.051a.523.523,0,0,0-.275,0l-.124.051a.514.514,0,0,0-.186.183l-.163.238a.376.376,0,0,0-.061.19" transform="translate(-105.807 -67.71)" fill="#943400"/>
                  <path id="Path_14158" data-name="Path 14158" d="M148.509,66.912a.389.389,0,0,0,.166.105.4.4,0,0,0,.2.044l.138-.018a.521.521,0,0,0,.228-.131l.081-.1a.5.5,0,0,0,.071-.257v-.2a.564.564,0,0,0-.152-.36.388.388,0,0,0-.167-.105.394.394,0,0,0-.2-.044l-.137.018a.517.517,0,0,0-.228.131l-.081.1a.5.5,0,0,0-.071.257v.2a.563.563,0,0,0,.152.36" transform="translate(-112.046 -54.868)" fill="#943400"/>
                  <path id="Path_14159" data-name="Path 14159" d="M142.347,49.134l.2.2a.389.389,0,0,0,.166.105.473.473,0,0,0,.4,0,.388.388,0,0,0,.167-.105l.081-.1a.5.5,0,0,0,.071-.257c-.006-.045-.013-.09-.019-.135a.505.505,0,0,0-.133-.225l-.2-.2a.388.388,0,0,0-.167-.105.476.476,0,0,0-.4,0,.389.389,0,0,0-.166.105l-.081.1a.5.5,0,0,0-.071.257l.019.136a.507.507,0,0,0,.133.225" transform="translate(-107.821 -42.816)" fill="#943400"/>
                  <path id="Path_14160" data-name="Path 14160" d="M107.182,34.233a.51.51,0,0,0,0-1.019.51.51,0,0,0,0,1.019" transform="translate(-83.475 -32.498)" fill="#943400"/>
                  <path id="Path_14161" data-name="Path 14161" d="M84.839,31.956a.51.51,0,0,0,0-1.019.51.51,0,0,0,0,1.019" transform="translate(-68.158 -30.937)" fill="#943400"/>
                  <path id="Path_14162" data-name="Path 14162" d="M85.867,50.042a.51.51,0,0,0,0-1.019.51.51,0,0,0,0,1.019" transform="translate(-68.862 -43.336)" fill="#943400"/>
                  <path id="Path_14163" data-name="Path 14163" d="M46.832,71.283a.51.51,0,0,0,0,1.019.51.51,0,0,0,0-1.019" transform="translate(-42.101 -58.597)" fill="#943400"/>
                  <path id="Path_14164" data-name="Path 14164" d="M51.069,87.1a.51.51,0,0,0,0-1.019.51.51,0,0,0,0,1.019" transform="translate(-45.006 -68.742)" fill="#943400"/>
                  <path id="Path_14165" data-name="Path 14165" d="M74.054,96.831a.51.51,0,0,0,0,1.019.51.51,0,0,0,0-1.019" transform="translate(-60.763 -76.112)" fill="#943400"/>
                  <path id="Path_14166" data-name="Path 14166" d="M65.25,97.035a.517.517,0,0,0-.186-.183l-.162-.08a.389.389,0,0,0-.192-.061.4.4,0,0,0-.207.009.578.578,0,0,0-.309.234l-.052.122a.509.509,0,0,0,0,.271l.052.122a.517.517,0,0,0,.186.183l.161.08a.385.385,0,0,0,.192.06.4.4,0,0,0,.206-.009.392.392,0,0,0,.176-.092.385.385,0,0,0,.133-.143l.052-.122a.508.508,0,0,0,0-.271l-.052-.122" transform="translate(-54.299 -76.024)" fill="#943400"/>
                  <path id="Path_14167" data-name="Path 14167" d="M48.244,90.515a.51.51,0,0,0,0-1.019.51.51,0,0,0,0,1.019" transform="translate(-43.069 -71.083)" fill="#943400"/>
                  <path id="Path_14168" data-name="Path 14168" d="M42.319,87.33l.081.08a.387.387,0,0,0,.166.105.474.474,0,0,0,.4,0,.387.387,0,0,0,.166-.105l.081-.1a.5.5,0,0,0,.07-.257l-.018-.136a.511.511,0,0,0-.133-.225l-.08-.08a.58.58,0,0,0-.366-.149.578.578,0,0,0-.366.149l-.081.1a.5.5,0,0,0-.071.257l.019.136a.505.505,0,0,0,.133.225" transform="translate(-39.245 -69.002)" fill="#943400"/>
                  <path id="Path_14169" data-name="Path 14169" d="M98.763,100.015l-.1-.08a.519.519,0,0,0-.261-.07h-.242a.393.393,0,0,0-.2.044.388.388,0,0,0-.167.105.563.563,0,0,0-.152.36l.019.136a.509.509,0,0,0,.133.225l.1.08a.52.52,0,0,0,.261.069H98.4a.578.578,0,0,0,.366-.149.564.564,0,0,0,.152-.36l-.019-.136a.507.507,0,0,0-.133-.225" transform="translate(-77.274 -78.192)" fill="#943400"/>
                  <path id="Path_14170" data-name="Path 14170" d="M107.937,96.849l-.162.04a.579.579,0,0,0-.309.234.376.376,0,0,0-.061.19.382.382,0,0,0,.009.2l.052.122a.514.514,0,0,0,.186.183l.124.052a.53.53,0,0,0,.275,0l.162-.04a.392.392,0,0,0,.176-.091.388.388,0,0,0,.133-.143.376.376,0,0,0,.061-.19.382.382,0,0,0-.009-.2l-.052-.122a.517.517,0,0,0-.186-.183l-.124-.051a.53.53,0,0,0-.275,0" transform="translate(-83.964 -76.112)" fill="#943400"/>
                  <path id="Path_14171" data-name="Path 14171" d="M111.657,96.689l.1.08a.519.519,0,0,0,.261.07h.081a.394.394,0,0,0,.2-.044.387.387,0,0,0,.166-.105.383.383,0,0,0,.107-.164.377.377,0,0,0,.044-.2l-.018-.136a.512.512,0,0,0-.133-.225l-.1-.08a.521.521,0,0,0-.261-.069h-.081a.578.578,0,0,0-.366.149.565.565,0,0,0-.152.36l.019.136a.507.507,0,0,0,.133.225" transform="translate(-86.781 -75.418)" fill="#943400"/>
                  <path id="Path_14172" data-name="Path 14172" d="M56.543,61.561a.39.39,0,0,0-.176.091.384.384,0,0,0-.133.143l-.052.122a.507.507,0,0,0,0,.271l.052.122a.515.515,0,0,0,.186.183l.121.08a.392.392,0,0,0,.192.06.4.4,0,0,0,.206-.009.39.39,0,0,0,.176-.091.384.384,0,0,0,.133-.143l.052-.122a.507.507,0,0,0,0-.271l-.052-.122a.515.515,0,0,0-.186-.183l-.121-.08a.391.391,0,0,0-.192-.06.4.4,0,0,0-.206.009" transform="translate(-48.841 -51.92)" fill="#943400"/>
                  <path id="Path_14173" data-name="Path 14173" d="M55.435,34.359a.51.51,0,0,0,0-1.019.51.51,0,0,0,0,1.019" transform="translate(-47.999 -32.585)" fill="#943400"/>
                  <path id="Path_14174" data-name="Path 14174" d="M54.022,46.88a.51.51,0,0,0,0-1.019.51.51,0,0,0,0,1.019" transform="translate(-47.03 -41.169)" fill="#943400"/>
                  <path id="Path_14175" data-name="Path 14175" d="M50.794,52.675l.04.04a.58.58,0,0,0,.366.149.4.4,0,0,0,.2-.044.39.39,0,0,0,.166-.105l.081-.1a.5.5,0,0,0,.071-.257l-.019-.136a.505.505,0,0,0-.133-.225l-.04-.04a.58.58,0,0,0-.366-.149.578.578,0,0,0-.366.149l-.081.1a.5.5,0,0,0-.071.257l.019.136a.507.507,0,0,0,.133.225" transform="translate(-45.055 -45.244)" fill="#943400"/>
                  <path id="Path_14176" data-name="Path 14176" d="M72.623,52.675l.04.04a.537.537,0,0,0,.732,0l.081-.1a.5.5,0,0,0,.071-.257c-.006-.045-.012-.091-.019-.136a.505.505,0,0,0-.133-.225l-.04-.04a.538.538,0,0,0-.732,0l-.081.1a.5.5,0,0,0-.071.257l.019.136a.507.507,0,0,0,.133.225" transform="translate(-60.021 -45.244)" fill="#943400"/>
                  <path id="Path_14177" data-name="Path 14177" d="M89.443,59.884l.1.08a.52.52,0,0,0,.261.07h.081a.4.4,0,0,0,.2-.044.464.464,0,0,0,.274-.269.379.379,0,0,0,.044-.2l-.018-.136a.51.51,0,0,0-.133-.225l-.1-.08a.521.521,0,0,0-.261-.069h-.081a.58.58,0,0,0-.366.149.565.565,0,0,0-.152.36l.019.136a.507.507,0,0,0,.133.225" transform="translate(-71.552 -50.186)" fill="#943400"/>
                  <path id="Path_14178" data-name="Path 14178" d="M116.941,50.928a.51.51,0,0,0,0-1.019.51.51,0,0,0,0,1.019" transform="translate(-90.166 -43.944)" fill="#943400"/>
                  <path id="Path_14179" data-name="Path 14179" d="M128.6,57.768a.4.4,0,0,0-.206-.009.392.392,0,0,0-.192.06l-.1.08a.505.505,0,0,0-.133.225l-.018.136a.5.5,0,0,0,.07.257l.041.079a.385.385,0,0,0,.133.143.541.541,0,0,0,.574.04l.1-.08a.505.505,0,0,0,.133-.225c.006-.045.013-.09.019-.135a.5.5,0,0,0-.07-.257l-.041-.08a.385.385,0,0,0-.133-.143.393.393,0,0,0-.176-.091" transform="translate(-98.05 -49.319)" fill="#943400"/>
                </g>
              </g>
            </g>
            <g id="Group_2824" data-name="Group 2824" transform="translate(5.036 7.641)" opacity="0.3" style="mix-blend-mode: multiply;isolation: isolate">
              <g id="Group_2823" data-name="Group 2823">
                <g id="Group_2822" data-name="Group 2822" clip-path="url(#clip-path-12)">
                  <path id="Path_14180" data-name="Path 14180" d="M119.337,38.805a.249.249,0,0,0,0,.5.249.249,0,0,0,0-.5" transform="translate(-86.685 -34.244)" fill="#d26200"/>
                  <path id="Path_14181" data-name="Path 14181" d="M129.868,33.356a.249.249,0,0,0,0-.5.243.243,0,0,0-.111.026.285.285,0,0,0-.02-.191.243.243,0,1,0-.1.346.241.241,0,0,0,.229.317" transform="translate(-93.674 -29.802)" fill="#d26200"/>
                  <path id="Path_14182" data-name="Path 14182" d="M141.558,42.046a.249.249,0,0,0,0,.5.249.249,0,0,0,0-.5" transform="translate(-101.919 -36.466)" fill="#d26200"/>
                  <path id="Path_14183" data-name="Path 14183" d="M154.829,68.9a.249.249,0,0,0,0,.5.249.249,0,0,0,0-.5" transform="translate(-111.018 -54.874)" fill="#d26200"/>
                  <path id="Path_14184" data-name="Path 14184" d="M130.756,92.969a.249.249,0,0,0,0,.5.249.249,0,0,0,0-.5" transform="translate(-94.514 -71.377)" fill="#d26200"/>
                  <path id="Path_14185" data-name="Path 14185" d="M91.561,94.358a.249.249,0,0,0,0,.5.249.249,0,0,0,0-.5" transform="translate(-67.642 -72.33)" fill="#d26200"/>
                  <path id="Path_14186" data-name="Path 14186" d="M60.544,89.883a.249.249,0,0,0,0,.5.249.249,0,0,0,0-.5" transform="translate(-46.378 -69.262)" fill="#d26200"/>
                  <path id="Path_14187" data-name="Path 14187" d="M49.209,73.088A.188.188,0,0,0,49.164,73,.223.223,0,0,0,49,72.909a.19.19,0,0,0-.1,0l-.059.025a.253.253,0,0,0-.089.089l-.025.059a.249.249,0,0,0,0,.132l.051.242a.28.28,0,0,0,.114.149.279.279,0,0,0,.191.025l.059-.025a.248.248,0,0,0,.089-.089l.025-.059a.254.254,0,0,0,0-.132l-.051-.242" transform="translate(-38.437 -57.622)" fill="#d26200"/>
                  <path id="Path_14188" data-name="Path 14188" d="M54.988,54.237a.249.249,0,0,0,0,.5.249.249,0,0,0,0-.5" transform="translate(-42.57 -44.824)" fill="#d26200"/>
                  <path id="Path_14189" data-name="Path 14189" d="M86.931,46.709a.249.249,0,0,0,0-.5.249.249,0,0,0,0,.5" transform="translate(-64.469 -39.322)" fill="#d26200"/>
                  <path id="Path_14190" data-name="Path 14190" d="M107.918,55.78a.249.249,0,0,0,0,.5.249.249,0,0,0,0-.5" transform="translate(-78.857 -45.882)" fill="#d26200"/>
                  <path id="Path_14191" data-name="Path 14191" d="M112.7,72.017a.249.249,0,0,0,0-.5.249.249,0,0,0,0,.5" transform="translate(-82.136 -56.673)" fill="#d26200"/>
                  <path id="Path_14192" data-name="Path 14192" d="M99.585,83.865a.249.249,0,0,0,0,.5.249.249,0,0,0,0-.5" transform="translate(-73.144 -65.136)" fill="#d26200"/>
                  <path id="Path_14193" data-name="Path 14193" d="M78.135,85.254a.249.249,0,0,0,0,.5.249.249,0,0,0,0-.5" transform="translate(-58.438 -66.088)" fill="#d26200"/>
                  <path id="Path_14194" data-name="Path 14194" d="M57.92,82.013a.249.249,0,0,0,0,.5.249.249,0,0,0,0-.5" transform="translate(-44.579 -63.866)" fill="#d26200"/>
                  <path id="Path_14195" data-name="Path 14195" d="M42.643,87.568a.249.249,0,0,0,0,.5.249.249,0,0,0,0-.5" transform="translate(-34.106 -67.675)" fill="#d26200"/>
                  <path id="Path_14196" data-name="Path 14196" d="M30.648,90.777a.19.19,0,0,0-.064-.07.185.185,0,0,0-.085-.044.19.19,0,0,0-.1,0,.185.185,0,0,0-.092.03l-.05.039a.251.251,0,0,0-.064.11c0,.022-.006.044-.009.066a.25.25,0,0,0,.034.125l.1.146a.281.281,0,0,0,.148.114.191.191,0,0,0,.1,0,.186.186,0,0,0,.092-.03l.05-.039a.245.245,0,0,0,.064-.11l.009-.066a.25.25,0,0,0-.034-.125l-.1-.146" transform="translate(-25.73 -69.79)" fill="#d26200"/>
                  <path id="Path_14197" data-name="Path 14197" d="M20.932,78.115a.25.25,0,0,0,.11-.064.259.259,0,0,0,.073-.176v-.242a.279.279,0,0,0-.073-.176.184.184,0,0,0-.08-.052.188.188,0,0,0-.1-.021l-.066.009a.252.252,0,0,0-.11.064.258.258,0,0,0-.073.176v.242a.255.255,0,0,0,.249.249Z" transform="translate(-19.171 -60.693)" fill="#d26200"/>
                  <path id="Path_14198" data-name="Path 14198" d="M23.021,63.135a.19.19,0,0,0-.07-.064l-.059-.025a.248.248,0,0,0-.132,0l-.059.025a.251.251,0,0,0-.089.089l-.1.194a.184.184,0,0,0-.03.092.256.256,0,0,0,.119.248l.059.025a.248.248,0,0,0,.132,0l.059-.025a.251.251,0,0,0,.089-.089l.1-.194a.184.184,0,0,0,.03-.092.222.222,0,0,0-.049-.184" transform="translate(-20.448 -50.857)" fill="#d26200"/>
                  <path id="Path_14199" data-name="Path 14199" d="M31.757,48.853l.066.009a.244.244,0,0,0,.125-.034l.34-.146a.184.184,0,0,0,.069-.064.257.257,0,0,0,.019-.276.251.251,0,0,0-.148-.114l-.066-.009a.246.246,0,0,0-.125.034l-.34.145a.19.19,0,0,0-.07.064.258.258,0,0,0-.019.276.251.251,0,0,0,.149.114" transform="translate(-26.682 -40.698)" fill="#d26200"/>
                  <path id="Path_14200" data-name="Path 14200" d="M47.735,36.336a.249.249,0,0,0,0,.5.249.249,0,0,0,0-.5" transform="translate(-37.597 -32.552)" fill="#d26200"/>
                  <path id="Path_14201" data-name="Path 14201" d="M60.812,31.668l.05.039a.251.251,0,0,0,.125.034h.1a.187.187,0,0,0,.1-.022.184.184,0,0,0,.08-.051.276.276,0,0,0,.073-.176c0-.022-.006-.044-.009-.066a.248.248,0,0,0-.064-.109l-.05-.039a.244.244,0,0,0-.125-.034h-.1a.188.188,0,0,0-.1.021.186.186,0,0,0-.08.052.182.182,0,0,0-.051.08.186.186,0,0,0-.022.1l.009.066a.247.247,0,0,0,.064.11" transform="translate(-46.676 -29.06)" fill="#d26200"/>
                  <path id="Path_14202" data-name="Path 14202" d="M75.975,29.118a.249.249,0,0,0,0-.5.249.249,0,0,0,0,.5" transform="translate(-56.957 -27.262)" fill="#d26200"/>
                  <path id="Path_14203" data-name="Path 14203" d="M95.881,25.535a.249.249,0,0,0,0,.5.249.249,0,0,0,0-.5" transform="translate(-70.604 -25.147)" fill="#d26200"/>
                  <path id="Path_14204" data-name="Path 14204" d="M109.615,27.386a.249.249,0,0,0,0,.5.249.249,0,0,0,0-.5" transform="translate(-80.02 -26.416)" fill="#d26200"/>
                  <path id="Path_14205" data-name="Path 14205" d="M142.484,46.367a.249.249,0,0,0,0,.5.249.249,0,0,0,0-.5" transform="translate(-102.554 -39.428)" fill="#d26200"/>
                  <path id="Path_14206" data-name="Path 14206" d="M153.749,66.119a.249.249,0,0,0,0,.5.249.249,0,0,0,0-.5" transform="translate(-110.277 -52.97)" fill="#d26200"/>
                  <path id="Path_14207" data-name="Path 14207" d="M149.891,76.766a.249.249,0,0,0,0,.5.249.249,0,0,0,0-.5" transform="translate(-107.632 -60.269)" fill="#d26200"/>
                  <path id="Path_14208" data-name="Path 14208" d="M146.5,90.037a.249.249,0,0,0,0,.5.249.249,0,0,0,0-.5" transform="translate(-105.304 -69.367)" fill="#d26200"/>
                  <path id="Path_14209" data-name="Path 14209" d="M137.546,98.37a.249.249,0,0,0,0,.5.249.249,0,0,0,0-.5" transform="translate(-99.169 -75.08)" fill="#d26200"/>
                  <path id="Path_14210" data-name="Path 14210" d="M125.972,101.457a.249.249,0,0,0,0,.5.249.249,0,0,0,0-.5" transform="translate(-91.234 -77.197)" fill="#d26200"/>
                  <path id="Path_14211" data-name="Path 14211" d="M113.782,104.234a.249.249,0,0,0,0,.5.249.249,0,0,0,0-.5" transform="translate(-82.877 -79.1)" fill="#d26200"/>
                  <path id="Path_14212" data-name="Path 14212" d="M96.444,107.239l-.05-.039a.252.252,0,0,0-.125-.034h-.1a.19.19,0,0,0-.1.021.256.256,0,0,0-.153.227l.009.066a.25.25,0,0,0,.064.109l.05.039a.244.244,0,0,0,.125.034h.1a.188.188,0,0,0,.1-.021.186.186,0,0,0,.08-.052.182.182,0,0,0,.051-.08.186.186,0,0,0,.022-.1l-.009-.066a.247.247,0,0,0-.064-.11" transform="translate(-70.797 -81.11)" fill="#d26200"/>
                  <path id="Path_14213" data-name="Path 14213" d="M75.512,107.783a.249.249,0,0,0,0,.5.249.249,0,0,0,0-.5" transform="translate(-56.64 -81.534)" fill="#d26200"/>
                  <path id="Path_14214" data-name="Path 14214" d="M58.537,107.629a.249.249,0,0,0,0,.5.249.249,0,0,0,0-.5" transform="translate(-45.003 -81.428)" fill="#d26200"/>
                  <path id="Path_14215" data-name="Path 14215" d="M45.56,101.319a.25.25,0,0,0-.089-.089l-.1-.048a.186.186,0,0,0-.092-.03.223.223,0,0,0-.184.049.187.187,0,0,0-.064.07l-.025.059a.248.248,0,0,0,0,.132l.025.059a.25.25,0,0,0,.089.089l.1.048a.186.186,0,0,0,.092.03.256.256,0,0,0,.248-.119l.025-.059a.254.254,0,0,0,0-.132l-.025-.059" transform="translate(-35.886 -76.984)" fill="#d26200"/>
                  <path id="Path_14216" data-name="Path 14216" d="M36.936,95.2a.283.283,0,0,0-.176-.073l-.066.009a.247.247,0,0,0-.109.064l-.039.051a.244.244,0,0,0-.034.125v.049a.189.189,0,0,0,.021.1.224.224,0,0,0,.131.131.189.189,0,0,0,.1.021l.066-.009a.247.247,0,0,0,.11-.064l.039-.05a.252.252,0,0,0,.034-.125v-.049a.283.283,0,0,0-.073-.176" transform="translate(-30.067 -72.859)" fill="#d26200"/>
                  <path id="Path_14217" data-name="Path 14217" d="M41.2,72.136a.186.186,0,0,0-.052-.08l-.05-.039a.244.244,0,0,0-.125-.034l-.066.009a.25.25,0,0,0-.11.064l-.048.049a.186.186,0,0,0-.052.08.226.226,0,0,0,0,.192.186.186,0,0,0,.052.08l.05.039a.25.25,0,0,0,.125.034l.066-.009a.251.251,0,0,0,.11-.064l.048-.048a.186.186,0,0,0,.052-.08.225.225,0,0,0,0-.191" transform="translate(-32.924 -56.99)" fill="#d26200"/>
                  <path id="Path_14218" data-name="Path 14218" d="M40.282,62.711l.582-.291a.249.249,0,0,0-.059-.454.275.275,0,0,0-.192.025l-.582.291a.249.249,0,0,0,.059.455.274.274,0,0,0,.191-.025" transform="translate(-32.396 -50.117)" fill="#d26200"/>
                  <path id="Path_14219" data-name="Path 14219" d="M77.036,56.894h.048a.189.189,0,0,0,.1-.021.224.224,0,0,0,.131-.131.189.189,0,0,0,.021-.1l-.009-.066a.253.253,0,0,0-.064-.11l-.051-.039a.25.25,0,0,0-.125-.034h-.048a.19.19,0,0,0-.1.021.226.226,0,0,0-.131.131.19.19,0,0,0-.021.1l.009.066a.249.249,0,0,0,.064.11l.05.039a.247.247,0,0,0,.125.034" transform="translate(-57.679 -46.304)" fill="#d26200"/>
                  <path id="Path_14220" data-name="Path 14220" d="M88.32,68.125a.249.249,0,0,0,0,.5.249.249,0,0,0,0-.5" transform="translate(-65.421 -54.345)" fill="#d26200"/>
                  <path id="Path_14221" data-name="Path 14221" d="M92.641,76.3a.249.249,0,0,0,0,.5.249.249,0,0,0,0-.5" transform="translate(-68.383 -59.952)" fill="#d26200"/>
                  <path id="Path_14222" data-name="Path 14222" d="M87.34,87.892l-.1-.1a.241.241,0,0,0-.272-.051.187.187,0,0,0-.08.051l-.039.05a.252.252,0,0,0-.034.126l.009.066a.247.247,0,0,0,.064.11l.1.1a.183.183,0,0,0,.08.052.225.225,0,0,0,.191,0,.184.184,0,0,0,.08-.052l.039-.05a.25.25,0,0,0,.034-.125L87.4,88a.247.247,0,0,0-.064-.11" transform="translate(-64.556 -67.781)" fill="#d26200"/>
                  <path id="Path_14223" data-name="Path 14223" d="M106.06,95.82a.247.247,0,0,0-.11-.064l-.066-.009a.25.25,0,0,0-.125.034l-.146.1a.239.239,0,0,0-.119.248.186.186,0,0,0,.03.092l.039.05a.245.245,0,0,0,.11.064l.066.009a.25.25,0,0,0,.125-.034l.146-.1a.19.19,0,0,0,.07-.064.185.185,0,0,0,.044-.084.188.188,0,0,0,0-.1.182.182,0,0,0-.029-.092l-.039-.05" transform="translate(-77.356 -73.282)" fill="#d26200"/>
                  <path id="Path_14224" data-name="Path 14224" d="M125.4,89.494a.25.25,0,0,0,.11-.064l.048-.049a.186.186,0,0,0,.052-.08.226.226,0,0,0,0-.192.186.186,0,0,0-.052-.08l-.05-.039a.25.25,0,0,0-.125-.034l-.066.009a.249.249,0,0,0-.11.064l-.049.048a.257.257,0,0,0,0,.352l.051.039a.244.244,0,0,0,.125.034l.066-.009" transform="translate(-90.792 -68.627)" fill="#d26200"/>
                  <path id="Path_14225" data-name="Path 14225" d="M133.845,73.753a.281.281,0,0,0-.176-.073l-.066.009a.246.246,0,0,0-.109.064l-.039.05a.245.245,0,0,0-.034.125v.049a.255.255,0,0,0,.249.248l.066-.009a.247.247,0,0,0,.11-.064l.039-.05a.252.252,0,0,0,.034-.125v-.049a.281.281,0,0,0-.073-.176" transform="translate(-96.505 -58.153)" fill="#d26200"/>
                  <path id="Path_14226" data-name="Path 14226" d="M134.1,59.093l-.05-.039a.25.25,0,0,0-.125-.034l-.066.009a.245.245,0,0,0-.11.064l-.1.1a.186.186,0,0,0-.052.08.255.255,0,0,0,.052.272l.05.039a.25.25,0,0,0,.125.034l.066-.009a.249.249,0,0,0,.11-.064l.1-.1a.182.182,0,0,0,.051-.08.257.257,0,0,0-.051-.272" transform="translate(-96.611 -48.103)" fill="#d26200"/>
                  <path id="Path_14227" data-name="Path 14227" d="M127.207,49.145a.249.249,0,0,0,0,.5.249.249,0,0,0,0-.5" transform="translate(-92.081 -41.333)" fill="#d26200"/>
                  <path id="Path_14228" data-name="Path 14228" d="M119.8,51.339a.249.249,0,0,0,0-.5.249.249,0,0,0,0,.5" transform="translate(-87.002 -42.496)" fill="#d26200"/>
                  <path id="Path_14229" data-name="Path 14229" d="M116.559,61.8a.249.249,0,0,0,0,.5.249.249,0,0,0,0-.5" transform="translate(-84.781 -50.008)" fill="#d26200"/>
                  <path id="Path_14230" data-name="Path 14230" d="M108.689,65.5a.249.249,0,0,0,0,.5.249.249,0,0,0,0-.5" transform="translate(-79.385 -52.547)" fill="#d26200"/>
                  <path id="Path_14231" data-name="Path 14231" d="M92.332,71.52a.249.249,0,0,0,0,.5.249.249,0,0,0,0-.5" transform="translate(-68.171 -56.673)" fill="#d26200"/>
                  <path id="Path_14232" data-name="Path 14232" d="M91.829,56.919l.05.039a.25.25,0,0,0,.125.034l.066-.009a.245.245,0,0,0,.11-.064l.1-.1a.182.182,0,0,0,.051-.08.223.223,0,0,0,0-.192.184.184,0,0,0-.051-.08l-.05-.039A.251.251,0,0,0,92.1,56.4l-.066.009a.245.245,0,0,0-.11.064l-.1.1a.186.186,0,0,0-.052.08.225.225,0,0,0,0,.191.187.187,0,0,0,.052.08" transform="translate(-67.941 -46.305)" fill="#d26200"/>
                  <path id="Path_14233" data-name="Path 14233" d="M98.968,47.756a.249.249,0,0,0,0,.5.249.249,0,0,0,0-.5" transform="translate(-72.72 -40.381)" fill="#d26200"/>
                  <path id="Path_14234" data-name="Path 14234" d="M102.98,41.429a.249.249,0,0,0,0,.5.249.249,0,0,0,0-.5" transform="translate(-75.471 -36.043)" fill="#d26200"/>
                  <path id="Path_14235" data-name="Path 14235" d="M84.925,35.719a.249.249,0,0,0,0,.5.249.249,0,0,0,0-.5" transform="translate(-63.093 -32.129)" fill="#d26200"/>
                  <path id="Path_14236" data-name="Path 14236" d="M75.975,39.3a.249.249,0,0,0,0-.5.249.249,0,0,0,0,.5" transform="translate(-56.957 -34.244)" fill="#d26200"/>
                  <path id="Path_14237" data-name="Path 14237" d="M72.271,45.132a.249.249,0,0,0,0,.5.249.249,0,0,0,0-.5" transform="translate(-54.418 -38.582)" fill="#d26200"/>
                  <path id="Path_14238" data-name="Path 14238" d="M61.778,45.441a.249.249,0,0,0,0,.5.249.249,0,0,0,0-.5" transform="translate(-47.225 -38.794)" fill="#d26200"/>
                  <path id="Path_14239" data-name="Path 14239" d="M54.478,45.075l.146-.1a.257.257,0,0,0,.089-.34l-.039-.05a.25.25,0,0,0-.11-.064l-.066-.009a.244.244,0,0,0-.125.034l-.146.1a.185.185,0,0,0-.07.064.223.223,0,0,0-.049.184.185.185,0,0,0,.03.092l.039.05a.25.25,0,0,0,.109.064l.066.009a.248.248,0,0,0,.125-.034" transform="translate(-42.127 -38.159)" fill="#d26200"/>
                  <path id="Path_14240" data-name="Path 14240" d="M39.248,50.842a.249.249,0,0,0,0,.5.249.249,0,0,0,0-.5" transform="translate(-31.778 -42.496)" fill="#d26200"/>
                  <path id="Path_14241" data-name="Path 14241" d="M32.843,61.566v-.291a.19.19,0,0,0-.021-.1.226.226,0,0,0-.131-.131.189.189,0,0,0-.1-.021.251.251,0,0,0-.176.073.259.259,0,0,0-.073.176v.291a.19.19,0,0,0,.021.1.226.226,0,0,0,.131.131.19.19,0,0,0,.1.021.251.251,0,0,0,.176-.073.259.259,0,0,0,.073-.176" transform="translate(-27.211 -49.478)" fill="#d26200"/>
                  <path id="Path_14242" data-name="Path 14242" d="M31.378,70.131a.249.249,0,0,0,0,.5.249.249,0,0,0,0-.5" transform="translate(-26.383 -55.72)" fill="#d26200"/>
                  <path id="Path_14243" data-name="Path 14243" d="M33.384,81.4a.249.249,0,0,0,0,.5.249.249,0,0,0,0-.5" transform="translate(-27.758 -63.443)" fill="#d26200"/>
                  <path id="Path_14244" data-name="Path 14244" d="M67.642,78.773a.249.249,0,0,0,0,.5.249.249,0,0,0,0-.5" transform="translate(-51.245 -61.645)" fill="#d26200"/>
                  <path id="Path_14245" data-name="Path 14245" d="M77.521,76.768l.039-.05a.25.25,0,0,0,.034-.125V76.4a.256.256,0,0,0-.249-.249l-.066.009a.247.247,0,0,0-.109.064l-.039.05a.246.246,0,0,0-.034.126v.194a.188.188,0,0,0,.021.1.224.224,0,0,0,.131.131.186.186,0,0,0,.1.022l.066-.009a.247.247,0,0,0,.11-.064" transform="translate(-57.891 -59.847)" fill="#d26200"/>
                  <path id="Path_14246" data-name="Path 14246" d="M73.815,67.508a.249.249,0,0,0,0,.5.249.249,0,0,0,0-.5" transform="translate(-55.476 -53.922)" fill="#d26200"/>
                  <path id="Path_14247" data-name="Path 14247" d="M65.173,63.958a.249.249,0,0,0,0,.5.249.249,0,0,0,0-.5" transform="translate(-49.552 -51.488)" fill="#d26200"/>
                  <path id="Path_14248" data-name="Path 14248" d="M65.37,52.149a.247.247,0,0,0-.11-.064l-.066-.009a.25.25,0,0,0-.125.034l-.194.1a.19.19,0,0,0-.07.064.224.224,0,0,0-.049.184.186.186,0,0,0,.03.092l.039.05a.247.247,0,0,0,.11.064l.066.009a.252.252,0,0,0,.125-.034l.194-.1a.19.19,0,0,0,.07-.064.185.185,0,0,0,.044-.084.188.188,0,0,0,0-.1.185.185,0,0,0-.029-.092l-.039-.05" transform="translate(-49.427 -43.342)" fill="#d26200"/>
                  <path id="Path_14249" data-name="Path 14249" d="M82.229,42.015a.25.25,0,0,0-.089-.089L82.08,41.9a.248.248,0,0,0-.132,0l-.194.048a.185.185,0,0,0-.085.044.19.19,0,0,0-.064.07.186.186,0,0,0-.03.092.191.191,0,0,0,0,.1l.025.059a.25.25,0,0,0,.089.089l.059.025a.248.248,0,0,0,.132,0l.194-.048a.188.188,0,0,0,.085-.045.19.19,0,0,0,.064-.07.185.185,0,0,0,.03-.092.19.19,0,0,0,0-.1l-.025-.059" transform="translate(-60.959 -36.36)" fill="#d26200"/>
                  <path id="Path_14250" data-name="Path 14250" d="M107.918,43.932a.249.249,0,0,0,0-.5.249.249,0,0,0,0,.5" transform="translate(-78.857 -37.418)" fill="#d26200"/>
                  <path id="Path_14251" data-name="Path 14251" d="M112.044,46.019l.048.048a.256.256,0,0,0,.352,0l.039-.05a.244.244,0,0,0,.034-.125l-.009-.066a.247.247,0,0,0-.064-.11l-.049-.048a.186.186,0,0,0-.08-.052.225.225,0,0,0-.191,0,.187.187,0,0,0-.08.052l-.039.05a.25.25,0,0,0-.034.125l.009.066a.247.247,0,0,0,.064.11" transform="translate(-81.8 -38.899)" fill="#d26200"/>
                  <path id="Path_14252" data-name="Path 14252" d="M117.639,57.169a.249.249,0,0,0,0,.5.249.249,0,0,0,0-.5" transform="translate(-85.521 -46.834)" fill="#d26200"/>
                  <path id="Path_14253" data-name="Path 14253" d="M132.917,71.245a.249.249,0,0,0,0-.5.249.249,0,0,0,0,.5" transform="translate(-95.995 -56.143)" fill="#d26200"/>
                  <path id="Path_14254" data-name="Path 14254" d="M132.608,76.921a.249.249,0,0,0,0,.5.249.249,0,0,0,0-.5" transform="translate(-95.783 -60.375)" fill="#d26200"/>
                  <path id="Path_14255" data-name="Path 14255" d="M112.084,84.636a.249.249,0,0,0,0,.5.249.249,0,0,0,0-.5" transform="translate(-81.713 -65.665)" fill="#d26200"/>
                  <path id="Path_14256" data-name="Path 14256" d="M111.776,89.729a.249.249,0,0,0,0,.5.249.249,0,0,0,0-.5" transform="translate(-81.502 -69.156)" fill="#d26200"/>
                  <path id="Path_14257" data-name="Path 14257" d="M144.956,76.994a.183.183,0,0,0-.08-.051.185.185,0,0,0-.1-.022l-.066.009a.245.245,0,0,0-.11.064l-.039.05a.245.245,0,0,0-.034.125v.049a.276.276,0,0,0,.073.176.276.276,0,0,0,.176.073l.066-.009a.247.247,0,0,0,.11-.064l.039-.05a.252.252,0,0,0,.034-.125v-.049a.276.276,0,0,0-.073-.176" transform="translate(-104.122 -60.375)" fill="#d26200"/>
                  <path id="Path_14258" data-name="Path 14258" d="M145.107,58.1a.249.249,0,0,0,0,.5.249.249,0,0,0,0-.5" transform="translate(-104.352 -47.469)" fill="#d26200"/>
                  <path id="Path_14259" data-name="Path 14259" d="M152.98,53.784l.048-.048a.256.256,0,0,0,0-.352l-.05-.039a.244.244,0,0,0-.125-.034l-.066.009a.247.247,0,0,0-.11.064l-.048.049a.183.183,0,0,0-.052.08.225.225,0,0,0,0,.191.184.184,0,0,0,.052.08l.05.039a.25.25,0,0,0,.125.034l.066-.009a.247.247,0,0,0,.11-.064" transform="translate(-109.623 -44.189)" fill="#d26200"/>
                  <path id="Path_14260" data-name="Path 14260" d="M153.9,48.561a.249.249,0,0,0,0-.5.249.249,0,0,0,0,.5" transform="translate(-110.383 -40.592)" fill="#d26200"/>
                  <path id="Path_14261" data-name="Path 14261" d="M143.564,38.651a.249.249,0,0,0,0,.5.249.249,0,0,0,0-.5" transform="translate(-103.295 -34.139)" fill="#d26200"/>
                  <path id="Path_14262" data-name="Path 14262" d="M116.251,30.627a.249.249,0,0,0,0,.5.249.249,0,0,0,0-.5" transform="translate(-84.569 -28.638)" fill="#d26200"/>
                  <path id="Path_14263" data-name="Path 14263" d="M100.2,28.312a.249.249,0,0,0,0,.5.249.249,0,0,0,0-.5" transform="translate(-73.567 -27.051)" fill="#d26200"/>
                  <path id="Path_14264" data-name="Path 14264" d="M80.759,27.386a.249.249,0,0,0,0,.5.249.249,0,0,0,0-.5" transform="translate(-60.237 -26.416)" fill="#d26200"/>
                  <path id="Path_14265" data-name="Path 14265" d="M72.606,25.38a.225.225,0,0,0-.221.151c-.008,0-.014,0-.021-.005l-.728-.048a.25.25,0,0,0-.249.249.254.254,0,0,0,.249.248l.728.049a.247.247,0,0,0,.227-.149.146.146,0,0,0,.016,0,.249.249,0,0,0,0-.5" transform="translate(-53.976 -25.04)" fill="#d26200"/>
                  <path id="Path_14266" data-name="Path 14266" d="M46.964,33.4a.249.249,0,0,0,0,.5.249.249,0,0,0,0-.5" transform="translate(-37.068 -30.541)" fill="#d26200"/>
                  <path id="Path_14267" data-name="Path 14267" d="M31.841,40.228a.249.249,0,0,0,0-.5.249.249,0,0,0,0,.5" transform="translate(-26.701 -34.879)" fill="#d26200"/>
                  <path id="Path_14268" data-name="Path 14268" d="M24.283,54.927a.276.276,0,0,0-.176-.073l-.066.009a.244.244,0,0,0-.109.064l-.039.05a.244.244,0,0,0-.034.125v.049a.189.189,0,0,0,.021.1.255.255,0,0,0,.227.153l.066-.009a.247.247,0,0,0,.11-.064l.039-.05a.252.252,0,0,0,.034-.125V55.1a.185.185,0,0,0-.022-.1.183.183,0,0,0-.051-.08" transform="translate(-21.393 -45.247)" fill="#d26200"/>
                  <path id="Path_14269" data-name="Path 14269" d="M16.256,73.835a.249.249,0,0,0,0,.5.249.249,0,0,0,0-.5" transform="translate(-16.016 -58.26)" fill="#d26200"/>
                  <path id="Path_14270" data-name="Path 14270" d="M21.5,84.328a.249.249,0,0,0,0,.5.249.249,0,0,0,0-.5" transform="translate(-19.612 -65.453)" fill="#d26200"/>
                  <path id="Path_14271" data-name="Path 14271" d="M28.6,92.2a.249.249,0,0,0,0,.5.249.249,0,0,0,0-.5" transform="translate(-24.479 -70.849)" fill="#d26200"/>
                  <path id="Path_14272" data-name="Path 14272" d="M86.314,100.222a.249.249,0,0,0,0,.5.249.249,0,0,0,0-.5" transform="translate(-64.046 -76.35)" fill="#d26200"/>
                  <path id="Path_14273" data-name="Path 14273" d="M99.276,102.383a.249.249,0,0,0,0,.5.249.249,0,0,0,0-.5" transform="translate(-72.932 -77.831)" fill="#d26200"/>
                  <path id="Path_14274" data-name="Path 14274" d="M121.652,81.55a.249.249,0,0,0,0,.5.249.249,0,0,0,0-.5" transform="translate(-88.272 -63.549)" fill="#d26200"/>
                  <path id="Path_14275" data-name="Path 14275" d="M120.106,74.6a.188.188,0,0,0-.051-.08L120,74.486a.244.244,0,0,0-.125-.034l-.066.009a.25.25,0,0,0-.11.064l-.1.1a.256.256,0,0,0,0,.352l.05.039a.244.244,0,0,0,.125.034l.066-.009a.253.253,0,0,0,.11-.064l.1-.1a.241.241,0,0,0,.051-.272" transform="translate(-86.984 -58.683)" fill="#d26200"/>
                  <path id="Path_14276" data-name="Path 14276" d="M149.582,83.865a.249.249,0,0,0,0,.5.249.249,0,0,0,0-.5" transform="translate(-107.42 -65.136)" fill="#d26200"/>
                  <path id="Path_14277" data-name="Path 14277" d="M157.861,79.771l-.05-.039a.251.251,0,0,0-.126-.034l-.066.009a.247.247,0,0,0-.11.064l-.1.1a.18.18,0,0,0-.052.08.223.223,0,0,0,0,.192.182.182,0,0,0,.052.08l.05.039a.251.251,0,0,0,.125.034l.066-.009a.244.244,0,0,0,.11-.064l.1-.1a.281.281,0,0,0,.073-.176.281.281,0,0,0-.073-.176" transform="translate(-112.903 -62.279)" fill="#d26200"/>
                  <path id="Path_14278" data-name="Path 14278" d="M160.693,70.319a.249.249,0,0,0,0-.5.249.249,0,0,0,0,.5" transform="translate(-115.038 -55.509)" fill="#d26200"/>
                  <path id="Path_14279" data-name="Path 14279" d="M159.921,58.249a.249.249,0,0,0,0,.5.249.249,0,0,0,0-.5" transform="translate(-114.509 -47.574)" fill="#d26200"/>
                  <path id="Path_14280" data-name="Path 14280" d="M160.539,72.137a.249.249,0,0,0,0,.5.249.249,0,0,0,0-.5" transform="translate(-114.932 -57.096)" fill="#d26200"/>
                  <path id="Path_14281" data-name="Path 14281" d="M149.428,93.278a.249.249,0,0,0,0,.5.249.249,0,0,0,0-.5" transform="translate(-107.315 -71.589)" fill="#d26200"/>
                  <path id="Path_14282" data-name="Path 14282" d="M139.243,98.679a.249.249,0,0,0,0,.5.249.249,0,0,0,0-.5" transform="translate(-100.332 -75.292)" fill="#d26200"/>
                  <path id="Path_14283" data-name="Path 14283" d="M123.658,102.845a.249.249,0,0,0,0,.5.249.249,0,0,0,0-.5" transform="translate(-89.647 -78.148)" fill="#d26200"/>
                  <path id="Path_14284" data-name="Path 14284" d="M96.635,82.476a.25.25,0,0,0-.176.073.258.258,0,0,0-.073.176v.437a.256.256,0,0,0,.073.176.249.249,0,0,0,.352,0,.259.259,0,0,0,.073-.176v-.437a.255.255,0,0,0-.073-.176.251.251,0,0,0-.176-.073" transform="translate(-71.115 -64.183)" fill="#d26200"/>
                  <path id="Path_14285" data-name="Path 14285" d="M96.344,54.271a.249.249,0,0,0,0-.5.249.249,0,0,0,0,.5" transform="translate(-70.922 -44.507)" fill="#d26200"/>
                  <path id="Path_14286" data-name="Path 14286" d="M96.961,66.273a.249.249,0,0,0,0,.5.249.249,0,0,0,0-.5" transform="translate(-71.345 -53.075)" fill="#d26200"/>
                  <path id="Path_14287" data-name="Path 14287" d="M101.591,69.668a.249.249,0,0,0,0,.5.249.249,0,0,0,0-.5" transform="translate(-74.519 -55.403)" fill="#d26200"/>
                  <path id="Path_14288" data-name="Path 14288" d="M104.677,74.606a.249.249,0,0,0,0,.5.249.249,0,0,0,0-.5" transform="translate(-76.635 -58.788)" fill="#d26200"/>
                  <path id="Path_14289" data-name="Path 14289" d="M122.423,29.392a.249.249,0,0,0,0,.5.249.249,0,0,0,0-.5" transform="translate(-88.801 -27.791)" fill="#d26200"/>
                  <path id="Path_14290" data-name="Path 14290" d="M94.647,24.3a.249.249,0,0,0,0,.5.249.249,0,0,0,0-.5" transform="translate(-69.759 -24.3)" fill="#d26200"/>
                  <path id="Path_14291" data-name="Path 14291" d="M81.993,50.07a.249.249,0,0,0,0,.5.249.249,0,0,0,0-.5" transform="translate(-61.083 -41.967)" fill="#d26200"/>
                </g>
              </g>
            </g>
            <g id="Group_2827" data-name="Group 2827" transform="translate(10.304 9.377)" opacity="0.51">
              <g id="Group_2826" data-name="Group 2826">
                <g id="Group_2825" data-name="Group 2825" clip-path="url(#clip-path-13)">
                  <path id="Path_14292" data-name="Path 14292" d="M64.807,31.129c.343,0,.677-.008,1,.01.161.018.324.028.485.053s.323.048.48.095a7.126,7.126,0,0,1,1.827.743A19.766,19.766,0,0,1,71.8,34.463a17.921,17.921,0,0,0-3.068-2.643,7.33,7.33,0,0,0-1.87-.849c-.164-.055-.337-.08-.506-.119s-.344-.048-.516-.071c-.347-.029-.687-.026-1.017-.04a4.024,4.024,0,0,1-.953-.134c-.311-.083-.62-.2-.939-.316a6.146,6.146,0,0,0-1-.289,5.741,5.741,0,0,0-1.046-.087c-.694,0-1.369.093-2.031.142a12.278,12.278,0,0,1-1.979-.016,23.147,23.147,0,0,0-4.07-.171,5.435,5.435,0,0,0-2.014.571c-.313.171-.588.373-.864.543a3.748,3.748,0,0,1-.872.4c-.618.2-1.3.312-1.943.571a13.11,13.11,0,0,0-1.828.905c-.585.339-1.146.713-1.717,1.071s-1.136.724-1.7,1.092c2.387-1.245,4.6-2.866,7.3-3.27a4.174,4.174,0,0,0,.971-.412c.3-.176.573-.37.855-.516a5,5,0,0,1,1.857-.488,23.581,23.581,0,0,1,3.986.2,12.624,12.624,0,0,0,2.054,0c.68-.056,1.343-.145,2-.156a5.312,5.312,0,0,1,.965.063,5.7,5.7,0,0,1,.938.254c.316.107.638.226.98.309a4.45,4.45,0,0,0,1.045.118" transform="translate(-39 -29.822)" fill="#f7a34f"/>
                  <path id="Path_14293" data-name="Path 14293" d="M121.228,75.343a6.934,6.934,0,0,1-1.7,1.051c-.615.278-1.27.514-1.9.861a7.193,7.193,0,0,0-1.644,1.346,9.52,9.52,0,0,1-1.5,1.351,15.236,15.236,0,0,1-3.746,1.61,20.7,20.7,0,0,0,2.025-.457,8.329,8.329,0,0,0,1.931-.826c1.248-.738,2.014-1.982,3.176-2.59.575-.329,1.22-.565,1.853-.868a6.752,6.752,0,0,0,1.757-1.187,6.508,6.508,0,0,0,1.983-3.623,7.327,7.327,0,0,1-2.24,3.335" transform="translate(-86.227 -58.744)" fill="#f7a34f"/>
                  <path id="Path_14294" data-name="Path 14294" d="M44.77,75.013a23.283,23.283,0,0,1-2.6-.427,19.972,19.972,0,0,1-2.527-.719,12.151,12.151,0,0,1-4.456-2.644,8.032,8.032,0,0,1-2.415-4.56,6.821,6.821,0,0,0,.619,2.6,8.416,8.416,0,0,0,1.519,2.233,11.567,11.567,0,0,0,4.566,2.84,19.851,19.851,0,0,0,5.26,1.064,19.325,19.325,0,0,0,5.325-.371,25.721,25.721,0,0,1-5.292-.014" transform="translate(-32.772 -55.079)" fill="#f7a34f"/>
                </g>
              </g>
            </g>
            <g id="Group_2830" data-name="Group 2830" transform="translate(29.646 12.582)" opacity="0.3">
              <g id="Group_2829" data-name="Group 2829">
                <g id="Group_2828" data-name="Group 2828" clip-path="url(#clip-path-14)">
                  <path id="Path_14295" data-name="Path 14295" d="M94.284,40.1a9.6,9.6,0,0,1,3.508.194c.576.126,1.143.281,1.707.442a17.454,17.454,0,0,1,1.681.569,7.358,7.358,0,0,1,2.986,2.046A4.771,4.771,0,0,1,105.072,45c.184.608.242,1.186.4,1.71s.357,1.071.562,1.624a3.233,3.233,0,0,1,.142.471,1.741,1.741,0,0,1,.026.544,7.433,7.433,0,0,1-.2.89,9.992,9.992,0,0,0-.094,1.684,3.837,3.837,0,0,1-.146.94,2.171,2.171,0,0,1-.493.878,2.544,2.544,0,0,1-.817.532c-.27.122-.535.24-.806.353-.541.228-1.089.446-1.652.629a7.555,7.555,0,0,1-3.488.39,8.315,8.315,0,0,0,3.362-.734c.533-.219,1.055-.467,1.572-.729l.776-.394a2,2,0,0,0,.624-.442,2.271,2.271,0,0,0,.414-1.443,10.193,10.193,0,0,1,.055-1.806c.061-.318.153-.586.173-.819a1.016,1.016,0,0,0-.019-.326,2.606,2.606,0,0,0-.115-.365c-.2-.538-.43-1.09-.6-1.677s-.227-1.19-.379-1.7a4.255,4.255,0,0,0-.754-1.411,7.081,7.081,0,0,0-2.67-1.958c-.517-.24-1.057-.44-1.6-.639s-1.094-.386-1.648-.552a11.016,11.016,0,0,0-3.417-.547" transform="translate(-94.284 -40.014)" fill="#f7a34f"/>
                </g>
              </g>
            </g>
            <g id="Group_2833" data-name="Group 2833" transform="translate(15.075 14.884)" opacity="0.3">
              <g id="Group_2832" data-name="Group 2832">
                <g id="Group_2831" data-name="Group 2831" clip-path="url(#clip-path-15)">
                  <path id="Path_14296" data-name="Path 14296" d="M61.871,58.737a13.229,13.229,0,0,1-6.118.761,13.593,13.593,0,0,1-3.06-.676c-.249-.083-.495-.175-.736-.279a7.935,7.935,0,0,1-.73-.33,3.187,3.187,0,0,1-.708-.493,4.01,4.01,0,0,1-.545-.647c-.3-.457-.54-.894-.8-1.35a13.465,13.465,0,0,1-.694-1.413A5.919,5.919,0,0,1,48,51.138a1.816,1.816,0,0,1,.342-.826,3.113,3.113,0,0,1,.608-.565c.411-.314.83-.617,1.259-.9A20.188,20.188,0,0,1,52.9,47.335c-.853.572-1.686,1.162-2.476,1.8q-.6.475-1.163.984a3.016,3.016,0,0,0-.486.507,1.253,1.253,0,0,0-.2.594,4.849,4.849,0,0,0,.088,1.424,7.087,7.087,0,0,0,.465,1.385,14.733,14.733,0,0,0,.68,1.333c.25.432.512.891.778,1.285a3.277,3.277,0,0,0,.435.532,2.439,2.439,0,0,0,.545.386,7.285,7.285,0,0,0,.667.309c.228.1.461.19.694.279a14.742,14.742,0,0,0,2.9.765,16.252,16.252,0,0,0,6.041-.186" transform="translate(-47.943 -47.335)" fill="#f7a34f"/>
                </g>
              </g>
            </g>
            <path id="Path_14297" data-name="Path 14297" d="M37.6,54.32l.243.7.156-.2-.243-.7Z" transform="translate(-25.78 -37.105)" fill="#018837"/>
            <path id="Path_14298" data-name="Path 14298" d="M39.415,72.253c-.106,0-.251-.079-.311-.3l-.166.165c.081.3.268.489.476.49h0a.9.9,0,0,0,.482-.219l-.066-.334a.785.785,0,0,1-.419.2" transform="translate(-26.695 -49.33)" fill="#018837"/>
            <path id="Path_14299" data-name="Path 14299" d="M45.12,68.36l.064.334a.4.4,0,0,1,.494.02l.072-.329a.5.5,0,0,0-.63-.025" transform="translate(-30.933 -46.798)" fill="#018837"/>
            <path id="Path_14300" data-name="Path 14300" d="M51.947,69.142a1.411,1.411,0,0,0,.445.45l.056-.34a1.231,1.231,0,0,1-.384-.388Z" transform="translate(-35.613 -47.211)" fill="#018837"/>
            <path id="Path_14301" data-name="Path 14301" d="M62.256,95.018l-.159.187c.089.274.25.461.419.488l.016-.355c-.111-.018-.216-.14-.275-.32" transform="translate(-42.572 -65.142)" fill="#018837"/>
            <path id="Path_14302" data-name="Path 14302" d="M70.259,102.892l.014.355A1.275,1.275,0,0,0,70.86,103l-.068-.332a1.159,1.159,0,0,1-.533.228" transform="translate(-48.168 -70.383)" fill="#018837"/>
            <path id="Path_14303" data-name="Path 14303" d="M29.386,80.669l-.183.08a1.569,1.569,0,0,0,.444,1l.073-.328a1.18,1.18,0,0,1-.334-.755" transform="translate(-20.021 -55.304)" fill="#018837"/>
            <path id="Path_14304" data-name="Path 14304" d="M35.314,88.014l-.092.31a1.159,1.159,0,0,0,.837.417H36.1l-.005-.356a1.009,1.009,0,0,1-.785-.37" transform="translate(-24.147 -60.34)" fill="#018837"/>
            <path id="Path_14305" data-name="Path 14305" d="M64.634,30.586a.553.553,0,0,1,.457-.247l.007-.356a.679.679,0,0,0-.568.307Z" transform="translate(-44.24 -20.555)" fill="#018837"/>
            <path id="Path_14306" data-name="Path 14306" d="M72.184,30.612l-.054.341a4.3,4.3,0,0,1,1.078.9l.1-.306a4.47,4.47,0,0,0-1.12-.938" transform="translate(-49.45 -20.987)" fill="#018837"/>
            <path id="Path_14307" data-name="Path 14307" d="M91.76,41.623l-.582-.566-.086.317.582.566Z" transform="translate(-62.45 -28.148)" fill="#018837"/>
            <path id="Path_14308" data-name="Path 14308" d="M90.975,59.581l.054.341a.534.534,0,0,1,.7.18l.1-.3a.651.651,0,0,0-.854-.22" transform="translate(-62.37 -40.791)" fill="#018837"/>
            <path id="Path_14309" data-name="Path 14309" d="M96.113,82.573a1.224,1.224,0,0,0,.588.655l.039-.348a1.011,1.011,0,0,1-.485-.541Z" transform="translate(-65.892 -56.449)" fill="#018837"/>
            <path id="Path_14310" data-name="Path 14310" d="M113.418,60.57l.146.139.084-.318-.146-.139Z" transform="translate(-77.756 -41.306)" fill="#018837"/>
            <path id="Path_14311" data-name="Path 14311" d="M110.39,84l-.1.3a.536.536,0,0,0,.4.217.441.441,0,0,0,.236-.072l-.059-.338a.356.356,0,0,1-.48-.109" transform="translate(-75.612 -57.591)" fill="#018837"/>
            <path id="Path_14312" data-name="Path 14312" d="M68.318,51.1a1.961,1.961,0,0,1-.077-.674l-.187-.016a2.548,2.548,0,0,0,.108.888c.09.256.24.412.385.412a.2.2,0,0,0,.08-.016l-.041-.347c-.093.04-.2-.064-.268-.246" transform="translate(-46.654 -34.561)" fill="#018837"/>
            <path id="Path_14313" data-name="Path 14313" d="M63.558,46.555l-.086.316a.528.528,0,0,1,.122.3l.183-.08a.936.936,0,0,0-.218-.534" transform="translate(-43.515 -31.917)" fill="#018837"/>
            <path id="Path_14314" data-name="Path 14314" d="M55.558,34.7l.175.125a1.628,1.628,0,0,0-.156-1.091l-.118.277a1.044,1.044,0,0,1,.1.689" transform="translate(-38.021 -23.129)" fill="#018837"/>
            <path id="Path_14315" data-name="Path 14315" d="M113.145,35.094a.928.928,0,0,1,.077-.455,1.6,1.6,0,0,1,.247-.372l-.1-.3a1.879,1.879,0,0,0-.289.443,1.521,1.521,0,0,0-.116.757Z" transform="translate(-77.437 -23.287)" fill="#018837"/>
            <path id="Path_14316" data-name="Path 14316" d="M117.988,32.414l.085.318a.659.659,0,0,1,.629-.2l.025-.353a.775.775,0,0,0-.739.236" transform="translate(-80.889 -22.046)" fill="#018837"/>
            <path id="Path_14317" data-name="Path 14317" d="M104.074,24.938l-.027.352a1.131,1.131,0,0,0,.3.041,1.3,1.3,0,0,0,.8-.3l-.071-.33a1.118,1.118,0,0,1-1,.232" transform="translate(-71.332 -16.938)" fill="#018837"/>
            <path id="Path_14318" data-name="Path 14318" d="M98.175,30.583l-.036.35a1.518,1.518,0,0,0,.535.1l.1,0-.007-.356a1.365,1.365,0,0,1-.588-.09" transform="translate(-67.281 -20.967)" fill="#018837"/>
            <path id="Path_14319" data-name="Path 14319" d="M115.393,23.431a1.173,1.173,0,0,0-.3-.419l-.075.326a.914.914,0,0,1,.234.326Z" transform="translate(-78.852 -15.776)" fill="#018837"/>
            <path id="Path_14320" data-name="Path 14320" d="M131.012,29.655l-.116.28a6,6,0,0,1,.473.861l.142-.232a6.38,6.38,0,0,0-.5-.908" transform="translate(-89.739 -20.331)" fill="#018837"/>
            <path id="Path_14321" data-name="Path 14321" d="M138.009,41.826l.122.649.177-.12-.122-.648Z" transform="translate(-94.615 -28.593)" fill="#018837"/>
            <path id="Path_14322" data-name="Path 14322" d="M147.849,61.268l-.063.336a1.053,1.053,0,0,0,.59.192h0v-.356h0a.943.943,0,0,1-.528-.171" transform="translate(-101.318 -42.004)" fill="#018837"/>
            <path id="Path_14323" data-name="Path 14323" d="M156.073,59.759l.159-.189c-.091-.277-.278-.412-.443-.323l.051.343c.084-.045.186.029.233.17" transform="translate(-106.804 -40.599)" fill="#018837"/>
            <path id="Path_14324" data-name="Path 14324" d="M155.37,68.551l-.087.315a1.129,1.129,0,0,1,.232.549,6.16,6.16,0,0,1,.084.787l.186-.043a6.732,6.732,0,0,0-.095-.87,1.491,1.491,0,0,0-.32-.737" transform="translate(-106.458 -46.997)" fill="#018837"/>
            <path id="Path_14325" data-name="Path 14325" d="M144.959,53.98l-.139-.24a3.025,3.025,0,0,0-.21.6l.171.147a2.537,2.537,0,0,1,.177-.512" transform="translate(-99.141 -36.843)" fill="#018837"/>
            <path id="Path_14326" data-name="Path 14326" d="M134.681,55.979l-.058-.339a.9.9,0,0,0-.323.571l.174.134a.581.581,0,0,1,.207-.367" transform="translate(-92.072 -38.145)" fill="#018837"/>
            <path id="Path_14327" data-name="Path 14327" d="M129.367,53.026a.316.316,0,0,1,.237.153l.112-.286a.464.464,0,0,0-.346-.224Z" transform="translate(-88.69 -36.109)" fill="#018837"/>
            <path id="Path_14328" data-name="Path 14328" d="M127.41,57.393a2.373,2.373,0,0,0-.487-.7l-.084.319a2.11,2.11,0,0,1,.433.618Z" transform="translate(-86.957 -38.87)" fill="#018837"/>
            <path id="Path_14329" data-name="Path 14329" d="M127.837,72.508a.906.906,0,0,0,.6.3l0-.356a.784.784,0,0,1-.519-.254Z" transform="translate(-87.641 -49.493)" fill="#018837"/>
            <path id="Path_14330" data-name="Path 14330" d="M135.2,70.969c-.135-.243-.327-.368-.51-.335l.018.355c.131-.026.267.065.363.238Z" transform="translate(-92.342 -48.421)" fill="#018837"/>
            <path id="Path_14331" data-name="Path 14331" d="M135.352,80.283l.041.347a.436.436,0,0,1,.513.174l.1-.3a.551.551,0,0,0-.656-.222" transform="translate(-92.793 -55.013)" fill="#018837"/>
            <path id="Path_14332" data-name="Path 14332" d="M122.859,82.24l.1.306.291-.33-.1-.306Z" transform="translate(-84.228 -56.155)" fill="#018837"/>
            <path id="Path_14333" data-name="Path 14333" d="M117.639,61.208l-.044.346a.858.858,0,0,1,.38.5l.154-.2a1.1,1.1,0,0,0-.49-.642" transform="translate(-80.62 -41.962)" fill="#018837"/>
            <path id="Path_14334" data-name="Path 14334" d="M112.821,65.98l-.051.343a.913.913,0,0,0,.433.113.85.85,0,0,0,.215-.028l-.025-.353a.778.778,0,0,1-.572-.075" transform="translate(-77.312 -45.234)" fill="#018837"/>
            <path id="Path_14335" data-name="Path 14335" d="M101.154,50.343l.041.348a.531.531,0,0,1,.511.051l.06-.338a.638.638,0,0,0-.612-.061" transform="translate(-69.348 -34.478)" fill="#018837"/>
            <path id="Path_14336" data-name="Path 14336" d="M84.5,50.993l.129.258a.9.9,0,0,1,.418-.416l-.038-.349a1.077,1.077,0,0,0-.509.506" transform="translate(-57.93 -34.612)" fill="#018837"/>
            <path id="Path_14337" data-name="Path 14337" d="M75.667,53.748l-.07.33a.5.5,0,0,0,.305.113.44.44,0,0,0,.08-.008l-.019-.354a.364.364,0,0,1-.3-.081" transform="translate(-51.827 -36.848)" fill="#018837"/>
            <path id="Path_14338" data-name="Path 14338" d="M45.3,41.995l-.056-.34a1.465,1.465,0,0,0-.417.392l.108.291a1.275,1.275,0,0,1,.365-.343" transform="translate(-30.731 -28.557)" fill="#018837"/>
            <path id="Path_14339" data-name="Path 14339" d="M55.166,77.672a.748.748,0,0,0,.456.252l.01-.356a.617.617,0,0,1-.374-.207Z" transform="translate(-37.82 -53.036)" fill="#018837"/>
            <path id="Path_14340" data-name="Path 14340" d="M75.819,47.113a.48.48,0,0,1,.349-.123l.008-.356a.6.6,0,0,0-.432.153Z" transform="translate(-51.928 -31.97)" fill="#018837"/>
            <path id="Path_14341" data-name="Path 14341" d="M104.263,75.392l.036.349a.679.679,0,0,1,.363-.035l.018-.354a.762.762,0,0,0-.418.039" transform="translate(-71.48 -51.65)" fill="#018837"/>
            <path id="Path_14342" data-name="Path 14342" d="M121.1,48.425l.033.351a.841.841,0,0,1,.414-.036l.016-.355a.933.933,0,0,0-.464.04" transform="translate(-83.021 -33.163)" fill="#018837"/>
            <path id="Path_14343" data-name="Path 14343" d="M142.191,64.663l.03.352c.2-.064.419.106.539.42l.152-.209c-.161-.421-.452-.648-.721-.563" transform="translate(-97.482 -44.319)" fill="#018837"/>
            <path id="Path_14344" data-name="Path 14344" d="M145.069,70.849l-.077.325a.567.567,0,0,1,.114.442l.182.085a1.06,1.06,0,0,0-.219-.852" transform="translate(-99.402 -48.572)" fill="#018837"/>
            <path id="Path_14345" data-name="Path 14345" d="M143.241,76.369l.194.235.1-.3-.194-.235Z" transform="translate(-98.202 -52.151)" fill="#018837"/>
            <path id="Path_14346" data-name="Path 14346" d="M26.024,62.141l.184.07a5.713,5.713,0,0,1,.109-.665l-.173-.141a6.483,6.483,0,0,0-.12.735" transform="translate(-17.841 -42.098)" fill="#018837"/>
            <path id="Path_14347" data-name="Path 14347" d="M23.476,75.464l.171.695.17-.151-.171-.695Z" transform="translate(-16.095 -51.633)" fill="#018837"/>
            <path id="Path_14348" data-name="Path 14348" d="M42.82,98.221a.648.648,0,0,0,.406.2l.007-.356a.518.518,0,0,1-.326-.164Z" transform="translate(-29.356 -67.121)" fill="#018837"/>
            <path id="Path_14349" data-name="Path 14349" d="M93.488,30.208l.069-.332a.922.922,0,0,0-.649-.2l.01.356a.807.807,0,0,1,.57.175" transform="translate(-63.695 -20.343)" fill="#018837"/>
            <path id="Path_14350" data-name="Path 14350" d="M125.011,92.952l.012.355a1.279,1.279,0,0,0,.852-.624l-.116-.279a1.124,1.124,0,0,1-.748.547" transform="translate(-85.704 -63.35)" fill="#018837"/>
            <path id="Path_14351" data-name="Path 14351" d="M103.377,99.159l-.025.353a.385.385,0,0,0,.1.013.608.608,0,0,0,.486-.337l-.122-.271c-.118.193-.28.285-.436.243" transform="translate(-70.855 -67.814)" fill="#018837"/>
            <path id="Path_14352" data-name="Path 14352" d="M94.1,103.269l.039.348.463-.186-.039-.348Z" transform="translate(-64.514 -70.671)" fill="#018837"/>
            <g id="Group_2836" data-name="Group 2836" transform="translate(19.787 20.338)" opacity="0.3" style="mix-blend-mode: multiply;isolation: isolate">
              <g id="Group_2835" data-name="Group 2835">
                <g id="Group_2834" data-name="Group 2834" clip-path="url(#clip-path-16)">
                  <path id="Path_14353" data-name="Path 14353" d="M70.062,65.6l-.225.132-.014.008c-.036-.032-.072-.064-.108-.093h0a4.173,4.173,0,0,0-2.478-.963l.214.31a3.084,3.084,0,0,0-1.993.134l.4.152a3.3,3.3,0,0,0-1.479.774l.576.024a3.066,3.066,0,0,0-1.612,1.279l.479-.016a2.893,2.893,0,0,0-.872,1.552l0,.011c0,.018-.007.032-.009.043l0,.007,0,.018a3.474,3.474,0,0,0,1.922.342l-.307.345a3.321,3.321,0,0,0,2.068-.408l-.333.441a3.39,3.39,0,0,0,1.56-.619l-.116.389a2.808,2.808,0,0,0,1.334-1.392l.131.348L69.2,68.4l.008-.011.017-.022.019-.026.02-.027.028-.041.022-.032.035-.054.025-.039.04-.067.025-.045c.014-.025.029-.052.043-.08l.026-.05c.015-.03.03-.06.045-.093l.025-.055c.015-.034.03-.069.046-.105l.023-.058c.015-.039.031-.078.045-.119l.019-.058c.015-.044.03-.088.043-.135.005-.018.01-.036.015-.054.014-.051.028-.1.041-.155,0-.006,0-.013,0-.019a3.608,3.608,0,0,0,.084-.611c0-.022,0-.044,0-.066,0-.053,0-.108,0-.163,0-.029,0-.056,0-.086v0c0-.091-.01-.183-.02-.278l.025-.014.23-.129.46-.258-.085-.124Z" transform="translate(-62.931 -64.682)" fill="#d17600"/>
                </g>
              </g>
            </g>
            <g id="Group_2839" data-name="Group 2839" transform="translate(30.175 19.607)" opacity="0.3" style="mix-blend-mode: multiply;isolation: isolate">
              <g id="Group_2838" data-name="Group 2838">
                <g id="Group_2837" data-name="Group 2837" clip-path="url(#clip-path-17)">
                  <path id="Path_14354" data-name="Path 14354" d="M104.333,65.443l.009-.008.033-.029.008-.007.013-.012a3.156,3.156,0,0,0-1.351-1.324l.463-.113a3.4,3.4,0,0,0-.7-.468,2.783,2.783,0,0,0-1.238-.325l.545-.177a3.432,3.432,0,0,0-1.654-.346l.337-.253a3.074,3.074,0,0,0-1.951.4l.11-.354-.014,0-.016.005-.025.008-.033.011-.032.011-.048.018-.038.014-.062.025-.044.018-.074.033-.049.023-.085.041-.052.027-.095.051-.054.031-.1.061-.055.035-.111.072-.053.037c-.039.028-.079.055-.119.086l-.045.036c-.043.034-.086.067-.13.1l-.017.015a3.994,3.994,0,0,0-.446.449l-.044.051c-.035.042-.068.088-.1.133-.018.023-.036.045-.053.069l0,0q-.081.113-.156.236l-.029,0-.267-.02-.535-.04-.007.147.53.031.265.015.017,0c.009.045.019.091.03.135h0a3.752,3.752,0,0,0,1.417,2.132l.019-.368a2.96,2.96,0,0,0,1.7.976l-.23-.341a3.467,3.467,0,0,0,1.684.175l-.454-.333a3.328,3.328,0,0,0,2.106-.163l-.4-.248a3.243,3.243,0,0,0,1.674-.787" transform="translate(-95.969 -62.359)" fill="#d17600"/>
                </g>
              </g>
            </g>
            <g id="Group_2842" data-name="Group 2842" transform="translate(25.806 12.679)" opacity="0.3" style="mix-blend-mode: multiply;isolation: isolate">
              <g id="Group_2841" data-name="Group 2841">
                <g id="Group_2840" data-name="Group 2840" clip-path="url(#clip-path-18)">
                  <path id="Path_14355" data-name="Path 14355" d="M86.9,45.546l-.346.127a2.96,2.96,0,0,0,.228-1.951l-.224.347a3.468,3.468,0,0,0-.5-1.618L85.93,43a3.328,3.328,0,0,0-.977-1.873l-.071.464A3.241,3.241,0,0,0,83.5,40.361l-.011-.005-.041-.02-.008,0-.016-.008a3.675,3.675,0,0,0-.415.67c-.042.088-.084.183-.12.283q-.028.075-.052.153a2.115,2.115,0,0,0-.1.657l-.286-.382a3.221,3.221,0,0,0,.031,2.092l-.377-.432a3.43,3.43,0,0,0,.332,1.656l-.365-.21a3.072,3.072,0,0,0,1.139,1.635l-.369.038.009.011.009.011.018.021.023.026.023.025.036.038.028.029.048.047.034.034.059.055.04.036.072.062.045.037.084.068.05.038.1.071.054.037c.036.025.071.049.11.073l.055.034c.041.025.082.051.125.075l.05.027c.048.027.1.053.147.079l.018.008a4.031,4.031,0,0,0,.59.235l.066.021c.052.015.107.028.161.041.029.007.056.015.086.022l0,0c.09.02.183.037.279.051l.009.028.086.254.173.507.138-.051-.18-.5-.09-.25-.005-.016c.038-.026.076-.053.112-.08v0a3.752,3.752,0,0,0,1.4-2.14" transform="translate(-82.072 -40.325)" fill="#d17600"/>
                </g>
              </g>
            </g>
            <path id="Path_14356" data-name="Path 14356" d="M66.026,67.837a2.81,2.81,0,0,0,1.335-1.392l.131.348a3.59,3.59,0,0,0,.686-2.629,4.17,4.17,0,0,0-2.642-1.1l.214.31a3.086,3.086,0,0,0-1.993.135l.4.152a3.3,3.3,0,0,0-1.479.774l.576.024a3.068,3.068,0,0,0-1.612,1.279l.479-.016a3,3,0,0,0-.889,1.631,3.475,3.475,0,0,0,1.922.342l-.307.345a3.322,3.322,0,0,0,2.068-.409l-.333.441a3.392,3.392,0,0,0,1.56-.619Z" transform="translate(-41.98 -43.233)" fill="#5cac1b"/>
            <g id="Group_2845" data-name="Group 2845" transform="translate(19.991 20.49)" opacity="0.3" style="mix-blend-mode: multiply;isolation: isolate">
              <g id="Group_2844" data-name="Group 2844">
                <g id="Group_2843" data-name="Group 2843" clip-path="url(#clip-path-19)">
                  <path id="Path_14357" data-name="Path 14357" d="M67.11,66.979a26.745,26.745,0,0,0,2.669-1.38c-.051-.046-.1-.09-.153-.133a2.918,2.918,0,0,1-.675.269,1.1,1.1,0,0,1-.481-.113c-.15-.068-.291-.153-.44-.224a2.49,2.49,0,0,0-.957-.234,2.52,2.52,0,0,1,.679.181,5.443,5.443,0,0,1,.556.365.94.94,0,0,0,.625.2,6.133,6.133,0,0,1-1.48.7,1.573,1.573,0,0,1-1.215-.185,1.447,1.447,0,0,0-.468-.252,3.106,3.106,0,0,1,.589.432,1.616,1.616,0,0,0,.8.227,9.661,9.661,0,0,1-1.294.62,1.467,1.467,0,0,0-.717-.095,4.326,4.326,0,0,0-.714.147,3.4,3.4,0,0,1,1.286.067c-.714.3-1.423.618-2.137.923.443-.145.871-.338,1.3-.508.761-.3,1.481-.679,2.226-1.012" transform="translate(-63.581 -65.165)" fill="#5cac1b"/>
                </g>
              </g>
            </g>
            <path id="Path_14358" data-name="Path 14358" d="M65.257,68a2.581,2.581,0,0,1,.426-.539,1.92,1.92,0,0,1,.272-.216,1.513,1.513,0,0,0,.147-.1.725.725,0,0,0,.124-.131,2.24,2.24,0,0,0,.179-.3q.071-.138.132-.28.254-.127.507-.256l.333-.171a1.853,1.853,0,0,0-.168.335,1.581,1.581,0,0,0-.079.516,2.821,2.821,0,0,1-.043.512,2.921,2.921,0,0,1-.141.5,2.924,2.924,0,0,0,.16-.494,2.874,2.874,0,0,0,.063-.514,1.54,1.54,0,0,1,.1-.5,2.136,2.136,0,0,1,.246-.423l.468-.245.232-.123.23-.129.46-.258-.086-.124-.451.263-.225.132-.23.127-.385.211a1.921,1.921,0,0,1-.577-.06.992.992,0,0,1-.274-.137c-.084-.059-.163-.127-.246-.191a1.226,1.226,0,0,0-.273-.164,1.82,1.82,0,0,0-.308-.092c-.209-.044-.419-.082-.629-.124.208.047.417.092.624.141a1.785,1.785,0,0,1,.3.1,1.182,1.182,0,0,1,.26.167c.08.065.156.136.241.2a1.044,1.044,0,0,0,.285.153,1.7,1.7,0,0,0,.471.076l-.412.221q-.572.305-1.15.6a3.13,3.13,0,0,1-.562,0,1.187,1.187,0,0,1-.577-.206c-.167-.119-.3-.277-.485-.388a.72.72,0,0,0-.3-.108.47.47,0,0,0-.306.064.465.465,0,0,1,.3-.055.707.707,0,0,1,.288.114c.174.113.3.274.471.4a1.233,1.233,0,0,0,.593.232,2.652,2.652,0,0,0,.42.02q-.286.143-.573.283-.241.117-.485.232l-.012,0-.005.013-.417.194.006-.011a1.6,1.6,0,0,0-.506-.12,2.138,2.138,0,0,0-.517.02c-.084.013-.167.034-.251.04a.948.948,0,0,1-.251-.019c-.082-.017-.163-.045-.249-.058a.519.519,0,0,0-.253.015.517.517,0,0,1,.252-.006c.083.016.162.046.246.067a.98.98,0,0,0,.257.028c.087,0,.171-.022.255-.031a2.1,2.1,0,0,1,.5,0,1.581,1.581,0,0,1,.43.111c-.944.431-1.9.831-2.885,1.188,1.136-.391,2.249-.84,3.342-1.33a3.489,3.489,0,0,1-.492.885,1.289,1.289,0,0,1-.2.2,1.046,1.046,0,0,1-.253.139,1.413,1.413,0,0,0-.264.13.859.859,0,0,0-.21.2.859.859,0,0,1,.216-.189,1.38,1.38,0,0,1,.267-.12,1.075,1.075,0,0,0,.264-.134,1.336,1.336,0,0,0,.214-.2,3.777,3.777,0,0,0,.564-.954q.237-.107.472-.216c.25-.116.5-.235.747-.355h.013v-.005q.262-.127.523-.257c-.029.068-.058.135-.09.2a2.177,2.177,0,0,1-.165.3.843.843,0,0,1-.25.228,1.915,1.915,0,0,0-.272.228A2.586,2.586,0,0,0,65.24,68a2.486,2.486,0,0,0-.253.633,2.476,2.476,0,0,1,.27-.624" transform="translate(-41.98 -44.581)" fill="#4b840f"/>
            <g id="Group_2848" data-name="Group 2848" transform="translate(19.254 21.278)" opacity="0.3" style="mix-blend-mode: multiply;isolation: isolate">
              <g id="Group_2847" data-name="Group 2847">
                <g id="Group_2846" data-name="Group 2846" clip-path="url(#clip-path-20)">
                  <path id="Path_14359" data-name="Path 14359" d="M67.362,69.607l.131.348a3.572,3.572,0,0,0,.714-2.283,4.064,4.064,0,0,1-.648,1.634c-.034-.118-.038-.241-.071-.359a2.262,2.262,0,0,1-1.028,1.424.28.28,0,0,0,.064-.215,1.972,1.972,0,0,1,.04-.479,2.868,2.868,0,0,1-1.139.938,2.9,2.9,0,0,0,.148-.757,1.811,1.811,0,0,1-.756.605,5.742,5.742,0,0,1-.948.314,1.772,1.772,0,0,0,.325-.84,3.613,3.613,0,0,1-2.943.493c-.011.05-.016.08-.016.08a3.474,3.474,0,0,0,1.922.342l-.307.344a3.32,3.32,0,0,0,2.067-.408l-.333.441a3.392,3.392,0,0,0,1.56-.619L66.027,71a2.81,2.81,0,0,0,1.335-1.392" transform="translate(-61.234 -67.672)" fill="#5cac1b"/>
                </g>
              </g>
            </g>
            <path id="Path_14360" data-name="Path 14360" d="M100.843,60.761a3.074,3.074,0,0,0-1.951.4l.11-.354a3.987,3.987,0,0,0-2.193,1.765,3.746,3.746,0,0,0,1.462,2.335l.019-.368a2.958,2.958,0,0,0,1.7.976l-.231-.341a3.468,3.468,0,0,0,1.684.175l-.454-.333a3.327,3.327,0,0,0,2.106-.163l-.4-.248a3.355,3.355,0,0,0,1.737-.842,3.158,3.158,0,0,0-1.351-1.325l.463-.113a3.221,3.221,0,0,0-1.935-.793l.545-.177a3.432,3.432,0,0,0-1.654-.346Z" transform="translate(-66.369 -41.641)" fill="#5cac1b"/>
            <g id="Group_2851" data-name="Group 2851" transform="translate(30.442 20.947)" opacity="0.3" style="mix-blend-mode: multiply;isolation: isolate">
              <g id="Group_2850" data-name="Group 2850">
                <g id="Group_2849" data-name="Group 2849" clip-path="url(#clip-path-21)">
                  <path id="Path_14361" data-name="Path 14361" d="M99.846,66.95a27.837,27.837,0,0,0-3.029-.33c.012.065.026.129.041.191a2.964,2.964,0,0,1,.717.149,1,1,0,0,1,.321.354c.08.137.141.283.219.422a2.255,2.255,0,0,0,.633.711,2.286,2.286,0,0,1-.44-.517,4.861,4.861,0,0,1-.225-.6.847.847,0,0,0-.384-.5,6.349,6.349,0,0,1,1.642.233,1.444,1.444,0,0,1,.873.812,1.293,1.293,0,0,0,.224.46,2.783,2.783,0,0,1-.211-.672,1.455,1.455,0,0,0-.509-.62,10,10,0,0,1,1.438.2,1.345,1.345,0,0,0,.524.467,4.285,4.285,0,0,0,.673.269,3.153,3.153,0,0,1-1-.754c.77.141,1.542.273,2.312.413-.45-.124-.918-.2-1.376-.3-.8-.17-1.627-.254-2.439-.389" transform="translate(-96.817 -66.62)" fill="#5cac1b"/>
                </g>
              </g>
            </g>
            <path id="Path_14362" data-name="Path 14362" d="M99,63.427a2.874,2.874,0,0,1-.682.206,2.075,2.075,0,0,1-.356.027,1.56,1.56,0,0,0-.183,0,.79.79,0,0,0-.182.039,2.467,2.467,0,0,0-.331.146q-.144.073-.282.156l-.572-.068-.377-.042a2.071,2.071,0,0,0,.345-.181,1.733,1.733,0,0,0,.385-.377,3.08,3.08,0,0,1,.354-.393,3.231,3.231,0,0,1,.424-.329,3.287,3.287,0,0,0-.438.315,3.167,3.167,0,0,0-.371.384,1.7,1.7,0,0,1-.388.354,2.381,2.381,0,0,1-.463.209l-.533-.055-.266-.026-.267-.02-.535-.04-.007.147.53.031.265.015.266.022.445.038a1.77,1.77,0,0,1,.432.363.886.886,0,0,1,.138.261c.032.094.053.192.08.289a1.1,1.1,0,0,0,.12.282,1.627,1.627,0,0,0,.193.242c.143.15.29.3.434.443-.139-.152-.282-.3-.419-.455a1.61,1.61,0,0,1-.182-.244,1.069,1.069,0,0,1-.108-.277c-.024-.1-.042-.2-.072-.294a.929.929,0,0,0-.136-.279A1.557,1.557,0,0,0,95.922,64l.473.044q.654.063,1.307.141a2.963,2.963,0,0,1,.457.306,1.067,1.067,0,0,1,.341.482c.061.188.075.391.153.579a.647.647,0,0,0,.175.25.461.461,0,0,0,.289.114.453.453,0,0,1-.282-.121.631.631,0,0,1-.164-.25c-.071-.187-.077-.388-.134-.583a1.1,1.1,0,0,0-.338-.512,2.485,2.485,0,0,0-.329-.245q.321.039.642.082.27.036.539.075l.007.01.012-.008.46.069-.011.005a1.441,1.441,0,0,0,.337.373,2.027,2.027,0,0,0,.433.265c.077.036.157.063.229.1a.885.885,0,0,1,.192.152c.056.059.105.126.166.182a.493.493,0,0,0,.216.126.483.483,0,0,1-.208-.132c-.058-.058-.1-.126-.158-.188a.883.883,0,0,0-.191-.163c-.073-.045-.153-.075-.227-.114a1.97,1.97,0,0,1-.411-.273,1.419,1.419,0,0,1-.281-.324c1.036.163,2.066.362,3.085.6-1.167-.3-2.352-.541-3.545-.738a3.9,3.9,0,0,1,.951-.452,1.428,1.428,0,0,1,.288-.053,1.079,1.079,0,0,1,.292.025,1.461,1.461,0,0,0,.3.038.942.942,0,0,0,.293-.045.942.942,0,0,1-.293.036,1.438,1.438,0,0,1-.292-.047,1.113,1.113,0,0,0-.3-.035,1.478,1.478,0,0,0-.3.045,4.248,4.248,0,0,0-1.052.468l-.518-.081c-.276-.042-.552-.081-.828-.119l-.011-.007,0,0L97.1,64.02c.065-.039.131-.078.2-.114a2.457,2.457,0,0,1,.318-.151.922.922,0,0,1,.345-.049,2.12,2.12,0,0,0,.363-.037A2.907,2.907,0,0,0,99,63.443a2.763,2.763,0,0,0,.6-.377,2.77,2.77,0,0,1-.607.36" transform="translate(-64.63 -42.928)" fill="#4b840f"/>
            <g id="Group_2854" data-name="Group 2854" transform="translate(30.633 19.098)" opacity="0.3" style="mix-blend-mode: multiply;isolation: isolate">
              <g id="Group_2853" data-name="Group 2853">
                <g id="Group_2852" data-name="Group 2852" clip-path="url(#clip-path-22)">
                  <path id="Path_14363" data-name="Path 14363" d="M99.313,61.166l.11-.354a3.978,3.978,0,0,0-2,1.468,4.541,4.541,0,0,1,1.543-.976c-.046.114-.119.217-.165.331a2.513,2.513,0,0,1,1.722-.6.311.311,0,0,0-.186.14,2.17,2.17,0,0,1-.33.368,3.11,3.11,0,0,1,1.509-.143,3.216,3.216,0,0,0-.591.535,1.96,1.96,0,0,1,.991-.081,5.767,5.767,0,0,1,.967.261,1.981,1.981,0,0,0-.786.506,3.516,3.516,0,0,1,2.7,1.2l.063-.056a3.156,3.156,0,0,0-1.351-1.324l.463-.113a3.223,3.223,0,0,0-1.935-.794l.545-.177a3.43,3.43,0,0,0-1.654-.345l.337-.253a3.072,3.072,0,0,0-1.951.4" transform="translate(-97.423 -60.738)" fill="#5cac1b"/>
                </g>
              </g>
            </g>
            <path id="Path_14364" data-name="Path 14364" d="M80.374,43.191a3.074,3.074,0,0,0,1.139,1.635l-.369.038a3.985,3.985,0,0,0,2.484,1.324A3.746,3.746,0,0,0,85.2,43.926l-.346.127a2.961,2.961,0,0,0,.228-1.951l-.224.347a3.467,3.467,0,0,0-.5-1.617l-.128.549a3.327,3.327,0,0,0-.977-1.873l-.071.464A3.352,3.352,0,0,0,81.727,38.7a3.159,3.159,0,0,0-.688,1.763l-.286-.382a3.223,3.223,0,0,0,.031,2.092l-.377-.432a3.431,3.431,0,0,0,.332,1.657Z" transform="translate(-55.102 -26.534)" fill="#5cac1b"/>
            <g id="Group_2857" data-name="Group 2857" transform="translate(26.782 12.953)" opacity="0.3" style="mix-blend-mode: multiply;isolation: isolate">
              <g id="Group_2856" data-name="Group 2856">
                <g id="Group_2855" data-name="Group 2855" clip-path="url(#clip-path-23)">
                  <path id="Path_14365" data-name="Path 14365" d="M86.044,44.975a27.908,27.908,0,0,0,.886,2.915c.055-.037.108-.075.159-.114a2.968,2.968,0,0,1-.144-.718.994.994,0,0,1,.2-.435c.094-.128.2-.241.3-.367a2.253,2.253,0,0,0,.4-.862,2.273,2.273,0,0,1-.3.607,4.849,4.849,0,0,1-.463.442.847.847,0,0,0-.312.551,6.352,6.352,0,0,1-.43-1.6,1.444,1.444,0,0,1,.4-1.122,1.292,1.292,0,0,0,.335-.386c-.128.2-.363.3-.535.457a1.455,1.455,0,0,0-.37.712,9.979,9.979,0,0,1-.381-1.4,1.342,1.342,0,0,0,.224-.665A4.265,4.265,0,0,0,86,42.266a3.157,3.157,0,0,1-.3,1.22c-.173-.764-.355-1.525-.529-2.289.063.463.177.923.268,1.382.159.807.4,1.6.6,2.4" transform="translate(-85.175 -41.197)" fill="#5cac1b"/>
                </g>
              </g>
            </g>
            <path id="Path_14366" data-name="Path 14366" d="M83.3,42.749a2.874,2.874,0,0,1,.457.546,2.056,2.056,0,0,1,.165.316,1.64,1.64,0,0,0,.075.167.813.813,0,0,0,.108.152,2.471,2.471,0,0,0,.264.247c.082.069.168.135.254.2q.08.276.162.552.054.182.11.363a2.06,2.06,0,0,0-.3-.246,1.739,1.739,0,0,0-.5-.206,3.1,3.1,0,0,1-.5-.171,3.262,3.262,0,0,1-.469-.261,3.273,3.273,0,0,0,.462.279,3.11,3.11,0,0,0,.5.191,1.706,1.706,0,0,1,.478.218,2.422,2.422,0,0,1,.374.343q.078.256.158.512l.08.255.086.253.173.507.138-.051-.18-.5-.09-.25-.084-.253q-.071-.212-.14-.424a1.774,1.774,0,0,1,.164-.54.891.891,0,0,1,.186-.229c.074-.066.156-.124.235-.188a1.09,1.09,0,0,0,.212-.221,1.65,1.65,0,0,0,.147-.273c.081-.19.158-.382.237-.573-.085.188-.167.378-.254.564a1.615,1.615,0,0,1-.152.263,1.066,1.066,0,0,1-.213.208c-.079.06-.163.116-.242.181a.932.932,0,0,0-.2.235,1.553,1.553,0,0,0-.16.434q-.073-.226-.145-.452-.2-.626-.384-1.257a2.947,2.947,0,0,1,.1-.541,1.063,1.063,0,0,1,.309-.5c.148-.13.33-.222.472-.368a.649.649,0,0,0,.161-.259.461.461,0,0,0-.008-.311.452.452,0,0,1,0,.307.629.629,0,0,1-.165.248c-.144.139-.326.224-.483.352a1.1,1.1,0,0,0-.338.512,2.472,2.472,0,0,0-.1.4c-.06-.207-.119-.414-.177-.622q-.073-.262-.142-.525l.007-.01-.012-.008q-.059-.225-.117-.45l.009.008a1.445,1.445,0,0,0,.211-.457,2.026,2.026,0,0,0,.074-.5c0-.085,0-.169.005-.251a.874.874,0,0,1,.064-.237c.032-.075.074-.146.1-.225a.5.5,0,0,0,.031-.247.484.484,0,0,1-.04.244c-.031.076-.075.145-.111.219a.892.892,0,0,0-.075.24c-.012.084-.009.17-.015.254a1.979,1.979,0,0,1-.09.485,1.425,1.425,0,0,1-.188.385c-.257-1.017-.479-2.042-.656-3.074.183,1.192.426,2.376.714,3.55a3.917,3.917,0,0,1-.789-.7,1.42,1.42,0,0,1-.162-.245,1.076,1.076,0,0,1-.091-.279,1.441,1.441,0,0,0-.081-.287.944.944,0,0,0-.157-.252.941.941,0,0,1,.148.256,1.444,1.444,0,0,1,.071.287,1.113,1.113,0,0,0,.085.288,1.45,1.45,0,0,0,.158.256,4.247,4.247,0,0,0,.844.784q.063.254.129.508.1.4.216.808l0,.013h.006q.078.284.16.568c-.062-.044-.124-.09-.184-.138a2.386,2.386,0,0,1-.263-.233.914.914,0,0,1-.18-.3,2.112,2.112,0,0,0-.177-.319,2.9,2.9,0,0,0-.476-.54,2.794,2.794,0,0,0-.582-.4,2.771,2.771,0,0,1,.57.417" transform="translate(-56.717 -26.534)" fill="#4b840f"/>
            <g id="Group_2860" data-name="Group 2860" transform="translate(25.272 12.17)" opacity="0.3" style="mix-blend-mode: multiply;isolation: isolate">
              <g id="Group_2859" data-name="Group 2859">
                <g id="Group_2858" data-name="Group 2858" clip-path="url(#clip-path-24)">
                  <path id="Path_14367" data-name="Path 14367" d="M81.513,44.826l-.369.038a3.98,3.98,0,0,0,2.136,1.263,4.543,4.543,0,0,1-1.5-1.036c.123,0,.247.025.369.022a2.515,2.515,0,0,1-1.227-1.348.312.312,0,0,0,.2.116,2.136,2.136,0,0,1,.468.159,3.106,3.106,0,0,1-.724-1.332,3.208,3.208,0,0,0,.724.334,1.956,1.956,0,0,1-.463-.88,5.763,5.763,0,0,1-.14-.991,1.982,1.982,0,0,0,.774.525,3.517,3.517,0,0,1,.045-2.955l-.076-.036a3.157,3.157,0,0,0-.688,1.762l-.286-.382a3.223,3.223,0,0,0,.031,2.092l-.377-.432a3.434,3.434,0,0,0,.332,1.656l-.365-.21a3.073,3.073,0,0,0,1.139,1.635" transform="translate(-80.374 -38.705)" fill="#5cac1b"/>
                </g>
              </g>
            </g>
          </g>
        </g>
      </g>
    </g>
  </g>
<!-- Code injected by live-server -->
<script>
	// <![CDATA[  <-- For SVG support
	if ('WebSocket' in window) {
		(function () {
			function refreshCSS() {
				var sheets = [].slice.call(document.getElementsByTagName("link"));
				var head = document.getElementsByTagName("head")[0];
				for (var i = 0; i < sheets.length; ++i) {
					var elem = sheets[i];
					var parent = elem.parentElement || head;
					parent.removeChild(elem);
					var rel = elem.rel;
					if (elem.href && typeof rel != "string" || rel.length == 0 || rel.toLowerCase() == "stylesheet") {
						var url = elem.href.replace(/(&|\?)_cacheOverride=\d+/, '');
						elem.href = url + (url.indexOf('?') >= 0 ? '&' : '?') + '_cacheOverride=' + (new Date().valueOf());
					}
					parent.appendChild(elem);
				}
			}
			var protocol = window.location.protocol === 'http:' ? 'ws://' : 'wss://';
			var address = protocol + window.location.host + window.location.pathname + '/ws';
			var socket = new WebSocket(address);
			socket.onmessage = function (msg) {
				if (msg.data == 'reload') window.location.reload();
				else if (msg.data == 'refreshcss') refreshCSS();
			};
			if (sessionStorage && !sessionStorage.getItem('IsThisFirstTime_Log_From_LiveServer')) {
				console.log('Live reload enabled.');
				sessionStorage.setItem('IsThisFirstTime_Log_From_LiveServer', true);
			}
		})();
	}
	else {
		console.error('Upgrade your browser. This Browser is NOT supported WebSocket for Live-Reloading.');
	}
	// ]]>
</script>
</svg>
