<svg xmlns="http://www.w3.org/2000/svg" xmlns:xlink="http://www.w3.org/1999/xlink" width="77.135" height="48.158" viewBox="0 0 77.135 48.158">
  <defs>
    <clipPath id="clip-path">
      <rect id="Rectangle_87" data-name="Rectangle 87" width="77.135" height="48.158" transform="translate(0 0)" fill="none"/>
    </clipPath>
  </defs>
  <g id="Group_41" data-name="Group 41" transform="translate(0 0.002)">
    <g id="Group_40" data-name="Group 40" transform="translate(0 -0.002)" clip-path="url(#clip-path)">
      <path id="Path_153" data-name="Path 153" d="M34.755,260.986a.729.729,0,0,1,.316-.581c.179-.107.329-.024.333.185a.737.737,0,0,1-.316.581c-.178.11-.329.027-.333-.185" transform="translate(-34.305 -256.993)" fill="#eae6d6"/>
      <path id="Path_154" data-name="Path 154" d="M55.5,273.139a.729.729,0,0,1,.316-.58c.179-.108.329-.024.333.185a.738.738,0,0,1-.316.581c-.179.11-.329.027-.333-.185" transform="translate(-54.781 -268.988)" fill="#eae6d6"/>
      <path id="Path_155" data-name="Path 155" d="M73.764,284.223a.73.73,0,0,1,.316-.581c.179-.107.329-.024.333.185a.737.737,0,0,1-.316.58c-.178.11-.329.027-.333-.185" transform="translate(-72.81 -279.929)" fill="#eae6d6"/>
      <path id="Path_156" data-name="Path 156" d="M82.786,281.129a1.07,1.07,0,0,1,.463-.851c.262-.158.482-.036.489.271a1.082,1.082,0,0,1-.463.851c-.262.161-.482.039-.489-.271" transform="translate(-81.716 -276.586)" fill="#7c5c42"/>
      <path id="Path_157" data-name="Path 157" d="M94.508,296.376a.729.729,0,0,1,.316-.58c.179-.108.329-.024.333.185a.738.738,0,0,1-.316.581c-.179.11-.329.027-.333-.185" transform="translate(-93.286 -291.925)" fill="#664b36"/>
      <path id="Path_158" data-name="Path 158" d="M110.944,305.673a.73.73,0,0,1,.316-.581c.179-.107.329-.024.333.185a.738.738,0,0,1-.316.581c-.178.11-.329.027-.333-.185" transform="translate(-109.509 -301.102)" fill="#eae6d6"/>
      <path id="Path_159" data-name="Path 159" d="M131.688,317.826a.729.729,0,0,1,.316-.58c.179-.107.329-.024.333.185a.738.738,0,0,1-.316.581c-.178.11-.329.027-.333-.185" transform="translate(-129.985 -313.097)" fill="#eae6d6"/>
      <path id="Path_160" data-name="Path 160" d="M149.953,328.909a.729.729,0,0,1,.316-.58c.179-.108.329-.024.333.185a.738.738,0,0,1-.316.581c-.179.11-.329.027-.333-.185" transform="translate(-148.014 -324.037)" fill="#eae6d6"/>
      <path id="Path_161" data-name="Path 161" d="M158.975,325.815a1.07,1.07,0,0,1,.463-.851c.262-.158.482-.036.489.271a1.082,1.082,0,0,1-.463.851c-.262.161-.482.039-.489-.271" transform="translate(-156.92 -320.694)" fill="#7c5c42"/>
      <path id="Path_162" data-name="Path 162" d="M170.7,341.062a.729.729,0,0,1,.316-.581c.179-.108.329-.024.333.185a.738.738,0,0,1-.316.581c-.178.11-.329.027-.333-.185" transform="translate(-168.49 -336.033)" fill="#664b36"/>
      <path id="Path_163" data-name="Path 163" d="M185.732,349.81a.729.729,0,0,1,.316-.581c.179-.108.329-.024.333.185a.738.738,0,0,1-.316.58c-.178.11-.329.027-.333-.185" transform="translate(-183.33 -344.668)" fill="#eae6d6"/>
      <path id="Path_164" data-name="Path 164" d="M206.476,361.962a.73.73,0,0,1,.316-.581c.179-.108.329-.024.333.185a.737.737,0,0,1-.316.581c-.178.11-.329.027-.333-.185" transform="translate(-203.806 -356.663)" fill="#eae6d6"/>
      <path id="Path_165" data-name="Path 165" d="M224.741,373.046a.73.73,0,0,1,.316-.581c.179-.107.329-.024.333.185a.738.738,0,0,1-.316.581c-.178.11-.329.027-.333-.185" transform="translate(-221.835 -367.604)" fill="#eae6d6"/>
      <path id="Path_166" data-name="Path 166" d="M233.763,369.952a1.07,1.07,0,0,1,.463-.851c.262-.158.482-.036.489.271a1.082,1.082,0,0,1-.463.851c-.262.161-.482.039-.489-.271" transform="translate(-230.741 -364.261)" fill="#7c5c42"/>
      <path id="Path_167" data-name="Path 167" d="M245.485,385.2a.729.729,0,0,1,.316-.581c.179-.108.329-.024.333.185a.738.738,0,0,1-.316.581c-.179.11-.329.027-.333-.185" transform="translate(-242.311 -379.599)" fill="#664b36"/>
      <path id="Path_168" data-name="Path 168" d="M261.921,394.5a.73.73,0,0,1,.316-.58c.179-.108.329-.024.333.185a.737.737,0,0,1-.316.581c-.178.11-.329.027-.333-.185" transform="translate(-258.534 -388.777)" fill="#eae6d6"/>
      <path id="Path_169" data-name="Path 169" d="M282.665,406.649a.729.729,0,0,1,.316-.581c.179-.108.329-.024.333.185a.738.738,0,0,1-.316.581c-.178.11-.329.027-.333-.185" transform="translate(-279.01 -400.773)" fill="#eae6d6"/>
      <path id="Path_170" data-name="Path 170" d="M300.93,417.733a.729.729,0,0,1,.316-.581c.179-.107.329-.024.333.185a.738.738,0,0,1-.316.581c-.178.11-.329.027-.333-.185" transform="translate(-297.039 -411.713)" fill="#eae6d6"/>
      <path id="Path_171" data-name="Path 171" d="M309.953,414.639a1.07,1.07,0,0,1,.463-.851c.262-.158.482-.036.489.271a1.082,1.082,0,0,1-.463.851c-.262.161-.482.039-.489-.271" transform="translate(-305.946 -408.37)" fill="#7c5c42"/>
      <path id="Path_172" data-name="Path 172" d="M321.675,429.885a.729.729,0,0,1,.316-.581c.179-.107.329-.024.333.185a.738.738,0,0,1-.316.581c-.178.11-.329.027-.333-.185" transform="translate(-317.516 -423.708)" fill="#664b36"/>
      <path id="Path_173" data-name="Path 173" d="M303.675,419.091a.73.73,0,0,1,.316-.581c.179-.107.329-.024.333.185a.737.737,0,0,1-.316.581c-.178.11-.329.027-.333-.185" transform="translate(-299.748 -413.054)" fill="#eae6d6"/>
      <path id="Path_174" data-name="Path 174" d="M324.42,431.244a.729.729,0,0,1,.316-.581c.179-.107.329-.024.333.185a.737.737,0,0,1-.316.58c-.178.11-.329.027-.333-.185" transform="translate(-320.225 -425.05)" fill="#eae6d6"/>
      <path id="Path_175" data-name="Path 175" d="M342.684,442.328a.73.73,0,0,1,.316-.581c.179-.107.329-.024.333.185a.737.737,0,0,1-.316.58c-.179.11-.329.027-.333-.185" transform="translate(-338.253 -435.99)" fill="#eae6d6"/>
      <path id="Path_176" data-name="Path 176" d="M351.707,439.234a1.07,1.07,0,0,1,.463-.851c.262-.158.482-.036.489.271a1.082,1.082,0,0,1-.463.851c-.262.161-.482.039-.489-.271" transform="translate(-347.16 -432.647)" fill="#7c5c42"/>
      <path id="Path_177" data-name="Path 177" d="M363.429,454.481a.73.73,0,0,1,.316-.581c.179-.107.329-.024.333.185a.738.738,0,0,1-.316.581c-.179.11-.329.027-.333-.185" transform="translate(-358.73 -447.986)" fill="#664b36"/>
      <path id="Path_178" data-name="Path 178" d="M379.865,463.778a.729.729,0,0,1,.316-.581c.179-.108.329-.024.333.185a.738.738,0,0,1-.316.58c-.178.11-.329.027-.333-.185" transform="translate(-374.953 -457.163)" fill="#eae6d6"/>
      <path id="Path_179" data-name="Path 179" d="M400.609,475.931a.729.729,0,0,1,.316-.581c.179-.107.329-.024.333.185a.737.737,0,0,1-.316.581c-.178.11-.329.027-.333-.185" transform="translate(-395.429 -469.158)" fill="#eae6d6"/>
      <path id="Path_180" data-name="Path 180" d="M418.874,487.014a.73.73,0,0,1,.316-.581c.179-.107.329-.024.333.185a.738.738,0,0,1-.316.581c-.179.11-.329.027-.333-.185" transform="translate(-413.458 -480.098)" fill="#eae6d6"/>
      <path id="Path_181" data-name="Path 181" d="M427.9,483.92a1.07,1.07,0,0,1,.463-.851c.262-.158.482-.036.489.271a1.082,1.082,0,0,1-.463.851c-.262.161-.482.039-.489-.271" transform="translate(-422.364 -476.755)" fill="#7c5c42"/>
      <path id="Path_182" data-name="Path 182" d="M439.618,499.167a.73.73,0,0,1,.316-.581c.179-.108.329-.024.333.185a.738.738,0,0,1-.316.581c-.178.11-.329.027-.333-.185" transform="translate(-433.934 -492.094)" fill="#664b36"/>
      <path id="Path_183" data-name="Path 183" d="M454.653,507.916a.729.729,0,0,1,.316-.58c.179-.107.329-.024.333.185a.738.738,0,0,1-.316.581c-.178.11-.329.027-.333-.185" transform="translate(-448.775 -500.73)" fill="#eae6d6"/>
      <path id="Path_184" data-name="Path 184" d="M475.4,520.068a.729.729,0,0,1,.316-.58c.179-.107.329-.024.333.185a.737.737,0,0,1-.316.581c-.178.11-.329.027-.333-.185" transform="translate(-469.25 -512.725)" fill="#eae6d6"/>
      <path id="Path_185" data-name="Path 185" d="M493.662,531.152a.73.73,0,0,1,.316-.581c.179-.107.329-.024.333.185a.737.737,0,0,1-.316.581c-.178.11-.329.027-.333-.185" transform="translate(-487.279 -523.666)" fill="#eae6d6"/>
      <path id="Path_186" data-name="Path 186" d="M502.684,528.058a1.07,1.07,0,0,1,.463-.851c.262-.158.482-.036.489.271a1.082,1.082,0,0,1-.463.851c-.262.161-.482.039-.489-.271" transform="translate(-496.185 -520.322)" fill="#7c5c42"/>
      <path id="Path_187" data-name="Path 187" d="M514.406,543.3a.73.73,0,0,1,.316-.581c.178-.107.329-.024.333.185a.738.738,0,0,1-.316.581c-.179.11-.329.027-.333-.185" transform="translate(-507.755 -535.661)" fill="#664b36"/>
      <path id="Path_188" data-name="Path 188" d="M530.842,552.6a.729.729,0,0,1,.316-.58c.179-.108.329-.024.333.185a.738.738,0,0,1-.316.581c-.179.11-.328.027-.333-.185" transform="translate(-523.979 -544.838)" fill="#eae6d6"/>
      <path id="Path_189" data-name="Path 189" d="M551.586,564.754a.73.73,0,0,1,.316-.581c.179-.107.329-.024.333.185a.737.737,0,0,1-.316.581c-.179.11-.329.027-.333-.185" transform="translate(-544.454 -556.834)" fill="#eae6d6"/>
      <path id="Path_190" data-name="Path 190" d="M569.851,575.838a.73.73,0,0,1,.316-.581c.179-.107.329-.024.333.185a.738.738,0,0,1-.316.581c-.178.11-.328.027-.333-.185" transform="translate(-562.483 -567.774)" fill="#eae6d6"/>
      <path id="Path_191" data-name="Path 191" d="M0,232.01a1.07,1.07,0,0,1,.463-.851.522.522,0,0,1,.111-.051h0a.287.287,0,0,1,.233,0L5.8,234.051l.03.017h0l.025.015.938.553,0,0h0l.018.011.606.357.092.052h0a.233.233,0,0,1,.033.021l.1.058.136.077h0a.235.235,0,0,1,.039.026l.465.274-.116.129c0,.008,0,.017,0,.026a1.091,1.091,0,0,1-.429.829l-.107.22-.016-.009,0,0-.179-.1-.08-.047a.231.231,0,0,1-.059-.034h0l-.066-.039-.142-.083a.231.231,0,0,1-.059-.034h0l0,0-.56-.328-.1-.056a.23.23,0,0,1-.059-.034h0l0,0-.05-.03-.157-.092a.231.231,0,0,1-.059-.034h0l0,0-.936-.549h0l-.983-.577,0,0L.158,232.337a.317.317,0,0,1-.122-.147h0A.485.485,0,0,1,0,232.01" transform="translate(0 -228.096)" fill="#e8e8a6"/>
      <path id="Path_192" data-name="Path 192" d="M578.873,572.744a1.07,1.07,0,0,1,.463-.851c.262-.158.482-.036.489.271a1.081,1.081,0,0,1-.463.851c-.262.161-.482.039-.489-.271" transform="translate(-571.389 -564.43)" fill="#c4c4c4"/>
      <path id="Path_193" data-name="Path 193" d="M590.595,587.991a.73.73,0,0,1,.316-.581c.179-.107.329-.024.333.185a.738.738,0,0,1-.316.581c-.179.11-.329.027-.333-.185" transform="translate(-582.959 -579.77)" fill="#a8a8a8"/>
      <path id="Path_194" data-name="Path 194" d="M506.05,1.628l-10.1,5.839-2.841-1.636L503.209,0Z" transform="translate(-486.737 0.002)" fill="#e25a5a"/>
      <path id="Path_195" data-name="Path 195" d="M722.971,126.144v12.491l-10.1,5.82V131.983Z" transform="translate(-703.657 -124.513)" fill="#9b3a3a"/>
      <path id="Path_196" data-name="Path 196" d="M495.953,465.37l-2.841-1.635V451.262l2.841,1.636Z" transform="translate(-486.737 -445.428)" fill="#c44747"/>
      <path id="Path_197" data-name="Path 197" d="M786.727,166.383l-10.1,5.839-2.841-1.636,10.1-5.834Z" transform="translate(-763.784 -162.622)" fill="#e25a5a"/>
      <path id="Path_198" data-name="Path 198" d="M1003.647,290.9v12.491l-10.1,5.82V296.737Z" transform="translate(-980.705 -287.137)" fill="#9b3a3a"/>
      <path id="Path_199" data-name="Path 199" d="M776.63,630.125l-2.841-1.635V616.017l2.841,1.636Z" transform="translate(-763.785 -608.053)" fill="#c44747"/>
      <path id="Path_200" data-name="Path 200" d="M965.4,411.363a14.184,14.184,0,0,1,6.4-11.143c1.817-1.037,3.462-1.088,4.629-.336h0l1.11.711h-.334a5.339,5.339,0,0,1,.988,3.37,14.34,14.34,0,0,1-6.4,11.143,5.17,5.17,0,0,1-3.49.82l.18.383-1.1-.7h0c-1.225-.649-1.993-2.124-1.993-4.249" transform="translate(-952.916 -394.21)" fill="#bbbf16"/>
      <path id="Path_201" data-name="Path 201" d="M1072.2,478.33a14.184,14.184,0,0,1,6.4-11.143c3.519-2.009,6.4-.324,6.4,3.745a14.34,14.34,0,0,1-6.4,11.143c-3.519,2.059-6.4.374-6.4-3.745" transform="translate(-1058.342 -460.31)" fill="#e5e525"/>
      <path id="Path_202" data-name="Path 202" d="M1142.356,541.78a14.185,14.185,0,0,1,6.4-11.143c1.817-1.037,3.462-1.088,4.629-.336h0l1.11.711h-.334a5.34,5.34,0,0,1,.988,3.37,14.34,14.34,0,0,1-6.4,11.143,5.17,5.17,0,0,1-3.49.82l.18.383-1.1-.7h0c-1.225-.649-1.993-2.124-1.993-4.249" transform="translate(-1127.587 -522.941)" fill="#bbbf16"/>
      <path id="Path_203" data-name="Path 203" d="M1249.162,608.747a14.184,14.184,0,0,1,6.4-11.143c3.519-2.009,6.4-.324,6.4,3.745a14.34,14.34,0,0,1-6.4,11.143c-3.519,2.06-6.4.374-6.4-3.745" transform="translate(-1233.012 -589.041)" fill="#e5e525"/>
      <path id="Path_204" data-name="Path 204" d="M1338.975,501.994l-10.1,5.839-2.841-1.636,10.1-5.834Z" transform="translate(-1308.893 -493.894)" fill="#e25a5a"/>
      <path id="Path_205" data-name="Path 205" d="M1555.9,626.509V639l-10.1,5.82V632.348Z" transform="translate(-1525.814 -618.409)" fill="#9b3a3a"/>
      <path id="Path_206" data-name="Path 206" d="M1328.879,965.736l-2.841-1.635V951.628l2.841,1.636Z" transform="translate(-1308.894 -939.325)" fill="#c44747"/>
      <path id="Path_207" data-name="Path 207" d="M1619.652,666.749l-10.1,5.839-2.841-1.636,10.1-5.834Z" transform="translate(-1585.941 -656.519)" fill="#e25a5a"/>
      <path id="Path_208" data-name="Path 208" d="M1836.573,791.264v12.491l-10.1,5.82V797.1Z" transform="translate(-1802.862 -781.034)" fill="#9b3a3a"/>
      <path id="Path_209" data-name="Path 209" d="M1609.555,1130.49l-2.841-1.635v-12.473l2.841,1.636Z" transform="translate(-1585.942 -1101.949)" fill="#c44747"/>
      <path id="Path_210" data-name="Path 210" d="M1798.323,911.729a14.185,14.185,0,0,1,6.4-11.143c1.817-1.038,3.462-1.088,4.629-.336h0l1.11.711h-.334a5.339,5.339,0,0,1,.988,3.37,14.34,14.34,0,0,1-6.4,11.143,5.17,5.17,0,0,1-3.49.82l.18.383-1.1-.7h0c-1.225-.649-1.993-2.124-1.993-4.249" transform="translate(-1775.073 -888.107)" fill="#bbbf16"/>
      <path id="Path_211" data-name="Path 211" d="M1905.129,978.7a14.185,14.185,0,0,1,6.4-11.143c3.519-2.01,6.4-.324,6.4,3.745a14.34,14.34,0,0,1-6.4,11.143c-3.519,2.059-6.4.374-6.4-3.745" transform="translate(-1880.498 -954.207)" fill="#e5e525"/>
      <path id="Path_212" data-name="Path 212" d="M1975.281,1042.146a14.184,14.184,0,0,1,6.4-11.143c1.817-1.037,3.462-1.088,4.63-.336h0l1.11.711h-.334a5.338,5.338,0,0,1,.988,3.37,14.34,14.34,0,0,1-6.4,11.143,5.17,5.17,0,0,1-3.49.82l.18.383-1.1-.7h0c-1.225-.649-1.993-2.124-1.993-4.249" transform="translate(-1949.743 -1016.838)" fill="#bbbf16"/>
      <path id="Path_213" data-name="Path 213" d="M2082.088,1109.113a14.184,14.184,0,0,1,6.4-11.143c3.519-2.01,6.4-.325,6.4,3.745a14.34,14.34,0,0,1-6.4,11.143c-3.519,2.059-6.4.374-6.4-3.745" transform="translate(-2055.169 -1082.938)" fill="#e5e525"/>
      <path id="Path_214" data-name="Path 214" d="M2203.937,1020.28l-10.1,5.839-2.841-1.636,10.1-5.834Z" transform="translate(-2162.672 -1005.479)" fill="#e25a5a"/>
      <path id="Path_215" data-name="Path 215" d="M2420.857,1144.795v12.491l-10.1,5.82v-12.472Z" transform="translate(-2379.593 -1129.994)" fill="#9b3a3a"/>
      <path id="Path_216" data-name="Path 216" d="M2193.84,1484.021l-2.841-1.635v-12.473l2.841,1.636Z" transform="translate(-2162.672 -1450.91)" fill="#c44747"/>
      <path id="Path_217" data-name="Path 217" d="M2484.613,1185.034l-10.1,5.839-2.841-1.635,10.1-5.834Z" transform="translate(-2439.72 -1168.104)" fill="#e25a5a"/>
      <path id="Path_218" data-name="Path 218" d="M2701.534,1309.549v12.491l-10.1,5.82v-12.472Z" transform="translate(-2656.641 -1292.619)" fill="#9b3a3a"/>
      <path id="Path_219" data-name="Path 219" d="M2474.517,1648.776l-2.841-1.635v-12.473l2.841,1.635Z" transform="translate(-2439.72 -1613.534)" fill="#c44747"/>
      <path id="Path_220" data-name="Path 220" d="M2663.284,1430.014a14.184,14.184,0,0,1,6.4-11.143c1.817-1.037,3.462-1.088,4.629-.336h0l1.11.711h-.334a5.339,5.339,0,0,1,.988,3.37,14.339,14.339,0,0,1-6.4,11.143,5.17,5.17,0,0,1-3.49.82l.18.383-1.1-.7h0c-1.225-.649-1.993-2.125-1.993-4.25" transform="translate(-2628.852 -1399.692)" fill="#bbbf16"/>
      <path id="Path_221" data-name="Path 221" d="M2770.091,1496.982a14.184,14.184,0,0,1,6.4-11.142c3.52-2.009,6.4-.324,6.4,3.745a14.339,14.339,0,0,1-6.4,11.143c-3.519,2.06-6.4.375-6.4-3.745" transform="translate(-2734.278 -1465.792)" fill="#e5e525"/>
      <path id="Path_222" data-name="Path 222" d="M2840.242,1560.431a14.184,14.184,0,0,1,6.4-11.143c1.817-1.037,3.462-1.088,4.629-.336h0l1.11.711h-.334a5.34,5.34,0,0,1,.988,3.37,14.341,14.341,0,0,1-6.4,11.143,5.171,5.171,0,0,1-3.49.82l.18.383-1.1-.7h0c-1.225-.649-1.993-2.124-1.993-4.25" transform="translate(-2803.521 -1528.423)" fill="#bbbf16"/>
      <path id="Path_223" data-name="Path 223" d="M2947.049,1627.4a14.184,14.184,0,0,1,6.4-11.143c3.519-2.009,6.4-.324,6.4,3.745a14.34,14.34,0,0,1-6.4,11.143c-3.519,2.06-6.4.374-6.4-3.745" transform="translate(-2908.948 -1594.523)" fill="#e5e525"/>
      <path id="Path_224" data-name="Path 224" d="M3036.862,1520.645l-10.1,5.839-2.841-1.636,10.1-5.834Z" transform="translate(-2984.829 -1499.375)" fill="#e25a5a"/>
      <path id="Path_225" data-name="Path 225" d="M3253.783,1645.16v12.491l-10.1,5.82V1651Z" transform="translate(-3201.75 -1623.891)" fill="#9b3a3a"/>
      <path id="Path_226" data-name="Path 226" d="M3026.765,1984.387l-2.841-1.635v-12.473l2.841,1.636Z" transform="translate(-2984.829 -1944.806)" fill="#c44747"/>
      <path id="Path_227" data-name="Path 227" d="M3317.539,1685.4l-10.1,5.839-2.841-1.635,10.1-5.834Z" transform="translate(-3261.877 -1662)" fill="#e25a5a"/>
      <path id="Path_228" data-name="Path 228" d="M3534.459,1809.915v12.491l-10.1,5.82v-12.472Z" transform="translate(-3478.798 -1786.515)" fill="#9b3a3a"/>
      <path id="Path_229" data-name="Path 229" d="M3307.442,2149.141l-2.841-1.635v-12.473l2.841,1.636Z" transform="translate(-3261.877 -2107.43)" fill="#c44747"/>
      <path id="Path_230" data-name="Path 230" d="M3496.209,1930.38a14.185,14.185,0,0,1,6.4-11.143c1.817-1.037,3.462-1.088,4.629-.336h0l1.11.711h-.334a5.339,5.339,0,0,1,.988,3.37,14.341,14.341,0,0,1-6.4,11.143,5.17,5.17,0,0,1-3.49.82l.18.383-1.1-.7h0c-1.225-.649-1.993-2.124-1.993-4.249" transform="translate(-3451.008 -1893.589)" fill="#bbbf16"/>
      <path id="Path_231" data-name="Path 231" d="M3603.016,1997.347a14.184,14.184,0,0,1,6.4-11.143c3.52-2.01,6.4-.325,6.4,3.745a14.339,14.339,0,0,1-6.4,11.143c-3.519,2.059-6.4.374-6.4-3.745" transform="translate(-3556.434 -1959.688)" fill="#e5e525"/>
      <path id="Path_232" data-name="Path 232" d="M3673.167,2060.8a14.185,14.185,0,0,1,6.4-11.143c1.817-1.037,3.462-1.088,4.629-.336h0l1.11.711h-.334a5.34,5.34,0,0,1,.988,3.37,14.34,14.34,0,0,1-6.4,11.143,5.171,5.171,0,0,1-3.49.82l.179.383-1.1-.7h0c-1.225-.65-1.993-2.125-1.993-4.25" transform="translate(-3625.678 -2022.319)" fill="#bbbf16"/>
      <path id="Path_233" data-name="Path 233" d="M3779.975,2127.764a14.184,14.184,0,0,1,6.4-11.142c3.519-2.01,6.4-.325,6.4,3.744a14.34,14.34,0,0,1-6.4,11.143c-3.519,2.06-6.4.375-6.4-3.745" transform="translate(-3731.105 -2088.419)" fill="#e5e525"/>
      <path id="Path_234" data-name="Path 234" d="M3892.67,2019.347l-10.1,5.839-2.841-1.635,10.1-5.834Z" transform="translate(-3829.573 -1991.63)" fill="#e25a5a"/>
      <path id="Path_235" data-name="Path 235" d="M4109.59,2143.862v12.491l-10.1,5.82V2149.7Z" transform="translate(-4046.493 -2116.145)" fill="#9b3a3a"/>
      <path id="Path_236" data-name="Path 236" d="M3882.573,2483.088l-2.841-1.635V2468.98l2.841,1.635Z" transform="translate(-3829.573 -2437.06)" fill="#c44747"/>
      <path id="Path_237" data-name="Path 237" d="M4173.347,2184.1l-10.1,5.839-2.841-1.635,10.1-5.834Z" transform="translate(-4106.621 -2154.254)" fill="#e25a5a"/>
      <path id="Path_238" data-name="Path 238" d="M4390.267,2308.616v12.491l-10.1,5.82v-12.472Z" transform="translate(-4323.541 -2278.769)" fill="#9b3a3a"/>
      <path id="Path_239" data-name="Path 239" d="M4163.25,2647.843l-2.841-1.635v-12.473l2.841,1.635Z" transform="translate(-4106.621 -2599.684)" fill="#c44747"/>
      <path id="Path_240" data-name="Path 240" d="M4804.527,2990.034a.728.728,0,0,1,.315-.581c.178-.107.329-.024.333.185a.737.737,0,0,1-.316.581c-.178.11-.329.027-.333-.185" transform="translate(-4742.412 -2950.758)" fill="#eae6d6"/>
      <path id="Path_241" data-name="Path 241" d="M4825.271,3002.187a.729.729,0,0,1,.315-.581c.179-.107.328-.024.333.185a.737.737,0,0,1-.315.581c-.178.11-.329.027-.333-.185" transform="translate(-4762.887 -2962.754)" fill="#eae6d6"/>
      <path id="Path_242" data-name="Path 242" d="M4843.536,3013.271a.729.729,0,0,1,.315-.581c.179-.107.329-.024.333.185a.737.737,0,0,1-.315.581c-.178.11-.328.027-.333-.185" transform="translate(-4780.916 -2973.694)" fill="#eae6d6"/>
      <path id="Path_243" data-name="Path 243" d="M4852.56,3010.177a1.069,1.069,0,0,1,.463-.851c.262-.158.482-.036.489.271a1.08,1.08,0,0,1-.463.851c-.262.161-.481.039-.489-.271" transform="translate(-4789.823 -2970.351)" fill="#7c5c42"/>
      <path id="Path_244" data-name="Path 244" d="M4864.281,3025.423a.73.73,0,0,1,.316-.581c.178-.107.329-.024.333.185a.741.741,0,0,1-.316.581c-.179.11-.329.027-.333-.185" transform="translate(-4801.393 -2985.689)" fill="#664b36"/>
      <path id="Path_245" data-name="Path 245" d="M4880.716,3034.721a.729.729,0,0,1,.316-.58c.179-.107.329-.024.333.185a.736.736,0,0,1-.315.581c-.178.11-.329.027-.333-.185" transform="translate(-4817.615 -2994.867)" fill="#eae6d6"/>
      <path id="Path_246" data-name="Path 246" d="M4901.46,3046.873a.732.732,0,0,1,.316-.581c.179-.107.329-.024.333.185a.736.736,0,0,1-.316.581c-.178.11-.328.027-.333-.185" transform="translate(-4838.091 -3006.862)" fill="#eae6d6"/>
      <path id="Path_247" data-name="Path 247" d="M4919.725,3057.957a.728.728,0,0,1,.315-.58c.179-.107.328-.024.333.185a.737.737,0,0,1-.315.581c-.178.11-.329.027-.333-.185" transform="translate(-4856.12 -3017.803)" fill="#eae6d6"/>
      <path id="Path_248" data-name="Path 248" d="M4928.749,3054.863a1.07,1.07,0,0,1,.463-.851c.262-.158.482-.036.489.271a1.081,1.081,0,0,1-.463.851c-.262.161-.482.039-.489-.271" transform="translate(-4865.027 -3014.459)" fill="#7c5c42"/>
      <path id="Path_249" data-name="Path 249" d="M4940.47,3070.11a.728.728,0,0,1,.315-.581c.179-.107.329-.024.333.185a.738.738,0,0,1-.316.581c-.178.11-.328.027-.333-.185" transform="translate(-4876.597 -3029.799)" fill="#664b36"/>
      <path id="Path_250" data-name="Path 250" d="M4955.5,3078.858a.729.729,0,0,1,.315-.581c.179-.108.329-.024.333.185a.735.735,0,0,1-.315.58c-.178.11-.328.027-.333-.185" transform="translate(-4891.437 -3038.433)" fill="#eae6d6"/>
      <path id="Path_251" data-name="Path 251" d="M4976.249,3091.011a.728.728,0,0,1,.315-.581c.179-.108.329-.024.333.185a.737.737,0,0,1-.315.58c-.179.11-.329.027-.333-.185" transform="translate(-4911.913 -3050.429)" fill="#eae6d6"/>
      <path id="Path_252" data-name="Path 252" d="M4994.514,3102.094a.73.73,0,0,1,.316-.581c.179-.108.329-.024.333.185a.737.737,0,0,1-.316.58c-.178.11-.328.027-.333-.185" transform="translate(-4929.942 -3061.369)" fill="#eae6d6"/>
      <path id="Path_253" data-name="Path 253" d="M5003.536,3099a1.072,1.072,0,0,1,.463-.851c.263-.158.482-.036.489.271a1.08,1.08,0,0,1-.463.851c-.262.161-.482.039-.489-.271" transform="translate(-4938.848 -3058.026)" fill="#7c5c42"/>
      <path id="Path_254" data-name="Path 254" d="M5015.258,3114.247a.729.729,0,0,1,.316-.58c.178-.108.329-.025.333.185a.737.737,0,0,1-.315.58c-.179.11-.328.027-.333-.185" transform="translate(-4950.418 -3073.365)" fill="#664b36"/>
      <path id="Path_255" data-name="Path 255" d="M5031.694,3123.544a.732.732,0,0,1,.316-.581c.179-.108.329-.024.333.185a.736.736,0,0,1-.315.58c-.179.11-.329.027-.334-.185" transform="translate(-4966.641 -3082.541)" fill="#eae6d6"/>
      <path id="Path_256" data-name="Path 256" d="M5052.438,3135.7a.73.73,0,0,1,.316-.581c.178-.107.329-.024.333.185a.738.738,0,0,1-.316.58c-.179.11-.328.027-.333-.185" transform="translate(-4987.117 -3094.538)" fill="#eae6d6"/>
      <path id="Path_257" data-name="Path 257" d="M5070.7,3146.78a.729.729,0,0,1,.315-.581c.179-.107.329-.024.333.185a.738.738,0,0,1-.315.58c-.179.11-.329.027-.333-.185" transform="translate(-5005.146 -3105.478)" fill="#eae6d6"/>
      <path id="Path_258" data-name="Path 258" d="M5079.726,3143.687a1.07,1.07,0,0,1,.463-.851c.262-.158.482-.036.489.271a1.083,1.083,0,0,1-.463.852c-.262.161-.482.039-.489-.271" transform="translate(-5014.052 -3102.135)" fill="#7c5c42"/>
      <path id="Path_259" data-name="Path 259" d="M5091.447,3158.933a.729.729,0,0,1,.316-.58c.178-.108.328-.024.333.185a.737.737,0,0,1-.315.58c-.179.11-.329.027-.333-.185" transform="translate(-5025.622 -3117.473)" fill="#664b36"/>
      <path id="Path_260" data-name="Path 260" d="M5073.448,3148.14a.729.729,0,0,1,.316-.581c.178-.108.329-.024.333.185a.737.737,0,0,1-.316.58c-.178.11-.328.027-.333-.185" transform="translate(-5007.855 -3106.82)" fill="#eae6d6"/>
      <path id="Path_261" data-name="Path 261" d="M5094.192,3160.293a.729.729,0,0,1,.316-.581c.179-.107.329-.024.333.185a.739.739,0,0,1-.316.581c-.179.11-.329.027-.333-.185" transform="translate(-5028.331 -3118.816)" fill="#eae6d6"/>
      <path id="Path_262" data-name="Path 262" d="M5112.457,3171.376a.732.732,0,0,1,.316-.581c.179-.107.329-.024.333.185a.738.738,0,0,1-.316.581c-.178.11-.329.027-.333-.185" transform="translate(-5046.36 -3129.755)" fill="#eae6d6"/>
      <path id="Path_263" data-name="Path 263" d="M5121.479,3168.281a1.071,1.071,0,0,1,.463-.852c.262-.157.482-.035.489.271a1.081,1.081,0,0,1-.463.852c-.262.161-.482.039-.489-.271" transform="translate(-5055.266 -3126.412)" fill="#7c5c42"/>
      <path id="Path_264" data-name="Path 264" d="M5133.2,3183.529a.729.729,0,0,1,.316-.581c.178-.107.329-.024.333.185a.741.741,0,0,1-.316.581c-.178.11-.329.027-.333-.185" transform="translate(-5066.836 -3141.751)" fill="#664b36"/>
      <path id="Path_265" data-name="Path 265" d="M5149.637,3192.826a.732.732,0,0,1,.316-.581c.179-.107.329-.024.333.185a.737.737,0,0,1-.316.58c-.178.11-.328.027-.333-.185" transform="translate(-5083.059 -3150.928)" fill="#eae6d6"/>
      <path id="Path_266" data-name="Path 266" d="M5170.381,3204.979a.729.729,0,0,1,.316-.58c.178-.108.329-.024.333.185a.738.738,0,0,1-.316.58c-.179.11-.329.027-.333-.185" transform="translate(-5103.535 -3162.924)" fill="#eae6d6"/>
      <path id="Path_267" data-name="Path 267" d="M5188.646,3216.062a.73.73,0,0,1,.316-.581c.179-.107.329-.024.333.185a.738.738,0,0,1-.316.581c-.179.11-.328.027-.333-.185" transform="translate(-5121.563 -3173.864)" fill="#eae6d6"/>
      <path id="Path_268" data-name="Path 268" d="M5197.669,3212.969a1.072,1.072,0,0,1,.463-.852c.262-.158.482-.036.489.271a1.082,1.082,0,0,1-.463.851c-.262.162-.482.04-.489-.271" transform="translate(-5130.47 -3170.521)" fill="#7c5c42"/>
      <path id="Path_269" data-name="Path 269" d="M5209.39,3228.215a.729.729,0,0,1,.316-.581c.178-.107.329-.024.333.185a.738.738,0,0,1-.316.581c-.178.11-.328.027-.333-.185" transform="translate(-5142.04 -3185.859)" fill="#664b36"/>
      <path id="Path_270" data-name="Path 270" d="M5224.425,3236.963a.732.732,0,0,1,.316-.581c.179-.108.329-.024.333.185a.735.735,0,0,1-.316.58c-.178.11-.329.027-.333-.185" transform="translate(-5156.881 -3194.494)" fill="#eae6d6"/>
      <path id="Path_271" data-name="Path 271" d="M5245.169,3249.116a.73.73,0,0,1,.316-.581c.179-.107.329-.024.333.185a.739.739,0,0,1-.316.581c-.179.11-.328.027-.333-.185" transform="translate(-5177.356 -3206.49)" fill="#eae6d6"/>
      <path id="Path_272" data-name="Path 272" d="M5263.434,3260.2a.729.729,0,0,1,.316-.581c.179-.108.328-.024.333.185a.738.738,0,0,1-.316.58c-.178.11-.329.027-.333-.185" transform="translate(-5195.385 -3217.431)" fill="#eae6d6"/>
      <path id="Path_273" data-name="Path 273" d="M5272.457,3257.105a1.071,1.071,0,0,1,.463-.852c.262-.158.482-.036.489.271a1.082,1.082,0,0,1-.463.851c-.262.162-.482.04-.489-.271" transform="translate(-5204.292 -3214.087)" fill="#7c5c42"/>
      <path id="Path_274" data-name="Path 274" d="M5284.179,3272.352a.729.729,0,0,1,.315-.581c.179-.107.328-.024.333.185a.737.737,0,0,1-.315.581c-.178.11-.329.027-.333-.185" transform="translate(-5215.862 -3229.425)" fill="#664b36"/>
      <path id="Path_275" data-name="Path 275" d="M5300.615,3281.65a.728.728,0,0,1,.316-.58c.178-.107.328-.024.333.185a.738.738,0,0,1-.315.581c-.179.11-.329.027-.333-.185" transform="translate(-5232.086 -3238.604)" fill="#eae6d6"/>
      <path id="Path_276" data-name="Path 276" d="M5321.358,3293.8a.729.729,0,0,1,.316-.581c.178-.107.329-.024.333.185a.737.737,0,0,1-.316.58c-.178.11-.328.027-.333-.185" transform="translate(-5252.561 -3250.598)" fill="#eae6d6"/>
      <path id="Path_277" data-name="Path 277" d="M5339.623,3304.886a.729.729,0,0,1,.316-.581c.179-.108.329-.024.333.185a.738.738,0,0,1-.316.581c-.179.11-.328.027-.333-.185" transform="translate(-5270.589 -3261.539)" fill="#eae6d6"/>
      <path id="Path_278" data-name="Path 278" d="M4769.773,2961.059a1.071,1.071,0,0,1,.463-.852.5.5,0,0,1,.111-.051h0a.287.287,0,0,1,.233,0l4.99,2.941.03.017h0a.192.192,0,0,1,.025.016l.938.553,0,0h0l.019.011.606.357.092.052h0a.3.3,0,0,1,.033.021l.1.059.136.077h0a.215.215,0,0,1,.04.026l.465.274-.116.129a.225.225,0,0,1,0,.026,1.089,1.089,0,0,1-.429.829l-.107.22-.016-.009,0,0-.179-.1-.081-.047a.222.222,0,0,1-.059-.034h0l-.067-.039-.141-.083a.214.214,0,0,1-.059-.034h0l-.56-.329-.1-.056a.23.23,0,0,1-.059-.034h0l-.05-.03-.157-.092a.232.232,0,0,1-.059-.034h0l0,0-.936-.549h0l-.982-.576,0,0-3.966-2.327a.312.312,0,0,1-.122-.147h0a.5.5,0,0,1-.036-.18" transform="translate(-4708.106 -2921.861)" fill="#e8e8a6"/>
      <path id="Path_279" data-name="Path 279" d="M5348.646,3301.792a1.07,1.07,0,0,1,.463-.851c.262-.157.482-.035.489.271a1.083,1.083,0,0,1-.463.851c-.262.161-.482.039-.489-.271" transform="translate(-5279.496 -3258.196)" fill="#c4c4c4"/>
      <path id="Path_280" data-name="Path 280" d="M5360.367,3317.039a.732.732,0,0,1,.316-.581c.179-.107.329-.024.333.185a.737.737,0,0,1-.316.581c-.178.11-.328.027-.333-.185" transform="translate(-5291.065 -3273.535)" fill="#a8a8a8"/>
      <path id="Path_281" data-name="Path 281" d="M5348.42,3310.925a.729.729,0,0,1,.316-.581c.179-.107.329-.024.333.185a.738.738,0,0,1-.316.581c-.179.11-.329.027-.333-.185" transform="translate(-5279.272 -3267.5)" fill="#eae6d6"/>
      <path id="Path_282" data-name="Path 282" d="M5369.164,3323.078a.729.729,0,0,1,.315-.581c.179-.107.328-.024.333.185a.737.737,0,0,1-.315.581c-.179.11-.329.027-.333-.185" transform="translate(-5299.749 -3279.496)" fill="#eae6d6"/>
      <path id="Path_283" data-name="Path 283" d="M5387.429,3334.161a.729.729,0,0,1,.316-.581c.178-.108.329-.024.333.185a.739.739,0,0,1-.316.581c-.179.11-.329.027-.333-.185" transform="translate(-5317.777 -3290.436)" fill="#eae6d6"/>
      <path id="Path_284" data-name="Path 284" d="M5396.452,3331.067a1.07,1.07,0,0,1,.463-.851c.262-.158.482-.036.489.271a1.083,1.083,0,0,1-.463.852c-.262.161-.482.039-.489-.271" transform="translate(-5326.684 -3287.092)" fill="#7c5c42"/>
      <path id="Path_285" data-name="Path 285" d="M5408.173,3346.314a.731.731,0,0,1,.316-.581c.179-.107.329-.024.333.185a.737.737,0,0,1-.316.581c-.179.11-.329.027-.333-.185" transform="translate(-5338.253 -3302.432)" fill="#664b36"/>
      <path id="Path_286" data-name="Path 286" d="M5424.609,3355.611a.727.727,0,0,1,.316-.581c.178-.108.329-.025.333.185a.739.739,0,0,1-.316.58c-.179.11-.329.027-.333-.185" transform="translate(-5354.476 -3311.608)" fill="#eae6d6"/>
      <path id="Path_287" data-name="Path 287" d="M5445.353,3367.764a.733.733,0,0,1,.316-.581c.179-.107.329-.024.333.185a.737.737,0,0,1-.316.58c-.178.11-.329.027-.333-.185" transform="translate(-5374.952 -3323.604)" fill="#eae6d6"/>
      <path id="Path_288" data-name="Path 288" d="M5463.618,3378.847a.73.73,0,0,1,.316-.581c.178-.108.329-.024.333.185a.737.737,0,0,1-.315.58c-.179.11-.329.027-.333-.185" transform="translate(-5392.981 -3334.544)" fill="#eae6d6"/>
      <path id="Path_289" data-name="Path 289" d="M5472.64,3375.754a1.069,1.069,0,0,1,.463-.851c.261-.158.481-.036.489.271a1.08,1.08,0,0,1-.463.851c-.261.161-.481.039-.489-.271" transform="translate(-5401.887 -3331.201)" fill="#7c5c42"/>
      <path id="Path_290" data-name="Path 290" d="M5484.362,3391a.729.729,0,0,1,.316-.581c.179-.107.329-.024.333.185a.74.74,0,0,1-.315.581c-.179.11-.329.027-.334-.185" transform="translate(-5413.457 -3346.54)" fill="#664b36"/>
      <path id="Path_291" data-name="Path 291" d="M5499.4,3399.749a.73.73,0,0,1,.316-.581c.179-.107.329-.024.333.185a.739.739,0,0,1-.316.581c-.179.11-.329.027-.333-.185" transform="translate(-5428.297 -3355.176)" fill="#eae6d6"/>
      <path id="Path_292" data-name="Path 292" d="M5520.141,3411.9a.73.73,0,0,1,.316-.58c.179-.108.329-.024.333.185a.736.736,0,0,1-.316.581c-.178.11-.329.027-.333-.185" transform="translate(-5448.773 -3367.171)" fill="#eae6d6"/>
      <path id="Path_293" data-name="Path 293" d="M5538.407,3422.985a.73.73,0,0,1,.315-.581c.179-.107.329-.024.333.185a.738.738,0,0,1-.316.581c-.178.11-.329.027-.333-.185" transform="translate(-5466.804 -3378.111)" fill="#eae6d6"/>
      <path id="Path_294" data-name="Path 294" d="M5547.43,3419.891a1.068,1.068,0,0,1,.463-.851c.262-.158.481-.036.488.271a1.079,1.079,0,0,1-.463.851c-.262.161-.481.039-.488-.271" transform="translate(-5475.709 -3374.768)" fill="#7c5c42"/>
      <path id="Path_295" data-name="Path 295" d="M5559.15,3435.137a.73.73,0,0,1,.316-.581c.179-.108.329-.024.333.185a.738.738,0,0,1-.316.58c-.179.11-.328.027-.333-.185" transform="translate(-5487.278 -3390.106)" fill="#664b36"/>
      <path id="Path_296" data-name="Path 296" d="M5575.586,3444.435a.729.729,0,0,1,.316-.58c.178-.107.329-.024.333.185a.737.737,0,0,1-.316.581c-.178.11-.328.027-.333-.185" transform="translate(-5503.502 -3399.284)" fill="#eae6d6"/>
      <path id="Path_297" data-name="Path 297" d="M5596.331,3456.587a.728.728,0,0,1,.316-.58c.179-.108.329-.024.333.185a.738.738,0,0,1-.316.581c-.179.11-.329.027-.333-.185" transform="translate(-5523.978 -3411.279)" fill="#eae6d6"/>
      <path id="Path_298" data-name="Path 298" d="M5614.595,3467.671a.731.731,0,0,1,.315-.58c.179-.107.329-.024.334.185a.738.738,0,0,1-.316.581c-.178.11-.328.027-.333-.185" transform="translate(-5542.006 -3422.219)" fill="#eae6d6"/>
      <path id="Path_299" data-name="Path 299" d="M5623.618,3464.577a1.072,1.072,0,0,1,.463-.851c.262-.158.482-.036.489.271a1.082,1.082,0,0,1-.463.851c-.262.161-.482.039-.489-.271" transform="translate(-5550.913 -3418.876)" fill="#7c5c42"/>
      <path id="Path_300" data-name="Path 300" d="M5635.34,3479.824a.729.729,0,0,1,.316-.581c.178-.108.329-.025.333.185a.737.737,0,0,1-.315.58c-.179.11-.329.027-.333-.185" transform="translate(-5562.483 -3434.216)" fill="#664b36"/>
      <path id="Path_301" data-name="Path 301" d="M5617.341,3469.031a.729.729,0,0,1,.316-.581c.178-.107.329-.024.333.185a.74.74,0,0,1-.316.581c-.178.11-.328.027-.333-.185" transform="translate(-5544.717 -3423.562)" fill="#eae6d6"/>
      <path id="Path_302" data-name="Path 302" d="M5638.085,3481.183a.729.729,0,0,1,.316-.58c.178-.108.328-.024.333.185a.735.735,0,0,1-.315.58c-.179.11-.329.027-.333-.185" transform="translate(-5565.193 -3435.557)" fill="#eae6d6"/>
      <path id="Path_303" data-name="Path 303" d="M5656.349,3492.267a.729.729,0,0,1,.316-.581c.178-.107.329-.024.333.185a.741.741,0,0,1-.316.581c-.179.11-.328.027-.333-.185" transform="translate(-5583.22 -3446.498)" fill="#eae6d6"/>
      <path id="Path_304" data-name="Path 304" d="M5665.372,3489.173a1.069,1.069,0,0,1,.463-.852c.262-.158.481-.036.489.271a1.082,1.082,0,0,1-.463.852c-.261.161-.482.039-.489-.271" transform="translate(-5592.127 -3443.154)" fill="#7c5c42"/>
      <path id="Path_305" data-name="Path 305" d="M5677.094,3504.419a.731.731,0,0,1,.316-.581c.179-.107.329-.024.333.185a.739.739,0,0,1-.316.581c-.178.11-.328.027-.333-.185" transform="translate(-5603.697 -3458.492)" fill="#664b36"/>
      <path id="Path_306" data-name="Path 306" d="M5693.53,3513.717a.729.729,0,0,1,.316-.581c.178-.107.329-.024.333.185a.738.738,0,0,1-.315.581c-.178.11-.329.027-.333-.185" transform="translate(-5619.92 -3467.67)" fill="#eae6d6"/>
      <path id="Path_307" data-name="Path 307" d="M5714.273,3525.87a.73.73,0,0,1,.316-.581c.179-.107.329-.024.333.185a.736.736,0,0,1-.315.58c-.179.11-.329.027-.334-.185" transform="translate(-5640.396 -3479.666)" fill="#eae6d6"/>
      <path id="Path_308" data-name="Path 308" d="M5732.539,3536.953a.73.73,0,0,1,.315-.581c.179-.107.329-.024.333.185a.737.737,0,0,1-.315.581c-.178.11-.329.027-.333-.185" transform="translate(-5658.425 -3490.606)" fill="#eae6d6"/>
      <path id="Path_309" data-name="Path 309" d="M5741.561,3533.859a1.071,1.071,0,0,1,.463-.852c.262-.157.482-.035.489.271a1.083,1.083,0,0,1-.463.852c-.262.161-.481.039-.489-.271" transform="translate(-5667.331 -3487.262)" fill="#7c5c42"/>
      <path id="Path_310" data-name="Path 310" d="M5753.283,3549.106a.727.727,0,0,1,.315-.581c.178-.107.329-.024.333.185a.741.741,0,0,1-.315.581c-.179.11-.329.027-.333-.185" transform="translate(-5678.901 -3502.602)" fill="#664b36"/>
      <path id="Path_311" data-name="Path 311" d="M5768.318,3557.854a.729.729,0,0,1,.315-.581c.179-.107.329-.024.333.185a.737.737,0,0,1-.315.581c-.178.11-.328.027-.333-.185" transform="translate(-5693.742 -3511.237)" fill="#eae6d6"/>
      <path id="Path_312" data-name="Path 312" d="M5789.061,3570.007a.732.732,0,0,1,.316-.581c.179-.107.329-.024.333.185a.737.737,0,0,1-.315.581c-.179.11-.329.027-.334-.185" transform="translate(-5714.217 -3523.232)" fill="#eae6d6"/>
      <path id="Path_313" data-name="Path 313" d="M5807.327,3581.09a.73.73,0,0,1,.316-.581c.179-.107.329-.024.333.185a.738.738,0,0,1-.316.581c-.178.11-.329.027-.333-.185" transform="translate(-5732.246 -3534.172)" fill="#eae6d6"/>
      <path id="Path_314" data-name="Path 314" d="M5816.35,3578a1.072,1.072,0,0,1,.463-.851c.262-.158.482-.036.489.271a1.081,1.081,0,0,1-.463.852c-.262.161-.482.039-.489-.271" transform="translate(-5741.152 -3530.828)" fill="#7c5c42"/>
      <path id="Path_315" data-name="Path 315" d="M5828.071,3593.243a.729.729,0,0,1,.315-.581c.179-.107.329-.024.334.185a.739.739,0,0,1-.316.581c-.179.11-.329.027-.333-.185" transform="translate(-5752.722 -3546.168)" fill="#664b36"/>
      <path id="Path_316" data-name="Path 316" d="M5844.506,3602.54a.729.729,0,0,1,.316-.581c.179-.107.329-.024.333.185a.737.737,0,0,1-.315.581c-.178.11-.329.027-.333-.185" transform="translate(-5768.945 -3555.345)" fill="#eae6d6"/>
      <path id="Path_317" data-name="Path 317" d="M5865.25,3614.693a.732.732,0,0,1,.316-.581c.179-.107.329-.024.333.185a.736.736,0,0,1-.316.581c-.179.11-.328.027-.333-.185" transform="translate(-5789.421 -3567.341)" fill="#eae6d6"/>
      <path id="Path_318" data-name="Path 318" d="M5883.515,3625.776a.732.732,0,0,1,.316-.581c.179-.107.329-.024.333.185a.737.737,0,0,1-.315.581c-.179.11-.329.027-.334-.185" transform="translate(-5807.45 -3578.281)" fill="#eae6d6"/>
      <path id="Path_319" data-name="Path 319" d="M5313.666,3281.949a1.07,1.07,0,0,1,.463-.851.515.515,0,0,1,.111-.051h0a.286.286,0,0,1,.233,0l4.989,2.941.03.017h0l.025.016.938.553,0,0h0l.019.011.606.357.092.052h0a.234.234,0,0,1,.033.021l.1.059.136.077h0a.253.253,0,0,1,.04.026l.465.274-.116.129c0,.009,0,.017,0,.026a1.092,1.092,0,0,1-.429.829l-.107.22-.016-.009,0,0-.179-.1-.081-.047a.244.244,0,0,1-.059-.034h0l-.066-.039-.142-.083a.227.227,0,0,1-.059-.034h0v0l-.56-.328-.1-.056a.229.229,0,0,1-.059-.034h0l0,0-.05-.03-.157-.092a.22.22,0,0,1-.059-.034h0l0,0-.936-.549h0l-.983-.577,0,0-3.966-2.327a.315.315,0,0,1-.123-.147h0a.488.488,0,0,1-.035-.18" transform="translate(-5244.968 -3238.603)" fill="#e8e8a6"/>
      <path id="Path_320" data-name="Path 320" d="M5892.539,3622.682a1.071,1.071,0,0,1,.463-.852c.262-.158.482-.036.489.271a1.08,1.08,0,0,1-.463.851c-.262.162-.482.04-.489-.271" transform="translate(-5816.357 -3574.938)" fill="#c6c48b"/>
    </g>
  </g>
<!-- Code injected by live-server -->
<script>
	// <![CDATA[  <-- For SVG support
	if ('WebSocket' in window) {
		(function () {
			function refreshCSS() {
				var sheets = [].slice.call(document.getElementsByTagName("link"));
				var head = document.getElementsByTagName("head")[0];
				for (var i = 0; i < sheets.length; ++i) {
					var elem = sheets[i];
					var parent = elem.parentElement || head;
					parent.removeChild(elem);
					var rel = elem.rel;
					if (elem.href && typeof rel != "string" || rel.length == 0 || rel.toLowerCase() == "stylesheet") {
						var url = elem.href.replace(/(&|\?)_cacheOverride=\d+/, '');
						elem.href = url + (url.indexOf('?') >= 0 ? '&' : '?') + '_cacheOverride=' + (new Date().valueOf());
					}
					parent.appendChild(elem);
				}
			}
			var protocol = window.location.protocol === 'http:' ? 'ws://' : 'wss://';
			var address = protocol + window.location.host + window.location.pathname + '/ws';
			var socket = new WebSocket(address);
			socket.onmessage = function (msg) {
				if (msg.data == 'reload') window.location.reload();
				else if (msg.data == 'refreshcss') refreshCSS();
			};
			if (sessionStorage && !sessionStorage.getItem('IsThisFirstTime_Log_From_LiveServer')) {
				console.log('Live reload enabled.');
				sessionStorage.setItem('IsThisFirstTime_Log_From_LiveServer', true);
			}
		})();
	}
	else {
		console.error('Upgrade your browser. This Browser is NOT supported WebSocket for Live-Reloading.');
	}
	// ]]>
</script>
</svg>
