<svg xmlns="http://www.w3.org/2000/svg" width="11.756" height="14.999" viewBox="0 0 11.756 14.999">
  <g id="Pin" transform="translate(-5.811 -3.001)">
    <path id="Path_1" data-name="Path 1" d="M16.908,6.164a5.769,5.769,0,0,0-4.564-3.13,6.556,6.556,0,0,0-1.309,0A5.77,5.77,0,0,0,6.47,6.163a6.234,6.234,0,0,0,.854,6.861l3.919,4.764a.577.577,0,0,0,.891,0l3.919-4.764a6.234,6.234,0,0,0,.854-6.861Zm-5.219,4.913A2.308,2.308,0,1,1,14,8.769,2.308,2.308,0,0,1,11.689,11.077Z" transform="translate(0 0)"/>
  </g>
</svg>
