<svg xmlns="http://www.w3.org/2000/svg" width="95.832" height="505.394" viewBox="0 0 95.832 505.394">
  <g id="Group_5" data-name="Group 5" transform="translate(-321.417 -1021.552)">
    <g id="Group_4" data-name="Group 4">
      <g id="Group_1" data-name="Group 1" transform="translate(14819.127 -2152.904)">
        <path id="Path_7" data-name="Path 7" d="M30.184,29.49a1.112,1.112,0,0,0-.381-.9l-1.88-1.568a.16.16,0,0,0-.218-.007.164.164,0,0,0,.04.23l1.5,1.271a.165.165,0,1,1-.219.237l-1.468-1.3a.157.157,0,1,0-.209.227l1.415,1.357a.165.165,0,1,1-.219.237l-1.389-1.386a.165.165,0,0,0-.233-.021.16.16,0,0,0,.025.217l1.716,1.746a1.112,1.112,0,0,0,.933.306.644.644,0,0,1,.573.219c1.036,1.142,2.893,3.063,3.094,3.248.292.269.541.237.706.058a.672.672,0,0,0-.185-.86c-.2-.185-2.109-1.816-3.331-2.755a.643.643,0,0,1-.265-.553" transform="translate(-14514.237 3156.161)"/>
        <path id="Path_8" data-name="Path 8" d="M.956,11.256s-2.033-2.732.127-7.193S7.94-.568,11.864.643c0,0-8.049.074-10.909,10.614" transform="translate(-14496.061 3174.456)"/>
        <path id="Path_9" data-name="Path 9" d="M73,11.256s2.033-2.732-.127-7.193S66.012-.568,62.088.643c0,0,8.049.074,10.909,10.614" transform="translate(-14538.116 3174.456)"/>
        <path id="Path_10" data-name="Path 10" d="M0,27.218l.076.04L0,27.3v-.079" transform="translate(-14496 3155.993)"/>
        <path id="Path_12" data-name="Path 12" d="M20.308,32.845a13.275,13.275,0,0,1-9.484-3.932A12.977,12.977,0,0,1,6.8,20.234,13.092,13.092,0,0,1,10.836,9.769a13.069,13.069,0,0,1,9.451-3.948A13.291,13.291,0,0,1,30,9.785a13.068,13.068,0,0,1,4.006,9.655,13.512,13.512,0,0,1-13.7,13.4m.14-2.559A10.72,10.72,0,0,0,28.7,26.537,10.662,10.662,0,0,0,31.325,17.9,11.033,11.033,0,1,0,20.448,30.285" transform="translate(-14500.592 3170.507)"/>
        <path id="Path_28" data-name="Path 28" d="M51.016,29.746l3.974-3.551a.12.12,0,0,0,.04-.125.088.088,0,0,0-.1-.054,5.819,5.819,0,0,0-2.83,1.407l-1.454,1.3a.374.374,0,0,0-.081.517l.092.1c-1.372,1.044-3.224,2.579-3.434,2.766-.331.3-.45.7-.267.906s.6.132.931-.164c.21-.188,1.942-1.857,3.134-3.1" transform="translate(-14527.79 3156.81)"/>
      </g>
      <path id="XMLID_219_" d="M30.854,16.548A2.216,2.216,0,0,1,28.764,18H28V29a1,1,0,0,1-1,1H21V23a5,5,0,0,0-10,0v7H5a1,1,0,0,1-1-1V18H3.235a2.238,2.238,0,0,1-1.47-3.921L13.444,3.019a3.718,3.718,0,0,1,5.112,0L30.263,14.105A2.2,2.2,0,0,1,30.854,16.548Z" transform="translate(323.874 1077.999)"/>
      <path id="_928412_call_communication_contact_phone_service_icon" data-name="928412_call_communication_contact_phone_service_icon" d="M27.375,30.648a20.361,20.361,0,0,1-4.3-5.145l-.558-1.052c.2-.209,1.683-1.8,2.328-2.667.81-1.085-.365-2.066-.365-2.066s-3.306-3.306-4.059-3.962a1.622,1.622,0,0,0-1.621-.292c-1.583,1.023-3.225,1.912-3.323,6.19,0,4,3.036,8.136,6.324,11.333,3.293,3.611,7.814,7.231,12.185,7.227,4.277-.1,5.166-1.739,6.189-3.322a1.622,1.622,0,0,0-.291-1.621c-.656-.754-3.963-4.06-3.963-4.06s-.98-1.175-2.065-.364c-.809.6-2.262,1.95-2.612,2.276A28.982,28.982,0,0,1,27.375,30.648Z" transform="translate(311.125 1125.345)"/>
      <g id="_3669434_feedback_ic_icon" data-name="3669434_feedback_ic_icon" transform="translate(325.126 1202.126)">
        <path id="Path_29" data-name="Path 29" d="M0,0H29.748V29.748H0Z" fill="none"/>
        <path id="Path_30" data-name="Path 30" d="M26.311,4H6.479A2.468,2.468,0,0,0,4.012,6.479L4,28.79l4.958-4.958H26.311a2.478,2.478,0,0,0,2.479-2.479V6.479A2.478,2.478,0,0,0,26.311,4ZM17.635,18.874H15.156V16.4h2.479Zm0-4.958H15.156V8.958h2.479Z" transform="translate(-1.521 -1.521)"/>
      </g>
      <g id="Group_3" data-name="Group 3" transform="translate(-101.392 -36.222)">
        <path id="Path_31" data-name="Path 31" d="M64.564,295.682c-.577-.556-.827-.689-.985-.689a.378.378,0,0,0-.175.052,13.589,13.589,0,0,0-3.187,2.333v0c-.106.224-.037.422.129.848a6.369,6.369,0,0,1,.269.8,17.137,17.137,0,0,1,.215,4.711,13.065,13.065,0,0,0,.246,4.349c.016.048.032.057.057.066a1.582,1.582,0,0,0,1.038-.292c.44-.26,1.291-.667,2.278-1.139,1.543-.738,4.414-2.112,4.678-2.579a2.06,2.06,0,0,0-.245-1.491A35.219,35.219,0,0,0,64.564,295.682Zm.448,8.3a.846.846,0,1,1,.75-.94A.842.842,0,0,1,65.012,303.983Z" transform="translate(362.644 1013.556)"/>
        <path id="Path_32" data-name="Path 32" d="M226.728,70.3l-4.583-1.528L217.561,70.3v4.283h9.167Z" transform="translate(219.246 1224.407)"/>
        <path id="Path_33" data-name="Path 33" d="M149.15,175.762l2.083-4.167H126.747l2.083,4.167Z" transform="translate(301.984 1128.353)"/>
        <path id="Path_34" data-name="Path 34" d="M149.308,266.908a3.683,3.683,0,0,0-2.493-.554,18.154,18.154,0,0,0-7.22,3.487,1.641,1.641,0,0,1-.363.471,3.614,3.614,0,0,1-2.41.658,22.634,22.634,0,0,1-5.371-.925l-.3-.079a.417.417,0,1,1,.209-.807l.3.081a29.358,29.358,0,0,0,3.692.793c2.118.279,2.972-.031,3.315-.34a.789.789,0,0,0,.206-.283l0,0c.008-.017.014-.036.021-.054s.008-.023.012-.036l0-.008a1.377,1.377,0,0,0,.015-.588,2.1,2.1,0,0,0-.994-1.311c-2.735-1.908-9.431-2.36-11.428-1.959h0a23.286,23.286,0,0,0-5.933,2.8l-.333.195c.037.045.076.091.115.14l0,0a25.785,25.785,0,0,1,1.611,2.342l0,0,.138.222.007.011q.136.22.27.444l.011.019.128.213.016.027.127.214,0,.008.119.2.019.032.115.2.024.042.113.2.017.03.1.175.023.041.1.183.028.051.1.178.023.042.082.151.024.044.09.167.027.051.086.162.02.039.073.139.019.037.078.151.022.044.073.144.017.034.062.126.012.025.064.133.009.018a11.824,11.824,0,0,1,4.109-.836,11.53,11.53,0,0,1,3.741.741,11.477,11.477,0,0,0,4.816.737c1.4-.1,4.624-1.5,7.661-3.327,3.636-2.183,5.239-3.9,5.19-4.58A1.039,1.039,0,0,0,149.308,266.908Z" transform="translate(307.908 1040.595)"/>
        <rect id="Rectangle_11" data-name="Rectangle 11" width="1.667" height="1.667" transform="translate(431.39 1295.236)"/>
        <rect id="Rectangle_12" data-name="Rectangle 12" width="1.667" height="1.667" transform="translate(428.89 1295.236)"/>
        <rect id="Rectangle_13" data-name="Rectangle 13" width="1.667" height="1.667" transform="translate(426.39 1295.236)"/>
        <rect id="Rectangle_14" data-name="Rectangle 14" width="1.667" height="1.667" transform="translate(454.725 1295.236)"/>
        <rect id="Rectangle_15" data-name="Rectangle 15" width="1.667" height="1.667" transform="translate(452.225 1295.236)"/>
        <rect id="Rectangle_16" data-name="Rectangle 16" width="1.667" height="1.667" transform="translate(449.724 1295.236)"/>
      </g>
      <g id="Icons" transform="translate(324.126 1319.366)">
        <g id="Group" transform="translate(1 1)">
          <g id="Shape">
            <path id="Path_35" data-name="Path 35" d="M3,27V3.545A.559.559,0,0,1,3.573,3H29.694a.559.559,0,0,1,.573.545V27a3.357,3.357,0,0,1-3.436,3.272H6.436A3.357,3.357,0,0,1,3,27Z" transform="translate(-3 -3)" fill="none" stroke="#000" stroke-linecap="round" stroke-linejoin="round" stroke-width="2" fill-rule="evenodd"/>
            <path id="Path_36" data-name="Path 36" d="M7,7v6.059H22.148V7Z" transform="translate(-0.941 -0.941)" fill="none" stroke="#000" stroke-linecap="round" stroke-linejoin="round" stroke-width="2" fill-rule="evenodd"/>
            <line id="Line_1" data-name="Line 1" x2="10" transform="translate(5.634 18.634)" fill="none" stroke="#000" stroke-linecap="round" stroke-linejoin="round" stroke-width="2"/>
          </g>
        </g>
      </g>
      <path id="_8665141_burger_food_icon" data-name="8665141_burger_food_icon" d="M38.029,43.258a2.27,2.27,0,0,1-1.6,3.872H18.27a2.27,2.27,0,0,1,0-4.539H36.426A2.27,2.27,0,0,1,38.029,43.258Zm-.312,5.608a.759.759,0,0,1,.222.534v.757a3.019,3.019,0,0,1-3.026,3.026H19.783a3.024,3.024,0,0,1-2.14-.884,3.1,3.1,0,0,1-.887-2.142V49.4a.758.758,0,0,1,.757-.757H37.182A.759.759,0,0,1,37.717,48.865ZM17.626,40.927a1.559,1.559,0,0,1-.54-.435,1.53,1.53,0,0,1-.283-1.319C17.843,35.074,22.17,32,27.348,32s9.5,3.074,10.544,7.173a1.542,1.542,0,0,1-.284,1.319,2,2,0,0,1-.539.435,1.571,1.571,0,0,1-.676.151H18.3A1.584,1.584,0,0,1,17.626,40.927ZM32.865,36a.759.759,0,0,0-.222.534.736.736,0,0,0,.128.421.6.6,0,0,0,.34.279,1.48,1.48,0,0,0,.435.043.762.762,0,0,0,.6-.6,1.48,1.48,0,0,0-.043-.435.6.6,0,0,0-.279-.34.784.784,0,0,0-.421-.17.807.807,0,0,0-.534.265Zm-6.052-1.513a.757.757,0,0,0-.222.535.74.74,0,0,0,.128.421.6.6,0,0,0,.34.279,1.48,1.48,0,0,0,.435.043.762.762,0,0,0,.6-.595,1.5,1.5,0,0,0-.043-.437.76.76,0,0,0-.279-.339.642.642,0,0,0-.955.094ZM20.761,36a.759.759,0,0,0-.222.534.736.736,0,0,0,.128.421.6.6,0,0,0,.34.279,1.48,1.48,0,0,0,.435.043.762.762,0,0,0,.6-.6A1.479,1.479,0,0,0,22,36.251a.6.6,0,0,0-.279-.34.784.784,0,0,0-.421-.17.807.807,0,0,0-.534.265Z" transform="translate(311.486 1350.49)"/>
      <path id="_8665553_gift_icon" data-name="8665553_gift_icon" d="M1.822,27.333a1.821,1.821,0,0,0,1.822,1.822h9.111V16.4H1.822ZM27.333,7.289h-2.4a4.923,4.923,0,0,0,0-4.635A4.876,4.876,0,0,0,20.471,0c-2.38,0-3.918,1.214-5.894,3.889C12.6,1.214,11.064,0,8.684,0a4.878,4.878,0,0,0-4.46,2.654,4.921,4.921,0,0,0,0,4.635h-2.4A1.822,1.822,0,0,0,0,9.111v3.644a1.816,1.816,0,0,0,1.771,1.82H27.282a1.826,1.826,0,0,0,1.822-1.82V9.111A1.746,1.746,0,0,0,27.333,7.289Zm-18.569,0a2.278,2.278,0,1,1,0-4.555c1.133,0,1.97.188,4.9,4.555Zm11.628,0h-4.9c2.933-4.368,3.769-4.555,4.9-4.555a2.278,2.278,0,0,1,0,4.555ZM16.4,29.155h9.111a1.821,1.821,0,0,0,1.822-1.822V16.4H16.451Z" transform="translate(323.287 1436.395)"/>
      <g id="_9133514_signup_register_login_icon" data-name="9133514_signup_register_login_icon" transform="translate(322.398 1498.085)">
        <path id="Path_37" data-name="Path 37" d="M35.43,4.5h-1.5V3a.676.676,0,0,0-1.351,0V4.5h-1.5a.676.676,0,0,0,0,1.351h1.5v1.5a.676.676,0,0,0,1.351,0V5.834h1.5a.676.676,0,1,0,0-1.351h0Z" transform="translate(-7.077)"/>
        <path id="Path_38" data-name="Path 38" d="M22.091,16.382a5.039,5.039,0,0,0-3-9.01A4.862,4.862,0,0,0,15.77,8.678a6.073,6.073,0,1,0-8.642,7.981A6.768,6.768,0,0,0,2,22.966v6.006a.673.673,0,0,0,.676.676H18.352a.673.673,0,0,0,.676-.676h0V27.756H25.44a.673.673,0,0,0,.676-.676h0V21.862A5.849,5.849,0,0,0,22.091,16.382Zm-3-7.7A3.68,3.68,0,1,1,15.972,14.2l.038-.105c.06-.128.113-.255.165-.383s.1-.3.143-.45a1.688,1.688,0,0,0,.053-.188,5.683,5.683,0,0,0,.2-1.464,6.6,6.6,0,0,0-.045-.946,4.933,4.933,0,0,0-.12-.578V10a3.535,3.535,0,0,1,2.725-1.314h-.038Zm-4.017,8.446a7.689,7.689,0,0,0-1.2-.443,5.857,5.857,0,0,0,1.351-1.231,4.674,4.674,0,0,0,1.044.991,4.911,4.911,0,0,0-1.119.7ZM5.754,11.607a4.723,4.723,0,0,1,9.19-1.539,4.49,4.49,0,0,1,.27,1.539,4.849,4.849,0,0,1-.255,1.5,4.67,4.67,0,0,1-4.219,3.213h-.556A4.731,4.731,0,0,1,5.754,11.607Zm11.923,16.72H3.351V22.966a4.8,4.8,0,0,1,1.1-3.011,6.1,6.1,0,0,1,2.831-1.9,7.766,7.766,0,0,1,2.072-.338,17.679,17.679,0,0,1,2.185-.015,9.38,9.38,0,0,1,1.119.18q.586.124,1.149.293c.188.053.368.12.556.18a5.363,5.363,0,0,1,1.479.811,7.5,7.5,0,0,1,.743.721,2.763,2.763,0,0,1,.481.758,5.691,5.691,0,0,1,.383,1.261,10.363,10.363,0,0,1,.24,2.26v4.189ZM24.764,26.4H19.028V22.688a6.818,6.818,0,0,0-1.1-3.3c-.038-.053-.083-.105-.12-.165-.135-.18-.278-.36-.428-.526l-.038-.045a5.074,5.074,0,0,0-.886-.766,3.453,3.453,0,0,1,1.96-.488h1.667a4.593,4.593,0,0,1,4.685,4.467Z" transform="translate(0 -0.787)"/>
      </g>
    </g>
    <g id="Group_1-2" data-name="Group 1" transform="translate(14880.127 -2152.904)">
      <path id="Path_7-2" data-name="Path 7" d="M30.184,29.49a1.112,1.112,0,0,0-.381-.9l-1.88-1.568a.16.16,0,0,0-.218-.007.164.164,0,0,0,.04.23l1.5,1.271a.165.165,0,1,1-.219.237l-1.468-1.3a.157.157,0,1,0-.209.227l1.415,1.357a.165.165,0,1,1-.219.237l-1.389-1.386a.165.165,0,0,0-.233-.021.16.16,0,0,0,.025.217l1.716,1.746a1.112,1.112,0,0,0,.933.306.644.644,0,0,1,.573.219c1.036,1.142,2.893,3.063,3.094,3.248.292.269.541.237.706.058a.672.672,0,0,0-.185-.86c-.2-.185-2.109-1.816-3.331-2.755a.643.643,0,0,1-.265-.553" transform="translate(-14514.237 3156.161)" fill="#fc6143"/>
      <path id="Path_8-2" data-name="Path 8" d="M.956,11.256s-2.033-2.732.127-7.193S7.94-.568,11.864.643c0,0-8.049.074-10.909,10.614" transform="translate(-14496.061 3174.456)" fill="#fc6143"/>
      <path id="Path_9-2" data-name="Path 9" d="M73,11.256s2.033-2.732-.127-7.193S66.012-.568,62.088.643c0,0,8.049.074,10.909,10.614" transform="translate(-14538.116 3174.456)" fill="#fc6143"/>
      <path id="Path_10-2" data-name="Path 10" d="M0,27.218l.076.04L0,27.3v-.079" transform="translate(-14496 3155.993)" fill="#fc6143"/>
      <path id="Path_12-2" data-name="Path 12" d="M20.308,32.845a13.275,13.275,0,0,1-9.484-3.932A12.977,12.977,0,0,1,6.8,20.234,13.092,13.092,0,0,1,10.836,9.769a13.069,13.069,0,0,1,9.451-3.948A13.291,13.291,0,0,1,30,9.785a13.068,13.068,0,0,1,4.006,9.655,13.512,13.512,0,0,1-13.7,13.4m.14-2.559A10.72,10.72,0,0,0,28.7,26.537,10.662,10.662,0,0,0,31.325,17.9,11.033,11.033,0,1,0,20.448,30.285" transform="translate(-14500.592 3170.507)" fill="#fc6143"/>
      <path id="Path_28-2" data-name="Path 28" d="M51.016,29.746l3.974-3.551a.12.12,0,0,0,.04-.125.088.088,0,0,0-.1-.054,5.819,5.819,0,0,0-2.83,1.407l-1.454,1.3a.374.374,0,0,0-.081.517l.092.1c-1.372,1.044-3.224,2.579-3.434,2.766-.331.3-.45.7-.267.906s.6.132.931-.164c.21-.188,1.942-1.857,3.134-3.1" transform="translate(-14527.79 3156.81)" fill="#fc6143"/>
    </g>
    <path id="XMLID_219_2" data-name="XMLID_219_" d="M30.854,16.548A2.216,2.216,0,0,1,28.764,18H28V29a1,1,0,0,1-1,1H21V23a5,5,0,0,0-10,0v7H5a1,1,0,0,1-1-1V18H3.235a2.238,2.238,0,0,1-1.47-3.921L13.444,3.019a3.718,3.718,0,0,1,5.112,0L30.263,14.105A2.2,2.2,0,0,1,30.854,16.548Z" transform="translate(384.874 1077.999)" fill="#fc6143"/>
    <path id="_928412_call_communication_contact_phone_service_icon-2" data-name="928412_call_communication_contact_phone_service_icon" d="M27.375,30.648a20.361,20.361,0,0,1-4.3-5.145l-.558-1.052c.2-.209,1.683-1.8,2.328-2.667.81-1.085-.365-2.066-.365-2.066s-3.306-3.306-4.059-3.962a1.622,1.622,0,0,0-1.621-.292c-1.583,1.023-3.225,1.912-3.323,6.19,0,4,3.036,8.136,6.324,11.333,3.293,3.611,7.814,7.231,12.185,7.227,4.277-.1,5.166-1.739,6.189-3.322a1.622,1.622,0,0,0-.291-1.621c-.656-.754-3.963-4.06-3.963-4.06s-.98-1.175-2.065-.364c-.809.6-2.262,1.95-2.612,2.276A28.982,28.982,0,0,1,27.375,30.648Z" transform="translate(372.125 1125.345)" fill="#fc6143"/>
    <g id="_3669434_feedback_ic_icon-2" data-name="3669434_feedback_ic_icon" transform="translate(386.126 1202.126)">
      <path id="Path_29-2" data-name="Path 29" d="M0,0H29.748V29.748H0Z" fill="none"/>
      <path id="Path_30-2" data-name="Path 30" d="M26.311,4H6.479A2.468,2.468,0,0,0,4.012,6.479L4,28.79l4.958-4.958H26.311a2.478,2.478,0,0,0,2.479-2.479V6.479A2.478,2.478,0,0,0,26.311,4ZM17.635,18.874H15.156V16.4h2.479Zm0-4.958H15.156V8.958h2.479Z" transform="translate(-1.521 -1.521)" fill="#fc6143"/>
    </g>
    <g id="Group_3-2" data-name="Group 3" transform="translate(-40.392 -36.222)">
      <path id="Path_31-2" data-name="Path 31" d="M64.564,295.682c-.577-.556-.827-.689-.985-.689a.378.378,0,0,0-.175.052,13.589,13.589,0,0,0-3.187,2.333v0c-.106.224-.037.422.129.848a6.369,6.369,0,0,1,.269.8,17.137,17.137,0,0,1,.215,4.711,13.065,13.065,0,0,0,.246,4.349c.016.048.032.057.057.066a1.582,1.582,0,0,0,1.038-.292c.44-.26,1.291-.667,2.278-1.139,1.543-.738,4.414-2.112,4.678-2.579a2.06,2.06,0,0,0-.245-1.491A35.219,35.219,0,0,0,64.564,295.682Zm.448,8.3a.846.846,0,1,1,.75-.94A.842.842,0,0,1,65.012,303.983Z" transform="translate(362.644 1013.556)" fill="#fc6143"/>
      <path id="Path_32-2" data-name="Path 32" d="M226.728,70.3l-4.583-1.528L217.561,70.3v4.283h9.167Z" transform="translate(219.246 1224.407)" fill="#fc6143"/>
      <path id="Path_33-2" data-name="Path 33" d="M149.15,175.762l2.083-4.167H126.747l2.083,4.167Z" transform="translate(301.984 1128.353)" fill="#fc6143"/>
      <path id="Path_34-2" data-name="Path 34" d="M149.308,266.908a3.683,3.683,0,0,0-2.493-.554,18.154,18.154,0,0,0-7.22,3.487,1.641,1.641,0,0,1-.363.471,3.614,3.614,0,0,1-2.41.658,22.634,22.634,0,0,1-5.371-.925l-.3-.079a.417.417,0,1,1,.209-.807l.3.081a29.358,29.358,0,0,0,3.692.793c2.118.279,2.972-.031,3.315-.34a.789.789,0,0,0,.206-.283l0,0c.008-.017.014-.036.021-.054s.008-.023.012-.036l0-.008a1.377,1.377,0,0,0,.015-.588,2.1,2.1,0,0,0-.994-1.311c-2.735-1.908-9.431-2.36-11.428-1.959h0a23.286,23.286,0,0,0-5.933,2.8l-.333.195c.037.045.076.091.115.14l0,0a25.785,25.785,0,0,1,1.611,2.342l0,0,.138.222.007.011q.136.22.27.444l.011.019.128.213.016.027.127.214,0,.008.119.2.019.032.115.2.024.042.113.2.017.03.1.175.023.041.1.183.028.051.1.178.023.042.082.151.024.044.09.167.027.051.086.162.02.039.073.139.019.037.078.151.022.044.073.144.017.034.062.126.012.025.064.133.009.018a11.824,11.824,0,0,1,4.109-.836,11.53,11.53,0,0,1,3.741.741,11.477,11.477,0,0,0,4.816.737c1.4-.1,4.624-1.5,7.661-3.327,3.636-2.183,5.239-3.9,5.19-4.58A1.039,1.039,0,0,0,149.308,266.908Z" transform="translate(307.908 1040.595)" fill="#fc6143"/>
      <rect id="Rectangle_11-2" data-name="Rectangle 11" width="1.667" height="1.667" transform="translate(431.39 1295.236)" fill="#fc6143"/>
      <rect id="Rectangle_12-2" data-name="Rectangle 12" width="1.667" height="1.667" transform="translate(428.89 1295.236)" fill="#fc6143"/>
      <rect id="Rectangle_13-2" data-name="Rectangle 13" width="1.667" height="1.667" transform="translate(426.39 1295.236)" fill="#fc6143"/>
      <rect id="Rectangle_14-2" data-name="Rectangle 14" width="1.667" height="1.667" transform="translate(454.725 1295.236)" fill="#fc6143"/>
      <rect id="Rectangle_15-2" data-name="Rectangle 15" width="1.667" height="1.667" transform="translate(452.225 1295.236)" fill="#fc6143"/>
      <rect id="Rectangle_16-2" data-name="Rectangle 16" width="1.667" height="1.667" transform="translate(449.724 1295.236)" fill="#fc6143"/>
    </g>
    <g id="Icons-2" data-name="Icons" transform="translate(385.126 1319.366)">
      <g id="Group-2" data-name="Group" transform="translate(1 1)">
        <g id="Shape-2" data-name="Shape">
          <path id="Path_35-2" data-name="Path 35" d="M3,27V3.545A.559.559,0,0,1,3.573,3H29.694a.559.559,0,0,1,.573.545V27a3.357,3.357,0,0,1-3.436,3.272H6.436A3.357,3.357,0,0,1,3,27Z" transform="translate(-3 -3)" fill="none" stroke="#fc6143" stroke-linecap="round" stroke-linejoin="round" stroke-width="2" fill-rule="evenodd"/>
          <path id="Path_36-2" data-name="Path 36" d="M7,7v6.059H22.148V7Z" transform="translate(-0.941 -0.941)" fill="none" stroke="#fc6143" stroke-linecap="round" stroke-linejoin="round" stroke-width="2" fill-rule="evenodd"/>
          <line id="Line_1-2" data-name="Line 1" x2="10" transform="translate(5.634 18.634)" fill="none" stroke="#fc6143" stroke-linecap="round" stroke-linejoin="round" stroke-width="2"/>
        </g>
      </g>
    </g>
    <path id="_8665141_burger_food_icon-2" data-name="8665141_burger_food_icon" d="M38.029,43.258a2.27,2.27,0,0,1-1.6,3.872H18.27a2.27,2.27,0,0,1,0-4.539H36.426A2.27,2.27,0,0,1,38.029,43.258Zm-.312,5.608a.759.759,0,0,1,.222.534v.757a3.019,3.019,0,0,1-3.026,3.026H19.783a3.024,3.024,0,0,1-2.14-.884,3.1,3.1,0,0,1-.887-2.142V49.4a.758.758,0,0,1,.757-.757H37.182A.759.759,0,0,1,37.717,48.865ZM17.626,40.927a1.559,1.559,0,0,1-.54-.435,1.53,1.53,0,0,1-.283-1.319C17.843,35.074,22.17,32,27.348,32s9.5,3.074,10.544,7.173a1.542,1.542,0,0,1-.284,1.319,2,2,0,0,1-.539.435,1.571,1.571,0,0,1-.676.151H18.3A1.584,1.584,0,0,1,17.626,40.927ZM32.865,36a.759.759,0,0,0-.222.534.736.736,0,0,0,.128.421.6.6,0,0,0,.34.279,1.48,1.48,0,0,0,.435.043.762.762,0,0,0,.6-.6,1.48,1.48,0,0,0-.043-.435.6.6,0,0,0-.279-.34.784.784,0,0,0-.421-.17.807.807,0,0,0-.534.265Zm-6.052-1.513a.757.757,0,0,0-.222.535.74.74,0,0,0,.128.421.6.6,0,0,0,.34.279,1.48,1.48,0,0,0,.435.043.762.762,0,0,0,.6-.595,1.5,1.5,0,0,0-.043-.437.76.76,0,0,0-.279-.339.642.642,0,0,0-.955.094ZM20.761,36a.759.759,0,0,0-.222.534.736.736,0,0,0,.128.421.6.6,0,0,0,.34.279,1.48,1.48,0,0,0,.435.043.762.762,0,0,0,.6-.6A1.479,1.479,0,0,0,22,36.251a.6.6,0,0,0-.279-.34.784.784,0,0,0-.421-.17.807.807,0,0,0-.534.265Z" transform="translate(372.486 1350.49)" fill="#fc6143"/>
    <path id="_8665553_gift_icon-2" data-name="8665553_gift_icon" d="M1.822,27.333a1.821,1.821,0,0,0,1.822,1.822h9.111V16.4H1.822ZM27.333,7.289h-2.4a4.923,4.923,0,0,0,0-4.635A4.876,4.876,0,0,0,20.471,0c-2.38,0-3.918,1.214-5.894,3.889C12.6,1.214,11.064,0,8.684,0a4.878,4.878,0,0,0-4.46,2.654,4.921,4.921,0,0,0,0,4.635h-2.4A1.822,1.822,0,0,0,0,9.111v3.644a1.816,1.816,0,0,0,1.771,1.82H27.282a1.826,1.826,0,0,0,1.822-1.82V9.111A1.746,1.746,0,0,0,27.333,7.289Zm-18.569,0a2.278,2.278,0,1,1,0-4.555c1.133,0,1.97.188,4.9,4.555Zm11.628,0h-4.9c2.933-4.368,3.769-4.555,4.9-4.555a2.278,2.278,0,0,1,0,4.555ZM16.4,29.155h9.111a1.821,1.821,0,0,0,1.822-1.822V16.4H16.451Z" transform="translate(384.287 1436.395)" fill="#fc6143"/>
    <g id="_9133514_signup_register_login_icon-2" data-name="9133514_signup_register_login_icon" transform="translate(383.398 1498.085)">
      <path id="Path_37-2" data-name="Path 37" d="M35.43,4.5h-1.5V3a.676.676,0,0,0-1.351,0V4.5h-1.5a.676.676,0,0,0,0,1.351h1.5v1.5a.676.676,0,0,0,1.351,0V5.834h1.5a.676.676,0,1,0,0-1.351h0Z" transform="translate(-7.077)" fill="#fc6143"/>
      <path id="Path_38-2" data-name="Path 38" d="M22.091,16.382a5.039,5.039,0,0,0-3-9.01A4.862,4.862,0,0,0,15.77,8.678a6.073,6.073,0,1,0-8.642,7.981A6.768,6.768,0,0,0,2,22.966v6.006a.673.673,0,0,0,.676.676H18.352a.673.673,0,0,0,.676-.676h0V27.756H25.44a.673.673,0,0,0,.676-.676h0V21.862A5.849,5.849,0,0,0,22.091,16.382Zm-3-7.7A3.68,3.68,0,1,1,15.972,14.2l.038-.105c.06-.128.113-.255.165-.383s.1-.3.143-.45a1.688,1.688,0,0,0,.053-.188,5.683,5.683,0,0,0,.2-1.464,6.6,6.6,0,0,0-.045-.946,4.933,4.933,0,0,0-.12-.578V10a3.535,3.535,0,0,1,2.725-1.314h-.038Zm-4.017,8.446a7.689,7.689,0,0,0-1.2-.443,5.857,5.857,0,0,0,1.351-1.231,4.674,4.674,0,0,0,1.044.991,4.911,4.911,0,0,0-1.119.7ZM5.754,11.607a4.723,4.723,0,0,1,9.19-1.539,4.49,4.49,0,0,1,.27,1.539,4.849,4.849,0,0,1-.255,1.5,4.67,4.67,0,0,1-4.219,3.213h-.556A4.731,4.731,0,0,1,5.754,11.607Zm11.923,16.72H3.351V22.966a4.8,4.8,0,0,1,1.1-3.011,6.1,6.1,0,0,1,2.831-1.9,7.766,7.766,0,0,1,2.072-.338,17.679,17.679,0,0,1,2.185-.015,9.38,9.38,0,0,1,1.119.18q.586.124,1.149.293c.188.053.368.12.556.18a5.363,5.363,0,0,1,1.479.811,7.5,7.5,0,0,1,.743.721,2.763,2.763,0,0,1,.481.758,5.691,5.691,0,0,1,.383,1.261,10.363,10.363,0,0,1,.24,2.26v4.189ZM24.764,26.4H19.028V22.688a6.818,6.818,0,0,0-1.1-3.3c-.038-.053-.083-.105-.12-.165-.135-.18-.278-.36-.428-.526l-.038-.045a5.074,5.074,0,0,0-.886-.766,3.453,3.453,0,0,1,1.96-.488h1.667a4.593,4.593,0,0,1,4.685,4.467Z" transform="translate(0 -0.787)" fill="#fc6143"/>
    </g>
  </g>
</svg>
