<svg id="search_4_" data-name="search (4)" xmlns="http://www.w3.org/2000/svg" width="14.323" height="14.318" viewBox="0 0 14.323 14.318">
  <g id="search_1_" transform="translate(0)">
    <path id="Path_2" data-name="Path 2" d="M64.458,12.612a6.264,6.264,0,1,0-6.264-6.264A6.264,6.264,0,0,0,64.458,12.612Zm0-10.738a4.474,4.474,0,1,1-4.474,4.474A4.474,4.474,0,0,1,64.458,1.874Z" transform="translate(-58.194 -0.084)" fill="#fc6143"/>
    <path id="Path_3" data-name="Path 3" d="M4.279,302.416a.895.895,0,0,0,.641-1.525l-.005-.005L1.55,297.521a.914.914,0,0,0-1.271,1.315l3.365,3.32a.9.9,0,0,0,.635.259Z" transform="translate(9.144 -288.098)" fill="#fc6143"/>
  </g>
</svg>
