<svg xmlns="http://www.w3.org/2000/svg" width="22.06" height="196.839" viewBox="0 0 22.06 196.839">
  <g id="Group_3097" data-name="Group 3097" transform="translate(11854 494.339)">
    <g id="food-tray" transform="translate(-11854 -508.939)">
      <path id="Path_14405" data-name="Path 14405" d="M0,46.07a1.455,1.455,0,0,0,1.417,1.112h18.6A1.455,1.455,0,0,0,21.43,46.07Z" transform="translate(0 -20.931)"/>
      <path id="Path_14406" data-name="Path 14406" d="M14.5,18.91H14.2a8.76,8.76,0,0,0-8.741,8.4H23.236a8.763,8.763,0,0,0-8.741-8.4Z" transform="translate(-3.631 -2.867)"/>
      <path id="Path_14407" data-name="Path 14407" d="M28.8,15.3h.345v.415c.114,0,.231-.007.348-.007h.348V15.3h.348a.348.348,0,1,0,0-.7H28.8a.348.348,0,0,0,0,.7Z" transform="translate(-18.922)"/>
    </g>
    <g id="office-chair" transform="translate(-11853 -461.948)">
      <path id="Path_14416" data-name="Path 14416" d="M19,18.228v-4.2A2.526,2.526,0,0,1,21.523,11.5a.841.841,0,1,1-.01,1.682.833.833,0,0,0-.831.841v2.523A1.682,1.682,0,0,1,19,18.228Z" transform="translate(-2.862 -1.829)"/>
      <path id="Path_14417" data-name="Path 14417" d="M4.364,18.228v-4.2A2.526,2.526,0,0,0,1.841,11.5a.841.841,0,1,0,.01,1.682.833.833,0,0,1,.831.841v2.523A1.682,1.682,0,0,0,4.364,18.228Z" transform="translate(0 -1.829)"/>
      <path id="Path_14418" data-name="Path 14418" d="M14.739,23.682H7.591a.841.841,0,0,1,0-1.682h7.148a.841.841,0,0,1,0,1.682Z" transform="translate(-0.914 -3.498)"/>
      <path id="Path_14419" data-name="Path 14419" d="M11.841,23.006A.841.841,0,0,1,11,22.165V18.591a.841.841,0,0,1,1.682,0v3.574A.841.841,0,0,1,11.841,23.006Z" transform="translate(-1.59 -2.822)"/>
      <path id="Path_14420" data-name="Path 14420" d="M15.173,10.933H6.661a1.472,1.472,0,0,1-1.45-1.724L6.6,1.219A1.469,1.469,0,0,1,8.05,0h5.733a1.467,1.467,0,0,1,1.45,1.22L16.622,9.21a1.471,1.471,0,0,1-1.449,1.723Z" transform="translate(-0.666)"/>
      <path id="Path_14421" data-name="Path 14421" d="M16.825,18.625H4.631A.631.631,0,0,1,4,17.995V16.313A2.315,2.315,0,0,1,6.313,14h8.83a2.315,2.315,0,0,1,2.313,2.313v1.682A.631.631,0,0,1,16.825,18.625Z" transform="translate(-0.477 -2.226)"/>
    </g>
    <path id="map" d="M13,1A8,8,0,0,0,5,9c0,4.225,7.127,13.164,7.433,13.549a.727.727,0,0,0,1.135,0C13.873,22.164,21,13.225,21,9a8,8,0,0,0-8-8Zm0,10.182a2.909,2.909,0,1,1,2.909-2.909A2.909,2.909,0,0,1,13,11.182Z" transform="translate(-11856 -428.26)"/>
    <g id="soup" transform="translate(-11852.999 -391.23)">
      <path id="Path_14398" data-name="Path 14398" d="M233.269,4.17a.52.52,0,0,1-.39-.175,1.7,1.7,0,0,1,0-2.256.656.656,0,0,0,0-.871.521.521,0,0,1,.779-.693,1.7,1.7,0,0,1,0,2.256.656.656,0,0,0,0,.871.521.521,0,0,1-.389.868Z" transform="translate(-223.409 0)"/>
      <path id="Path_14399" data-name="Path 14399" d="M163.269,4.17a.52.52,0,0,1-.39-.175,1.7,1.7,0,0,1,0-2.256.656.656,0,0,0,0-.871.521.521,0,0,1,.779-.693,1.7,1.7,0,0,1,0,2.256.656.656,0,0,0,0,.871.521.521,0,0,1-.389.868Z" transform="translate(-155.841 0)"/>
      <path id="Path_14400" data-name="Path 14400" d="M303.269,4.17a.52.52,0,0,1-.39-.175,1.7,1.7,0,0,1,0-2.256.656.656,0,0,0,0-.871.521.521,0,0,1,.779-.693,1.7,1.7,0,0,1,0,2.256.656.656,0,0,0,0,.871.521.521,0,0,1-.389.868Z" transform="translate(-290.976 0)"/>
      <g id="Group_3056" data-name="Group 3056" transform="translate(0.999 2.78)">
        <path id="Path_14401" data-name="Path 14401" d="M400.329,82.085h.481a1.043,1.043,0,1,0,0-2.085h-.426a2.085,2.085,0,0,0-2.032,1.616l-.429,1.859h2.085Z" transform="translate(-384.13 -80)"/>
        <g id="Group_3055" data-name="Group 3055" transform="translate(0 4.518)">
          <path id="Path_14402" data-name="Path 14402" d="M1.015,210.668a8.932,8.932,0,0,0,.322,1.417H18.384a8.934,8.934,0,0,0,.322-1.417l.01-.073a.521.521,0,0,0-.516-.6H1.52a.521.521,0,0,0-.516.6Z" transform="translate(-0.999 -210)"/>
          <g id="Group_3054" data-name="Group 3054" transform="translate(4.865 8.709)">
            <path id="Path_14403" data-name="Path 14403" d="M141.394,460.607l-.367,1.1a.521.521,0,0,0,.495.686h6.95a.521.521,0,0,0,.494-.686l-.367-1.1a9.968,9.968,0,0,1-7.206,0Z" transform="translate(-141.001 -460.607)"/>
          </g>
          <path id="Path_14404" data-name="Path 14404" d="M22.258,300A8.935,8.935,0,0,0,38.5,300Z" transform="translate(-21.519 -296.872)"/>
        </g>
      </g>
    </g>
    <g id="shop" transform="translate(-11884.898 -395.105)">
      <path id="Path_14422" data-name="Path 14422" d="M266.667,49.536a2.531,2.531,0,0,0,3.389,0V47.2a2.965,2.965,0,0,0-.045-.516l-.709-4.017h-2.635Z" transform="translate(-224.484)"/>
      <path id="Path_14423" data-name="Path 14423" d="M160,47.2v2.335a2.531,2.531,0,0,0,3.389,0V42.667h-2.635l-.709,4.018A2.964,2.964,0,0,0,160,47.2Z" transform="translate(-122.054 0)"/>
      <path id="Path_14424" data-name="Path 14424" d="M359.481,47.1h0l-1.342-3.607a1.276,1.276,0,0,0-1.191-.828h-2.27l.683,3.871a3.821,3.821,0,0,1,.058.663v2.335a2.539,2.539,0,0,0,4.108-1.091A2.036,2.036,0,0,0,359.481,47.1Z" transform="translate(-308.999 0)"/>
      <path id="Path_14425" data-name="Path 14425" d="M37.1,47.2a3.821,3.821,0,0,1,.058-.663l.683-3.871H35.569a1.276,1.276,0,0,0-1.191.828L33.036,47.1a2.038,2.038,0,0,0-.045,1.343A2.539,2.539,0,0,0,37.1,49.536Z" transform="translate(0 0)"/>
      <path id="Path_14426" data-name="Path 14426" d="M88.223,235.344A3.38,3.38,0,0,1,86.1,234.6a3.388,3.388,0,0,1-4.237,0,3.388,3.388,0,0,1-4.237,0,3.382,3.382,0,0,1-2.966.635V241.8a2.121,2.121,0,0,0,2.118,2.118H86.952A2.121,2.121,0,0,0,89.07,241.8v-6.569A3.4,3.4,0,0,1,88.223,235.344Zm-3.387,3.792-1.069,1.2.162,1.6a.424.424,0,0,1-.592.43l-1.468-.647-1.468.647a.424.424,0,0,1-.592-.43l.162-1.6-1.069-1.2a.424.424,0,0,1,.226-.7l1.568-.34.807-1.386a.424.424,0,0,1,.732,0l.807,1.386,1.568.34a.424.424,0,0,1,.226.7Z" transform="translate(-40.109 -184.31)"/>
    </g>
    <g id="food-trolley" transform="translate(-11864 -329.56)">
      <path id="Path_14427" data-name="Path 14427" d="M37.01,78.505a1.838,1.838,0,1,1-1.838-1.838A1.839,1.839,0,0,1,37.01,78.505Z" transform="translate(-16.899 -48.284)"/>
      <path id="Path_14428" data-name="Path 14428" d="M70.344,78.505a1.838,1.838,0,1,1-1.838-1.838A1.839,1.839,0,0,1,70.344,78.505Z" transform="translate(-41.041 -48.284)"/>
      <path id="Path_14429" data-name="Path 14429" d="M15.515,28.848V25.171a1.838,1.838,0,0,0-1.838-1.838H10v1.838h3.677V37.12H32.06V28.848Z" transform="translate(0 -9.656)"/>
      <path id="Path_14430" data-name="Path 14430" d="M46.434,11.921V10H44.6v1.921A5.514,5.514,0,0,0,40,17.353H51.03A5.512,5.512,0,0,0,46.434,11.921Z" transform="translate(-21.728)"/>
    </g>
  </g>
</svg>
